<svg width="352" height="152" viewBox="0 0 352 152" fill="none" xmlns="http://www.w3.org/2000/svg">
<rect width="352" height="152" fill="#00FFAE"/>
<path d="M61.9531 67.0625C59.3594 64.375 57.25 61.1406 55.625 57.3594C54.0312 53.5781 53.0469 50 52.6719 46.625C52.2969 43.25 51.7188 40.9219 50.9375 39.6406C50.1875 38.3281 49.1094 37.3281 47.7031 36.6406C50.4219 35.3594 52.0156 32.7344 52.4844 28.7656C52.9844 24.7656 54.0938 21.0312 55.8125 17.5625C57.5312 14.0938 59.7188 11.125 62.375 8.65625C67.9688 3.46875 74.7031 0.875 82.5781 0.875C90.6719 0.875 97.375 3.28125 102.688 8.09375C108.219 13.0938 111.469 20.0938 112.438 29.0938C112.844 32.8438 114.438 35.3594 117.219 36.6406C114.5 37.9844 112.891 40.8281 112.391 45.1719C111.891 49.5156 110.906 53.5781 109.438 57.3594C107.969 61.1406 106 64.375 103.531 67.0625C98.375 72.625 91.4062 75.4062 82.625 75.4062C74.2188 75.4062 67.3281 72.625 61.9531 67.0625ZM77.2812 36.6406C73.8438 38.2969 72.125 41 72.125 44.75V58.6719C72.125 63.7656 74.2344 67.0312 78.4531 68.4688C79.7031 68.9062 81.0625 69.125 82.5312 69.125C84 69.125 85.3438 68.9062 86.5625 68.4688C87.8125 68.0312 88.8906 67.375 89.7969 66.5C91.6719 64.6875 92.6094 62.0781 92.6094 58.6719V44.75C92.6094 41 90.9219 38.2969 87.5469 36.6406C90.9219 35.0781 92.6094 32.5625 92.6094 29.0938V17.8906C92.6094 14.4219 91.5938 11.7188 89.5625 9.78125C87.6562 8 85.2969 7.10938 82.4844 7.10938C77.7031 7.10938 74.5156 9.10938 72.9219 13.1094C72.3906 14.4531 72.125 16.0469 72.125 17.8906V29.0938C72.125 32.625 73.8438 35.1406 77.2812 36.6406ZM96.9219 15.4062C97.7969 18.0312 98.2344 22.5469 98.2344 28.9531C98.2344 32.5781 98.0781 34.5625 97.7656 34.9062C97.4531 35.25 97.1406 35.5312 96.8281 35.75C96.2656 36.125 95.6562 36.4219 95 36.6406C96.875 37.4844 97.8594 38.2969 97.9531 39.0781C98.2656 42.1406 98.4219 44.7969 98.4219 47.0469C98.4219 49.2656 98.3906 51.0625 98.3281 52.4375C98.2656 53.7812 98.1719 55.0312 98.0469 56.1875C97.7969 58.6562 97.4844 60.4531 97.1094 61.5781C99.5469 60.8281 100.906 57.2188 101.188 50.75C101.344 47.125 101.422 43.0938 101.422 38.6562C101.422 34.1875 101.375 30.8438 101.281 28.625C101.188 26.375 101.047 24.5312 100.859 23.0938C100.484 19.7812 99.7031 17.4844 98.5156 16.2031C98.1719 15.8281 97.6406 15.5625 96.9219 15.4062ZM63.125 61.5781C63.5938 61.3906 63.8281 61.0625 63.8281 60.5938C63.8281 59.9062 63.5 58.8281 62.8438 57.3594C61.1875 53.5781 60.3594 46.6719 60.3594 36.6406C60.3594 29.3281 61.2344 23.1094 62.9844 17.9844C63.2031 17.2031 63.3125 16.6094 63.3125 16.2031C63.3125 15.7969 63.1094 15.5312 62.7031 15.4062C61.2344 17.25 60.1875 19.0781 59.5625 20.8906C58.4062 24.2031 57.4844 28.6875 56.7969 34.3438C56.7031 35.1562 55.7812 35.9219 54.0312 36.6406C55.7812 37.4219 56.7031 38.2188 56.7969 39.0312C57.9219 48.7188 59.3594 55.1875 61.1094 58.4375C61.7031 59.5938 62.375 60.6406 63.125 61.5781ZM132.359 96.3594C130.953 97.3906 129.328 97.9062 127.484 97.9062C125.641 97.9062 124.266 97.5 123.359 96.6875C122.484 95.875 122.047 95.0938 122.047 94.3438C122.047 93.3125 122.266 92.5 122.703 91.9062C123.391 92.4375 124.266 92.7031 125.328 92.7031C127.141 92.7031 128.438 91.6562 129.219 89.5625V52.625C129.219 51.1875 128.922 50.125 128.328 49.4375C127.391 48.2812 125.781 47.1406 123.5 46.0156C127.312 44.2656 129.219 41.5625 129.219 37.9062V32.9844C129.219 30.3281 128.312 28.8906 126.5 28.6719C125.969 28.6094 125.297 28.5781 124.484 28.5781C123.672 28.5781 122.922 28.8438 122.234 29.375C121.797 28.7812 121.578 28.1719 121.578 27.5469C121.578 26.8906 121.734 26.1719 122.047 25.3906C122.391 24.5781 122.891 23.8125 123.547 23.0938C125.203 21.4062 127.109 20.5625 129.266 20.5625C131.453 20.5625 133.266 20.9062 134.703 21.5938C136.422 19.6562 138.266 18.6875 140.234 18.6875C143.453 18.6875 145.062 20.375 145.062 23.75V24.0781C147.531 21.6094 150.75 19.9375 154.719 19.0625C155.938 18.8125 157.5 18.6875 159.406 18.6875C161.344 18.6875 163.375 18.9688 165.5 19.5312C167.625 20.0938 169.469 21.0938 171.031 22.5312C174.156 25.4062 176.078 30.5312 176.797 37.9062C177.109 41.7188 179.016 44.4219 182.516 46.0156C180.297 47.1094 178.891 48.0312 178.297 48.7812C177.516 49.8438 177.016 51.125 176.797 52.625C175.891 60.1562 173.953 65.7188 170.984 69.3125C167.734 73.2188 163.031 75.1719 156.875 75.1719C152.125 75.1719 148.188 73.9219 145.062 71.4219V89.4688C145.844 91.625 147.141 92.7031 148.953 92.7031C150.016 92.7031 150.891 92.4375 151.578 91.9062C152.016 92.5 152.234 93.2344 152.234 94.1094C152.234 95.0156 151.781 95.875 150.875 96.6875C150 97.5 148.656 97.9062 146.844 97.9062C145.031 97.9062 143.391 97.3906 141.922 96.3594C140.672 97.3906 139.109 97.9062 137.234 97.9062C135.391 97.9062 133.766 97.3906 132.359 96.3594ZM145.016 59.1406C145.016 61.6719 145.859 63.8438 147.547 65.6562C149.203 67.4375 151.062 68.3281 153.125 68.3281C158.344 68.3281 160.953 64.5781 160.953 57.0781V36.5469C160.953 33.1094 160.344 30.4219 159.125 28.4844C157.906 26.5156 156.188 25.5312 153.969 25.5312C150 25.5312 147.266 27.7188 145.766 32.0938C145.266 33.5938 145.016 35.3906 145.016 37.4844V59.1406ZM165.453 61.5781C167.016 60.9844 167.891 58.9375 168.078 55.4375C168.234 51.9375 168.312 49.3438 168.312 47.6562C168.312 45.9375 168.297 44.5156 168.266 43.3906C168.266 42.2344 168.25 41.0469 168.219 39.8281C168.094 35.2656 167.734 32.6094 167.141 31.8594C166.547 31.1094 165.984 30.6094 165.453 30.3594V61.5781ZM133.625 75.2188C135.094 74.2188 135.922 72.125 136.109 68.9375C136.172 67.125 136.219 65.0312 136.25 62.6562C136.312 57.3125 136.344 53.9219 136.344 52.4844C136.375 51.0156 136.391 49.7656 136.391 48.7344V45.0312C136.391 44.5312 136.375 43.9219 136.344 43.2031C136.344 42.4531 136.328 41.6562 136.297 40.8125C136.297 39.9375 136.266 39.0938 136.203 38.2812C136.047 35.1875 135.703 33.1875 135.172 32.2812C134.672 31.3438 134.156 30.7031 133.625 30.3594V33.1719C133.625 38.6094 133.5 41.7969 133.25 42.7344C133.031 43.6406 132.656 44.3281 132.125 44.7969C131.625 45.2656 130.875 45.6719 129.875 46.0156C131.75 46.6719 132.812 47.4531 133.062 48.3594C133.438 49.7344 133.625 53.5781 133.625 59.8906V75.2188ZM229.531 59.8438C230.219 58.5312 231.484 57.875 233.328 57.875C234.578 57.875 235.547 58.3906 236.234 59.4219C236.797 60.2344 237.078 61.2344 237.078 62.4219C237.078 63.5781 236.781 64.75 236.188 65.9375C235.594 67.125 234.781 68.2031 233.75 69.1719C232.719 70.1406 231.531 71 230.188 71.75C228.875 72.5 227.469 73.125 225.969 73.625C222.875 74.6562 219.656 75.1719 216.312 75.1719C212.969 75.1719 209.828 74.625 206.891 73.5312C203.984 72.4062 201.484 70.8438 199.391 68.8438C195.297 64.9062 192.797 59.5 191.891 52.625C191.672 51.0938 191.312 50 190.812 49.3438C189.875 48.1875 188.328 47.0781 186.172 46.0156C188.891 44.7969 190.625 42.8438 191.375 40.1562C191.594 39.4062 191.766 38.6562 191.891 37.9062C192.672 32.4062 195.453 27.7188 200.234 23.8438C204.859 20.0938 210.031 18.2188 215.75 18.2188C221.688 18.2188 226.828 20.3125 231.172 24.5C235.672 28.8125 237.922 34.1094 237.922 40.3906C237.922 40.6094 237.906 40.8281 237.875 41.0469C237.875 41.2656 237.891 41.4688 237.922 41.6562C237.984 42.0625 238.234 42.2969 238.672 42.3594C239.234 43.0781 239.516 43.8438 239.516 44.6562C239.516 46.5312 238.516 47.6406 236.516 47.9844C236.016 48.0781 235.234 48.2031 234.172 48.3594L207.734 52.5781V57.0781C207.734 60.7031 208.828 63.5781 211.016 65.7031C213.078 67.7344 215.688 68.75 218.844 68.75C222.188 68.75 224.875 68.0625 226.906 66.6875C228.812 65.375 229.766 63.6562 229.766 61.5312C229.766 61.0312 229.688 60.4688 229.531 59.8438ZM221.328 44.7031V31.5781C221.328 29.5156 220.922 28 220.109 27.0312C218.672 25.375 217.25 24.5469 215.844 24.5469C214.438 24.5469 213.266 24.7656 212.328 25.2031C211.391 25.6094 210.578 26.2656 209.891 27.1719C208.453 29.0781 207.734 32.0469 207.734 36.0781V46.9062L221.328 44.7031ZM228.266 43.5312V42.0781C228.266 36.2656 227.781 32.75 226.812 31.5312C226.375 31 225.891 30.6094 225.359 30.3594V44L228.266 43.5312ZM200.094 61.5781C200.531 61.2344 200.75 60.8438 200.75 60.4062C200.75 59.7188 200.609 58.8438 200.328 57.7812C199.047 52.875 198.406 49.4688 198.406 47.5625C198.406 45.625 198.469 44.125 198.594 43.0625C198.719 41.9688 198.891 40.875 199.109 39.7812C199.484 37.6562 199.891 35.7812 200.328 34.1562C200.609 33.0938 200.75 32.375 200.75 32C200.75 31.25 200.531 30.7031 200.094 30.3594C198.781 31.9219 197.781 34.0156 197.094 36.6406C196.406 39.2656 195.844 41.5781 195.406 43.5781C195.25 44.4219 194.328 45.2344 192.641 46.0156C194.328 46.7969 195.25 47.5781 195.406 48.3594C196.562 53.6406 197.516 57 198.266 58.4375C199.016 59.875 199.625 60.9219 200.094 61.5781ZM254.516 73.4375C253.078 74.4375 251.438 74.9375 249.594 74.9375C247.75 74.9375 246.406 74.5156 245.562 73.6719C244.75 72.7969 244.344 71.9688 244.344 71.1875C244.344 70.1562 244.516 69.4062 244.859 68.9375C245.547 69.4688 246.422 69.7344 247.484 69.7344C249.484 69.7344 250.781 68.7656 251.375 66.8281V52.25C251.375 50.875 251.078 49.875 250.484 49.25C249.578 48.2188 247.969 47.1406 245.656 46.0156C247.844 45.0156 249.234 44.2188 249.828 43.625C250.859 42.5938 251.375 41.3281 251.375 39.8281V32.9844C251.375 30.3281 250.469 28.8906 248.656 28.6719C248.125 28.6094 247.453 28.5781 246.641 28.5781C245.828 28.5781 245.078 28.8438 244.391 29.375C243.953 28.7812 243.734 28.1719 243.734 27.5469C243.734 26.8906 243.891 26.1719 244.203 25.3906C244.547 24.5781 245.047 23.8125 245.703 23.0938C247.359 21.4062 249.266 20.5625 251.422 20.5625C253.609 20.5625 255.422 20.9062 256.859 21.5938C258.578 19.6562 260.328 18.6875 262.109 18.6875C263.891 18.6875 265.125 19.1094 265.812 19.9531C266.5 20.7656 266.844 22.0312 266.844 23.75V28.1562C268.469 25.25 270.688 22.9531 273.5 21.2656C276.312 19.5469 279.297 18.6875 282.453 18.6875C285.609 18.6875 288.141 19.1094 290.047 19.9531C291.984 20.7656 293.578 21.9375 294.828 23.4688C297.266 26.5 298.484 30.9062 298.484 36.6875V39.7812C298.484 41.2812 298.812 42.3594 299.469 43.0156C300.438 44.0156 302.016 45.0156 304.203 46.0156C301.859 47.1719 300.391 48.0469 299.797 48.6406C298.922 49.6094 298.484 50.7812 298.484 52.1562V66.8281C299.078 68.7656 300.375 69.7344 302.375 69.7344C303.438 69.7344 304.312 69.4688 305 68.9375C305.344 69.4062 305.516 70.0938 305.516 71C305.516 71.9062 305.094 72.7969 304.25 73.6719C303.438 74.5156 302.172 74.9375 300.453 74.9375C298.734 74.9375 297.172 74.4531 295.766 73.4844C294.516 74.4531 293.047 74.9375 291.359 74.9375C289.703 74.9375 288.219 74.4688 286.906 73.5312C285.531 74.4688 284.062 74.9375 282.5 74.9375C280.938 74.9375 279.703 74.5469 278.797 73.7656C277.891 72.9844 277.438 71.8594 277.438 70.3906C277.438 69.7031 277.672 69.1562 278.141 68.75C278.859 69.3125 279.578 69.5938 280.297 69.5938C281.672 69.5938 282.656 68.8281 283.25 67.2969V39.3594C283.25 33.2969 281.766 29.7812 278.797 28.8125C277.828 28.5 276.781 28.3438 275.656 28.3438C274.531 28.3438 273.484 28.5781 272.516 29.0469C271.547 29.4844 270.672 30.1094 269.891 30.9219C268.172 32.7344 267.156 34.8906 266.844 37.3906V67.2969C267.438 68.8281 268.422 69.5938 269.797 69.5938C270.516 69.5938 271.234 69.3125 271.953 68.75C272.422 69.1562 272.656 69.9062 272.656 71C272.656 72.0625 272.203 72.9844 271.297 73.7656C270.391 74.5469 269.188 74.9375 267.688 74.9375C266.219 74.9375 264.875 74.4688 263.656 73.5312C262.469 74.4688 261.016 74.9375 259.297 74.9375C257.578 74.9375 255.984 74.4375 254.516 73.4375ZM287.75 61.5781C289.312 60.9844 290.172 58.9375 290.328 55.4375C290.516 51.9375 290.609 48.6406 290.609 45.5469C290.609 42.4531 290.484 39.9062 290.234 37.9062C289.984 35.875 289.625 34.2969 289.156 33.1719C288.688 32.0156 288.125 31.1875 287.469 30.6875C286.844 30.1562 286.156 29.7031 285.406 29.3281C286.594 32.1406 287.281 34.7031 287.469 37.0156C287.656 39.3281 287.75 41.5625 287.75 43.7188V61.5781ZM258.547 51.2188C258.578 50.1875 258.594 49.3281 258.594 48.6406C258.625 47.9219 258.641 47.3438 258.641 46.9062C258.641 46.4688 258.641 46.0312 258.641 45.5938C258.641 45.125 258.625 44.5156 258.594 43.7656C258.594 43.0156 258.578 42.1875 258.547 41.2812C258.547 40.375 258.516 39.4844 258.453 38.6094C258.359 36.4531 258.219 34.9688 258.031 34.1562C257.656 32.3438 256.938 31.0938 255.875 30.4062V33.4531C255.875 38.7031 255.75 41.7969 255.5 42.7344C255.281 43.6406 254.906 44.3281 254.375 44.7969C253.875 45.2656 253.125 45.6719 252.125 46.0156C254 46.6719 255.062 47.4531 255.312 48.3594C255.688 49.8594 255.875 53.2344 255.875 58.4844V61.5312C257.312 60.5938 258.141 58.6875 258.359 55.8125C258.484 53.7812 258.547 52.25 258.547 51.2188ZM47.5156 141.891C48.7656 140.828 49.75 139.453 50.4688 137.766C51.2188 136.078 51.5938 134.312 51.5938 132.469C51.5938 130.594 51.2344 129.141 50.5156 128.109C51.0156 127.234 52.0625 126.797 53.6562 126.797C55.25 126.797 56.4688 127.312 57.3125 128.344C58.1875 129.375 58.625 130.969 58.625 133.125C58.625 135.25 58.0469 137.469 56.8906 139.781C55.7656 142.062 54.1719 144.062 52.1094 145.781C47.5469 149.531 41.8438 151.406 35 151.406C26.8438 151.406 20.1406 148.844 14.8906 143.719C9.54688 138.469 6.32812 130.984 5.23438 121.266C4.70312 116.828 3.10938 113.953 0.453125 112.641C1.92188 111.953 2.9375 111.234 3.5 110.484C4.40625 109.203 4.98438 107.469 5.23438 105.281C5.51562 103.062 6.03125 100.766 6.78125 98.3906C7.53125 96.0156 8.51562 93.7656 9.73438 91.6406C10.9844 89.4844 12.4688 87.5156 14.1875 85.7344C15.9062 83.9219 17.875 82.3594 20.0938 81.0469C24.7812 78.2656 30.25 76.875 36.5 76.875C42.5938 76.875 47.6406 78.4062 51.6406 81.4688C55.2344 84.25 57.5625 88.0312 58.625 92.8125C59.125 95.1875 59.7656 96.6562 60.5469 97.2188C60.8594 97.4688 61.25 97.7031 61.7188 97.9219C60.7812 99.4844 59.3594 100.344 57.4531 100.5C56.6094 100.625 55.7031 100.453 54.7344 99.9844C53.0156 102.922 50.5938 104.484 47.4688 104.672C46.8125 104.734 46.3125 104.609 45.9688 104.297C46.8125 103.172 47.2031 101.859 47.1406 100.359C47.1406 100.078 47.0938 99.7969 47 99.5156C45.5625 99.7969 44.3438 99.6719 43.3438 99.1406C41.7188 98.2031 40.875 97.1875 40.8125 96.0938C40.8125 95.8438 40.8594 95.5938 40.9531 95.3438C42.8906 95.9062 44.7344 95.4688 46.4844 94.0312C47.6719 93.0625 48.2344 91.9688 48.1719 90.75C48.1094 89.5312 47.8281 88.4688 47.3281 87.5625C46.8281 86.6562 46.1094 85.8438 45.1719 85.125C43.0469 83.4375 40.3906 82.5938 37.2031 82.5938C31.7656 82.5938 28.2344 85.0312 26.6094 89.9062C26.0781 91.5312 25.8125 93.4375 25.8125 95.625V105.094C25.8125 108.625 27.5312 111.141 30.9688 112.641C27.5312 114.297 25.8125 117 25.8125 120.75V132.328C25.8125 138.266 28.1719 142.188 32.8906 144.094C34.4219 144.688 36.1094 144.984 37.9531 144.984C39.7969 144.984 41.5312 144.734 43.1562 144.234C44.8125 143.734 46.2656 142.953 47.5156 141.891ZM15.875 137.578C16.3438 137.391 16.5781 137.062 16.5781 136.594C16.5781 135.906 16.25 134.828 15.5938 133.359C13.9375 129.578 13.1094 122.672 13.1094 112.641C13.1094 105.328 13.9844 99.1094 15.7344 93.9844C15.9531 93.2031 16.0625 92.6094 16.0625 92.2031C16.0625 91.7969 15.8594 91.5312 15.4531 91.4062C13.9844 93.25 12.9375 95.0781 12.3125 96.8906C11.1562 100.203 10.2344 104.688 9.54688 110.344C9.45312 111.156 8.53125 111.922 6.78125 112.641C8.53125 113.422 9.45312 114.219 9.54688 115.031C10.6719 124.719 12.1094 131.188 13.8594 134.438C14.4531 135.594 15.125 136.641 15.875 137.578ZM97.8594 145.547C95.0156 149.297 90.75 151.172 85.0625 151.172C78.125 151.172 72.9219 149.094 69.4531 144.938C67.9531 143.156 66.9219 141.172 66.3594 138.984C66.0469 137.672 65.5 136.672 64.7188 135.984C63.9375 135.266 62.9688 134.625 61.8125 134.062C64.0625 133.031 65.6719 131.094 66.6406 128.25C67.6719 125.25 69.3906 123.078 71.7969 121.734C74.3906 120.328 77.25 119.594 80.375 119.531C83.5 119.438 85.8125 119.328 87.3125 119.203C88.8125 119.078 90.1406 118.875 91.2969 118.594C93.4531 118.094 95.1406 117.172 96.3594 115.828V108.797C96.3594 105.703 95.7188 103.438 94.4375 102C93.1875 100.562 91.2656 99.8438 88.6719 99.8438C86.1094 99.8438 84.2031 100.328 82.9531 101.297C81.7344 102.234 81.125 103.5 81.125 105.094C81.125 107.531 82.375 108.719 84.875 108.656C84.375 111.094 83.0625 112.312 80.9375 112.312C80.3125 112.312 79.7031 112.203 79.1094 111.984V112.125C79.1094 112.938 79.4844 113.453 80.2344 113.672C79.4531 114.859 78.1406 115.438 76.2969 115.406C74.4531 115.375 73.0156 114.391 71.9844 112.453C71.5156 112.578 70.9688 112.641 70.3438 112.641C69.75 112.641 69.0781 112.438 68.3281 112.031C67.6094 111.625 67.0312 111.062 66.5938 110.344C68.1562 109.406 69.1094 107.953 69.4531 105.984C69.8281 103.578 71.75 101.141 75.2188 98.6719C79.4062 95.7031 84.75 94.2188 91.25 94.2188C102.031 94.2188 108.609 97.5312 110.984 104.156C111.766 106.375 112.156 109 112.156 112.031V115.828C112.156 117.359 112.531 118.609 113.281 119.578C114.062 120.547 115.375 121.344 117.219 121.969C115.25 122.875 113.984 123.688 113.422 124.406C112.578 125.5 112.156 126.75 112.156 128.156V142.219C113.062 144.562 114.359 145.734 116.047 145.734C117.109 145.734 117.984 145.469 118.672 144.938C119.109 145.531 119.328 146.281 119.328 147.188C119.328 148.062 118.875 148.906 117.969 149.719C117.094 150.531 115.766 150.938 113.984 150.938C112.203 150.938 110.547 150.438 109.016 149.438C107.672 150.438 106.469 150.938 105.406 150.938C104.375 150.938 103.469 150.828 102.688 150.609C101.938 150.422 101.234 150.109 100.578 149.672C99.1094 148.703 98.2031 147.328 97.8594 145.547ZM100.812 137.578C102.625 136.859 103.578 133.406 103.672 127.219C103.672 125.906 103.672 124.406 103.672 122.719C103.672 121.031 103.656 119.594 103.625 118.406C103.625 117.188 103.609 116.031 103.578 114.938C103.453 111 103.094 108.656 102.5 107.906C101.906 107.125 101.344 106.609 100.812 106.359V137.578ZM83.5156 134.25C83.5156 135.562 83.6562 136.844 83.9375 138.094C84.2188 139.344 84.6406 140.438 85.2031 141.375C86.4531 143.344 88.2188 144.328 90.5 144.328C92.2188 144.328 93.6406 143.625 94.7656 142.219C95.8281 140.844 96.3594 139.078 96.3594 136.922V121.641C94.3594 122.797 91.7969 123.594 88.6719 124.031C85.2344 124.562 83.5156 127.969 83.5156 134.25ZM76.4844 144.797C76.7969 144.578 76.9531 144.297 76.9531 143.953C76.9531 143.484 76.7344 142.828 76.2969 141.984C74.7344 139.109 73.9531 136.75 73.9531 134.906C73.9531 133.062 74.0156 131.734 74.1406 130.922C74.2969 130.109 74.4844 129.422 74.7031 128.859C74.9531 128.266 75.2188 127.75 75.5 127.312C75.8125 126.875 76.0781 126.484 76.2969 126.141C76.7031 125.422 76.9062 124.938 76.9062 124.688C76.9062 124.406 76.7656 124.172 76.4844 123.984C75.2031 124.578 74.2656 125.281 73.6719 126.094C72.6094 127.531 71.8281 129.391 71.3281 131.672C71.2031 132.328 70.1094 133.125 68.0469 134.062C70.0469 134.969 71.1406 135.766 71.3281 136.453C72.3906 140.172 74.1094 142.953 76.4844 144.797ZM134.047 149.438C132.609 150.438 130.969 150.938 129.125 150.938C127.281 150.938 125.938 150.516 125.094 149.672C124.281 148.797 123.875 147.969 123.875 147.188C123.875 146.156 124.047 145.406 124.391 144.938C125.078 145.469 125.953 145.734 127.016 145.734C129.016 145.734 130.312 144.766 130.906 142.828V128.25C130.906 126.875 130.609 125.875 130.016 125.25C129.109 124.219 127.5 123.141 125.188 122.016C127.375 121.016 128.766 120.219 129.359 119.625C130.391 118.594 130.906 117.328 130.906 115.828V108.984C130.906 106.328 130 104.891 128.188 104.672C127.656 104.609 126.984 104.578 126.172 104.578C125.359 104.578 124.609 104.844 123.922 105.375C123.484 104.781 123.266 104.172 123.266 103.547C123.266 102.891 123.422 102.172 123.734 101.391C124.078 100.578 124.578 99.8125 125.234 99.0938C126.891 97.4062 128.797 96.5625 130.953 96.5625C133.141 96.5625 134.953 96.9062 136.391 97.5938C138.109 95.6562 139.859 94.6875 141.641 94.6875C143.422 94.6875 144.656 95.1094 145.344 95.9531C146.031 96.7656 146.375 98.0312 146.375 99.75V104.156C148 101.25 150.219 98.9531 153.031 97.2656C155.844 95.5469 158.828 94.6875 161.984 94.6875C165.141 94.6875 167.672 95.1094 169.578 95.9531C171.516 96.7656 173.109 97.9375 174.359 99.4688C176.797 102.5 178.016 106.906 178.016 112.688V115.781C178.016 117.281 178.344 118.359 179 119.016C179.969 120.016 181.547 121.016 183.734 122.016C181.391 123.172 179.922 124.047 179.328 124.641C178.453 125.609 178.016 126.781 178.016 128.156V142.828C178.609 144.766 179.906 145.734 181.906 145.734C182.969 145.734 183.844 145.469 184.531 144.938C184.875 145.406 185.047 146.094 185.047 147C185.047 147.906 184.625 148.797 183.781 149.672C182.969 150.516 181.703 150.938 179.984 150.938C178.266 150.938 176.703 150.453 175.297 149.484C174.047 150.453 172.578 150.938 170.891 150.938C169.234 150.938 167.75 150.469 166.438 149.531C165.062 150.469 163.594 150.938 162.031 150.938C160.469 150.938 159.234 150.547 158.328 149.766C157.422 148.984 156.969 147.859 156.969 146.391C156.969 145.703 157.203 145.156 157.672 144.75C158.391 145.312 159.109 145.594 159.828 145.594C161.203 145.594 162.188 144.828 162.781 143.297V115.359C162.781 109.297 161.297 105.781 158.328 104.812C157.359 104.5 156.312 104.344 155.188 104.344C154.062 104.344 153.016 104.578 152.047 105.047C151.078 105.484 150.203 106.109 149.422 106.922C147.703 108.734 146.688 110.891 146.375 113.391V143.297C146.969 144.828 147.953 145.594 149.328 145.594C150.047 145.594 150.766 145.312 151.484 144.75C151.953 145.156 152.188 145.906 152.188 147C152.188 148.062 151.734 148.984 150.828 149.766C149.922 150.547 148.719 150.938 147.219 150.938C145.75 150.938 144.406 150.469 143.188 149.531C142 150.469 140.547 150.938 138.828 150.938C137.109 150.938 135.516 150.438 134.047 149.438ZM167.281 137.578C168.844 136.984 169.703 134.938 169.859 131.438C170.047 127.938 170.141 124.641 170.141 121.547C170.141 118.453 170.016 115.906 169.766 113.906C169.516 111.875 169.156 110.297 168.688 109.172C168.219 108.016 167.656 107.188 167 106.688C166.375 106.156 165.688 105.703 164.938 105.328C166.125 108.141 166.812 110.703 167 113.016C167.188 115.328 167.281 117.562 167.281 119.719V137.578ZM138.078 127.219C138.109 126.188 138.125 125.328 138.125 124.641C138.156 123.922 138.172 123.344 138.172 122.906C138.172 122.469 138.172 122.031 138.172 121.594C138.172 121.125 138.156 120.516 138.125 119.766C138.125 119.016 138.109 118.188 138.078 117.281C138.078 116.375 138.047 115.484 137.984 114.609C137.891 112.453 137.75 110.969 137.562 110.156C137.188 108.344 136.469 107.094 135.406 106.406V109.453C135.406 114.703 135.281 117.797 135.031 118.734C134.812 119.641 134.438 120.328 133.906 120.797C133.406 121.266 132.656 121.672 131.656 122.016C133.531 122.672 134.594 123.453 134.844 124.359C135.219 125.859 135.406 129.234 135.406 134.484V137.531C136.844 136.594 137.672 134.688 137.891 131.812C138.016 129.781 138.078 128.25 138.078 127.219ZM244.344 101.672C243.594 101.234 242.469 101.016 240.969 101.016C239.5 101.016 238.266 101.25 237.266 101.719C236.297 102.156 235.531 103.125 234.969 104.625L232.578 110.953C231.578 113.578 231.078 115.516 231.078 116.766C231.078 118.016 231.203 118.906 231.453 119.438C231.703 119.938 232 120.375 232.344 120.75C233 121.438 233.672 121.859 234.359 122.016C230.422 122.547 227.859 124.375 226.672 127.5L219.078 147.797C218.391 149.547 217.297 150.734 215.797 151.359C215.266 151.578 214.688 151.688 214.062 151.688C213.469 151.688 212.797 151.578 212.047 151.359L201.781 127.781C200.406 124.906 197.625 122.984 193.438 122.016C195.906 120.578 197.109 119.141 197.047 117.703C197.047 116.578 196.547 114.719 195.547 112.125L192.922 105.375C192.172 103.531 191.531 102.391 191 101.953C190.094 101.203 189.016 100.828 187.766 100.828C186.516 100.828 185.547 101.094 184.859 101.625C184.516 101.281 184.344 100.609 184.344 99.6094C184.344 98.6094 184.766 97.7031 185.609 96.8906C186.453 96.0469 187.781 95.625 189.594 95.625C191.438 95.625 193.141 96.1875 194.703 97.3125C195.984 96.1875 197.547 95.625 199.391 95.625C201.266 95.625 202.891 96.1406 204.266 97.1719C205.734 96.1406 207.328 95.625 209.047 95.625C210.797 95.625 212.172 96.0469 213.172 96.8906C214.172 97.7031 214.672 98.7344 214.672 99.9844C214.672 100.734 214.438 101.344 213.969 101.812C213.219 101.25 212.453 100.969 211.672 100.969C209.984 100.969 209.141 101.766 209.141 103.359C209.141 104.047 209.266 104.688 209.516 105.281L219.078 130.312L227.844 104.953C228.125 102.172 226.938 100.781 224.281 100.781C223.031 100.781 221.891 101.078 220.859 101.672C220.516 101.109 220.344 100.359 220.344 99.4219C220.344 98.4531 220.766 97.5781 221.609 96.7969C222.453 96.0156 223.609 95.625 225.078 95.625C226.578 95.625 227.859 96.125 228.922 97.125C230.047 96.125 231.344 95.625 232.812 95.625C234.281 95.625 235.562 96.0938 236.656 97.0312C237.844 96.0938 239.109 95.625 240.453 95.625C241.828 95.625 242.891 96 243.641 96.75C244.422 97.5 244.812 98.3906 244.812 99.4219C244.812 100.453 244.656 101.203 244.344 101.672ZM200.469 106.359C199.969 106.703 199.719 107.266 199.719 108.047C199.719 108.828 199.734 109.422 199.766 109.828C199.828 110.203 199.922 110.656 200.047 111.188C200.297 112.219 200.719 113.438 201.312 114.844C202.438 117.656 202.906 119.297 202.719 119.766C202.562 120.234 202.391 120.594 202.203 120.844C201.828 121.469 201.375 121.875 200.844 122.062C203.031 122.5 204.391 123.188 204.922 124.125C205.547 125.375 206 126.312 206.281 126.938L208.859 132.703C209.516 134.141 210.141 135.25 210.734 136.031C211.359 136.812 212.203 137.328 213.266 137.578L200.469 106.359ZM280.109 145.547C277.266 149.297 273 151.172 267.312 151.172C260.375 151.172 255.172 149.094 251.703 144.938C250.203 143.156 249.172 141.172 248.609 138.984C248.297 137.672 247.75 136.672 246.969 135.984C246.188 135.266 245.219 134.625 244.062 134.062C246.312 133.031 247.922 131.094 248.891 128.25C249.922 125.25 251.641 123.078 254.047 121.734C256.641 120.328 259.5 119.594 262.625 119.531C265.75 119.438 268.062 119.328 269.562 119.203C271.062 119.078 272.391 118.875 273.547 118.594C275.703 118.094 277.391 117.172 278.609 115.828V108.797C278.609 105.703 277.969 103.438 276.688 102C275.438 100.562 273.516 99.8438 270.922 99.8438C268.359 99.8438 266.453 100.328 265.203 101.297C263.984 102.234 263.375 103.5 263.375 105.094C263.375 107.531 264.625 108.719 267.125 108.656C266.625 111.094 265.312 112.312 263.188 112.312C262.562 112.312 261.953 112.203 261.359 111.984V112.125C261.359 112.938 261.734 113.453 262.484 113.672C261.703 114.859 260.391 115.438 258.547 115.406C256.703 115.375 255.266 114.391 254.234 112.453C253.766 112.578 253.219 112.641 252.594 112.641C252 112.641 251.328 112.438 250.578 112.031C249.859 111.625 249.281 111.062 248.844 110.344C250.406 109.406 251.359 107.953 251.703 105.984C252.078 103.578 254 101.141 257.469 98.6719C261.656 95.7031 267 94.2188 273.5 94.2188C284.281 94.2188 290.859 97.5312 293.234 104.156C294.016 106.375 294.406 109 294.406 112.031V115.828C294.406 117.359 294.781 118.609 295.531 119.578C296.312 120.547 297.625 121.344 299.469 121.969C297.5 122.875 296.234 123.688 295.672 124.406C294.828 125.5 294.406 126.75 294.406 128.156V142.219C295.312 144.562 296.609 145.734 298.297 145.734C299.359 145.734 300.234 145.469 300.922 144.938C301.359 145.531 301.578 146.281 301.578 147.188C301.578 148.062 301.125 148.906 300.219 149.719C299.344 150.531 298.016 150.938 296.234 150.938C294.453 150.938 292.797 150.438 291.266 149.438C289.922 150.438 288.719 150.938 287.656 150.938C286.625 150.938 285.719 150.828 284.938 150.609C284.188 150.422 283.484 150.109 282.828 149.672C281.359 148.703 280.453 147.328 280.109 145.547ZM283.062 137.578C284.875 136.859 285.828 133.406 285.922 127.219C285.922 125.906 285.922 124.406 285.922 122.719C285.922 121.031 285.906 119.594 285.875 118.406C285.875 117.188 285.859 116.031 285.828 114.938C285.703 111 285.344 108.656 284.75 107.906C284.156 107.125 283.594 106.609 283.062 106.359V137.578ZM265.766 134.25C265.766 135.562 265.906 136.844 266.188 138.094C266.469 139.344 266.891 140.438 267.453 141.375C268.703 143.344 270.469 144.328 272.75 144.328C274.469 144.328 275.891 143.625 277.016 142.219C278.078 140.844 278.609 139.078 278.609 136.922V121.641C276.609 122.797 274.047 123.594 270.922 124.031C267.484 124.562 265.766 127.969 265.766 134.25ZM258.734 144.797C259.047 144.578 259.203 144.297 259.203 143.953C259.203 143.484 258.984 142.828 258.547 141.984C256.984 139.109 256.203 136.75 256.203 134.906C256.203 133.062 256.266 131.734 256.391 130.922C256.547 130.109 256.734 129.422 256.953 128.859C257.203 128.266 257.469 127.75 257.75 127.312C258.062 126.875 258.328 126.484 258.547 126.141C258.953 125.422 259.156 124.938 259.156 124.688C259.156 124.406 259.016 124.172 258.734 123.984C257.453 124.578 256.516 125.281 255.922 126.094C254.859 127.531 254.078 129.391 253.578 131.672C253.453 132.328 252.359 133.125 250.297 134.062C252.297 134.969 253.391 135.766 253.578 136.453C254.641 140.172 256.359 142.953 258.734 144.797ZM316.953 148.875C314.828 150.906 312.781 151.922 310.812 151.922C309.719 151.922 308.969 151.516 308.562 150.703C309.281 149.984 309.641 149.266 309.641 148.547C309.641 147.828 309.531 147.281 309.312 146.906L308.703 145.828L309.453 147.234C308.703 146.891 308.125 146.312 307.719 145.5C307.312 144.688 307.109 143.703 307.109 142.547C307.109 141.359 307.766 140.016 309.078 138.516C308.453 137.641 308.141 136.672 308.141 135.609C308.141 134.547 308.312 133.672 308.656 132.984C309.031 132.266 309.5 131.625 310.062 131.062C311.312 129.875 312.641 129.281 314.047 129.281C314.984 129.281 315.656 129.609 316.062 130.266C315.219 131.172 314.797 132.609 314.797 134.578C314.797 136.516 315.125 138.172 315.781 139.547C316.469 140.922 317.391 142.094 318.547 143.062C320.984 145.125 323.984 146.156 327.547 146.156C331.516 146.156 334.266 144.703 335.797 141.797C336.234 140.922 336.453 140.047 336.453 139.172C336.453 138.266 336.25 137.469 335.844 136.781C335.438 136.062 334.906 135.375 334.25 134.719C333.156 133.656 331.484 132.438 329.234 131.062C327.078 129.531 324.531 128.766 321.594 128.766C319.688 128.766 318.406 128.922 317.75 129.234C318.156 128.297 318.359 127.359 318.359 126.422C318.359 125.484 317.734 124.469 316.484 123.375C315.234 122.25 314.109 121.125 313.109 120C312.141 118.875 311.359 117.75 310.766 116.625C309.578 114.5 308.984 112.25 308.984 109.875C308.984 107.5 309.469 105.406 310.438 103.594C311.438 101.75 312.828 100.172 314.609 98.8594C318.328 96.0781 323.094 94.6875 328.906 94.6875C331.719 94.6875 333.641 94.8125 334.672 95.0625C335.734 95.3125 336.578 95.5469 337.203 95.7656C338.047 96.0781 339.078 96.2344 340.297 96.2344C341.516 96.2344 342.359 95.9688 342.828 95.4375C343.328 94.9062 343.578 94.4219 343.578 93.9844C343.578 93.5156 343.531 93.1562 343.438 92.9062C343.625 92.8438 343.906 92.8125 344.281 92.8125C344.656 92.8125 345.078 92.9219 345.547 93.1406C346.047 93.3594 346.484 93.6562 346.859 94.0312C347.609 94.875 347.984 95.7812 347.984 96.75C347.984 97.6875 347.797 98.4062 347.422 98.9062C348.297 99.7188 348.734 100.875 348.734 102.375C348.734 103.875 348.109 105.141 346.859 106.172C347.141 106.734 347.281 107.422 347.281 108.234C347.281 109.047 346.844 109.828 345.969 110.578C345.094 111.328 344.266 111.703 343.484 111.703C342.141 111.703 341.234 111.531 340.766 111.188C341.172 110.188 341.375 109.109 341.375 107.953C341.375 106.766 341.062 105.641 340.438 104.578C339.812 103.516 339.016 102.656 338.047 102C336.234 100.75 334.078 100.125 331.578 100.125C328.422 100.125 326.297 101.125 325.203 103.125C324.859 103.75 324.688 104.438 324.688 105.188C324.688 105.906 324.781 106.578 324.969 107.203C325.188 107.797 325.531 108.406 326 109.031C326.906 110.25 328.188 111.406 329.844 112.5C332 113.906 333.5 114.609 334.344 114.609C336.156 114.609 337.734 114.172 339.078 113.297C338.703 114.797 338.516 115.844 338.516 116.438C338.516 117.344 339.234 118.391 340.672 119.578C344.703 122.359 347.453 124.906 348.922 127.219C350.328 129.469 351.031 131.969 351.031 134.719C351.031 137.469 350.422 139.828 349.203 141.797C347.984 143.734 346.328 145.406 344.234 146.812C339.891 149.719 334.625 151.172 328.438 151.172C324.219 151.172 320.391 150.406 316.953 148.875ZM315.312 105.938C314.406 106.375 313.953 107.594 313.953 109.594C313.953 111.562 314.594 113.453 315.875 115.266C317.156 117.047 319.188 119.062 321.969 121.312C322.625 121.812 322.953 122.297 322.953 122.766C322.953 123.484 322.891 124.062 322.766 124.5C323.141 124.406 323.797 124.312 324.734 124.219C327.016 124 329.844 125.062 333.219 127.406C338.594 130.719 341.281 134.203 341.281 137.859C341.281 139.234 341.094 140.266 340.719 140.953C341.844 140.734 342.703 139.781 343.297 138.094C343.453 137.594 343.531 137.078 343.531 136.547C343.531 134.016 342.156 131.453 339.406 128.859C336.688 126.234 332.766 123.703 327.641 121.266C319.141 116.953 315.031 111.844 315.312 105.938Z" fill="black"/>
</svg>
