<svg id="flower" xmlns="http://www.w3.org/2000/svg" preserveAspectRatio="xMidYMid slice" aria-labelledby="svgTitle svgDesc" role="img" viewBox="0 0 2000 2000" style="stroke-width: 1.5;"><rect x="0" y="0" width="2000" height="2000" style="fill: rgb(51, 102, 68);"></rect><g><g><path d="
				M 1000 1000
				Q 875 812.5 1000 625
				Q 1125 812.5 1000 1000 Z" transform="rotate(0.7714285714285715 1000 1000)" style="fill: rgb(105, 176, 127); stroke: rgb(33, 39, 35);"></path><path d="
				M 1000 1000
				Q 875 812.5 1000 625
				Q 1125 812.5 1000 1000 Z" transform="rotate(51.42857142857143 1000 1000)" style="fill: rgb(94, 181, 132); stroke: rgb(33, 39, 35);"></path><path d="
				M 1000 1000
				Q 875 812.5 1000 625
				Q 1125 812.5 1000 1000 Z" transform="rotate(100.28571428571429 1000 1000)" style="fill: rgb(112, 178, 135); stroke: rgb(33, 39, 35);"></path><path d="
				M 1000 1000
				Q 875 812.5 1000 625
				Q 1125 812.5 1000 1000 Z" transform="rotate(156.34285714285713 1000 1000)" style="fill: rgb(108, 183, 127); stroke: rgb(33, 39, 35);"></path><path d="
				M 1000 1000
				Q 875 812.5 1000 625
				Q 1125 812.5 1000 1000 Z" transform="rotate(205.71428571428572 1000 1000)" style="fill: rgb(120, 181, 136); stroke: rgb(33, 39, 35);"></path><path d="
				M 1000 1000
				Q 875 812.5 1000 625
				Q 1125 812.5 1000 1000 Z" transform="rotate(259.7142857142857 1000 1000)" style="fill: rgb(97, 168, 116); stroke: rgb(33, 39, 35);"></path><path d="
				M 1000 1000
				Q 875 812.5 1000 625
				Q 1125 812.5 1000 1000 Z" transform="rotate(306.25714285714287 1000 1000)" style="fill: rgb(122, 184, 141); stroke: rgb(33, 39, 35);"></path></g><g><path d="
				M 1000 1000
				Q 875.6896702911259 861.0625657663977 1000 722.1251315327954
				Q 1124.3103297088742 861.0625657663977 1000 1000 Z" transform="rotate(23.65714285714286 1000 1000)" style="fill: rgb(121, 185, 152); stroke: rgb(34, 39, 37);"></path><path d="
				M 1000 1000
				Q 875.6896702911259 861.0625657663977 1000 722.1251315327954
				Q 1124.3103297088742 861.0625657663977 1000 1000 Z" transform="rotate(77.14285714285714 1000 1000)" style="fill: rgb(98, 172, 152); stroke: rgb(34, 39, 37);"></path><path d="
				M 1000 1000
				Q 875.6896702911259 861.0625657663977 1000 722.1251315327954
				Q 1124.3103297088742 861.0625657663977 1000 1000 Z" transform="rotate(129.60000000000002 1000 1000)" style="fill: rgb(114, 177, 149); stroke: rgb(34, 39, 37);"></path><path d="
				M 1000 1000
				Q 875.6896702911259 861.0625657663977 1000 722.1251315327954
				Q 1124.3103297088742 861.0625657663977 1000 1000 Z" transform="rotate(181.8 1000 1000)" style="fill: rgb(107, 179, 140); stroke: rgb(34, 39, 37);"></path><path d="
				M 1000 1000
				Q 875.6896702911259 861.0625657663977 1000 722.1251315327954
				Q 1124.3103297088742 861.0625657663977 1000 1000 Z" transform="rotate(230.91428571428574 1000 1000)" style="fill: rgb(96, 175, 133); stroke: rgb(34, 39, 37);"></path><path d="
				M 1000 1000
				Q 875.6896702911259 861.0625657663977 1000 722.1251315327954
				Q 1124.3103297088742 861.0625657663977 1000 1000 Z" transform="rotate(285.1714285714286 1000 1000)" style="fill: rgb(120, 181, 161); stroke: rgb(34, 39, 37);"></path><path d="
				M 1000 1000
				Q 875.6896702911259 861.0625657663977 1000 722.1251315327954
				Q 1124.3103297088742 861.0625657663977 1000 1000 Z" transform="rotate(333.25714285714287 1000 1000)" style="fill: rgb(119, 187, 164); stroke: rgb(34, 39, 37);"></path></g><g><path d="
				M 1000 1000
				Q 876.3755354213681 897.0474099657783 1000 794.0948199315568
				Q 1123.624464578632 897.0474099657783 1000 1000 Z" transform="rotate(51.42857142857143 1000 1000)" style="fill: rgb(110, 166, 165); stroke: rgb(34, 39, 39);"></path><path d="
				M 1000 1000
				Q 876.3755354213681 897.0474099657783 1000 794.0948199315568
				Q 1123.624464578632 897.0474099657783 1000 1000 Z" transform="rotate(101.82857142857144 1000 1000)" style="fill: rgb(117, 174, 163); stroke: rgb(34, 39, 39);"></path><path d="
				M 1000 1000
				Q 876.3755354213681 897.0474099657783 1000 794.0948199315568
				Q 1123.624464578632 897.0474099657783 1000 1000 Z" transform="rotate(155.57142857142856 1000 1000)" style="fill: rgb(115, 176, 162); stroke: rgb(34, 39, 39);"></path><path d="
				M 1000 1000
				Q 876.3755354213681 897.0474099657783 1000 794.0948199315568
				Q 1123.624464578632 897.0474099657783 1000 1000 Z" transform="rotate(206.74285714285716 1000 1000)" style="fill: rgb(128, 188, 183); stroke: rgb(34, 39, 39);"></path><path d="
				M 1000 1000
				Q 876.3755354213681 897.0474099657783 1000 794.0948199315568
				Q 1123.624464578632 897.0474099657783 1000 1000 Z" transform="rotate(257.40000000000003 1000 1000)" style="fill: rgb(131, 185, 184); stroke: rgb(34, 39, 39);"></path><path d="
				M 1000 1000
				Q 876.3755354213681 897.0474099657783 1000 794.0948199315568
				Q 1123.624464578632 897.0474099657783 1000 1000 Z" transform="rotate(310.8857142857143 1000 1000)" style="fill: rgb(117, 179, 169); stroke: rgb(34, 39, 39);"></path><path d="
				M 1000 1000
				Q 876.3755354213681 897.0474099657783 1000 794.0948199315568
				Q 1123.624464578632 897.0474099657783 1000 1000 Z" transform="rotate(362.0571428571429 1000 1000)" style="fill: rgb(112, 169, 152); stroke: rgb(34, 39, 39);"></path></g><g><path d="
				M 1000 1000
				Q 877.057616385178 923.712166895687 1000 847.4243337913741
				Q 1122.9423836148221 923.712166895687 1000 1000 Z" transform="rotate(79.2 1000 1000)" style="fill: rgb(125, 164, 170); stroke: rgb(35, 39, 40);"></path><path d="
				M 1000 1000
				Q 877.057616385178 923.712166895687 1000 847.4243337913741
				Q 1122.9423836148221 923.712166895687 1000 1000 Z" transform="rotate(129.34285714285713 1000 1000)" style="fill: rgb(123, 178, 173); stroke: rgb(35, 39, 40);"></path><path d="
				M 1000 1000
				Q 877.057616385178 923.712166895687 1000 847.4243337913741
				Q 1122.9423836148221 923.712166895687 1000 1000 Z" transform="rotate(178.45714285714286 1000 1000)" style="fill: rgb(133, 176, 183); stroke: rgb(35, 39, 40);"></path><path d="
				M 1000 1000
				Q 877.057616385178 923.712166895687 1000 847.4243337913741
				Q 1122.9423836148221 923.712166895687 1000 1000 Z" transform="rotate(231.94285714285712 1000 1000)" style="fill: rgb(118, 167, 173); stroke: rgb(35, 39, 40);"></path><path d="
				M 1000 1000
				Q 877.057616385178 923.712166895687 1000 847.4243337913741
				Q 1122.9423836148221 923.712166895687 1000 1000 Z" transform="rotate(280.5428571428572 1000 1000)" style="fill: rgb(125, 178, 181); stroke: rgb(35, 39, 40);"></path><path d="
				M 1000 1000
				Q 877.057616385178 923.712166895687 1000 847.4243337913741
				Q 1122.9423836148221 923.712166895687 1000 1000 Z" transform="rotate(336.3428571428572 1000 1000)" style="fill: rgb(126, 166, 169); stroke: rgb(35, 39, 40);"></path><path d="
				M 1000 1000
				Q 877.057616385178 923.712166895687 1000 847.4243337913741
				Q 1122.9423836148221 923.712166895687 1000 1000 Z" transform="rotate(386.7428571428571 1000 1000)" style="fill: rgb(130, 169, 176); stroke: rgb(35, 39, 40);"></path></g><g><path d="
				M 1000 1000
				Q 877.7359340611728 943.470742427976 1000 886.9414848559519
				Q 1122.2640659388271 943.470742427976 1000 1000 Z" transform="rotate(101.05714285714286 1000 1000)" style="fill: rgb(126, 155, 174); stroke: rgb(36, 39, 40);"></path><path d="
				M 1000 1000
				Q 877.7359340611728 943.470742427976 1000 886.9414848559519
				Q 1122.2640659388271 943.470742427976 1000 1000 Z" transform="rotate(154.28571428571428 1000 1000)" style="fill: rgb(125, 155, 170); stroke: rgb(36, 39, 40);"></path><path d="
				M 1000 1000
				Q 877.7359340611728 943.470742427976 1000 886.9414848559519
				Q 1122.2640659388271 943.470742427976 1000 1000 Z" transform="rotate(208.2857142857143 1000 1000)" style="fill: rgb(126, 156, 169); stroke: rgb(36, 39, 40);"></path><path d="
				M 1000 1000
				Q 877.7359340611728 943.470742427976 1000 886.9414848559519
				Q 1122.2640659388271 943.470742427976 1000 1000 Z" transform="rotate(257.4 1000 1000)" style="fill: rgb(135, 167, 176); stroke: rgb(36, 39, 40);"></path><path d="
				M 1000 1000
				Q 877.7359340611728 943.470742427976 1000 886.9414848559519
				Q 1122.2640659388271 943.470742427976 1000 1000 Z" transform="rotate(310.62857142857143 1000 1000)" style="fill: rgb(132, 170, 179); stroke: rgb(36, 39, 40);"></path><path d="
				M 1000 1000
				Q 877.7359340611728 943.470742427976 1000 886.9414848559519
				Q 1122.2640659388271 943.470742427976 1000 1000 Z" transform="rotate(358.9714285714286 1000 1000)" style="fill: rgb(140, 166, 186); stroke: rgb(36, 39, 40);"></path><path d="
				M 1000 1000
				Q 877.7359340611728 943.470742427976 1000 886.9414848559519
				Q 1122.2640659388271 943.470742427976 1000 1000 Z" transform="rotate(411.9428571428572 1000 1000)" style="fill: rgb(138, 166, 178); stroke: rgb(36, 39, 40);"></path></g><g><path d="
				M 1000 1000
				Q 878.410509212775 958.1118399670003 1000 916.2236799340005
				Q 1121.589490787225 958.1118399670003 1000 1000 Z" transform="rotate(128.57142857142858 1000 1000)" style="fill: rgb(146, 157, 185); stroke: rgb(37, 39, 41);"></path><path d="
				M 1000 1000
				Q 878.410509212775 958.1118399670003 1000 916.2236799340005
				Q 1121.589490787225 958.1118399670003 1000 1000 Z" transform="rotate(177.94285714285715 1000 1000)" style="fill: rgb(145, 161, 177); stroke: rgb(37, 39, 41);"></path><path d="
				M 1000 1000
				Q 878.410509212775 958.1118399670003 1000 916.2236799340005
				Q 1121.589490787225 958.1118399670003 1000 1000 Z" transform="rotate(229.11428571428573 1000 1000)" style="fill: rgb(151, 168, 181); stroke: rgb(37, 39, 41);"></path><path d="
				M 1000 1000
				Q 878.410509212775 958.1118399670003 1000 916.2236799340005
				Q 1121.589490787225 958.1118399670003 1000 1000 Z" transform="rotate(282.8571428571429 1000 1000)" style="fill: rgb(147, 161, 184); stroke: rgb(37, 39, 41);"></path><path d="
				M 1000 1000
				Q 878.410509212775 958.1118399670003 1000 916.2236799340005
				Q 1121.589490787225 958.1118399670003 1000 1000 Z" transform="rotate(335.31428571428575 1000 1000)" style="fill: rgb(146, 156, 176); stroke: rgb(37, 39, 41);"></path><path d="
				M 1000 1000
				Q 878.410509212775 958.1118399670003 1000 916.2236799340005
				Q 1121.589490787225 958.1118399670003 1000 1000 Z" transform="rotate(386.2285714285715 1000 1000)" style="fill: rgb(136, 151, 175); stroke: rgb(37, 39, 41);"></path><path d="
				M 1000 1000
				Q 878.410509212775 958.1118399670003 1000 916.2236799340005
				Q 1121.589490787225 958.1118399670003 1000 1000 Z" transform="rotate(438.68571428571425 1000 1000)" style="fill: rgb(136, 148, 175); stroke: rgb(37, 39, 41);"></path></g><g><path d="
				M 1000 1000
				Q 879.0813624888476 968.960888107992 1000 937.921776215984
				Q 1120.9186375111524 968.960888107992 1000 1000 Z" transform="rotate(154.0285714285714 1000 1000)" style="fill: rgb(153, 160, 178); stroke: rgb(38, 39, 41);"></path><path d="
				M 1000 1000
				Q 879.0813624888476 968.960888107992 1000 937.921776215984
				Q 1120.9186375111524 968.960888107992 1000 1000 Z" transform="rotate(205.45714285714286 1000 1000)" style="fill: rgb(145, 148, 172); stroke: rgb(38, 39, 41);"></path><path d="
				M 1000 1000
				Q 879.0813624888476 968.960888107992 1000 937.921776215984
				Q 1120.9186375111524 968.960888107992 1000 1000 Z" transform="rotate(255.08571428571426 1000 1000)" style="fill: rgb(150, 152, 176); stroke: rgb(38, 39, 41);"></path><path d="
				M 1000 1000
				Q 879.0813624888476 968.960888107992 1000 937.921776215984
				Q 1120.9186375111524 968.960888107992 1000 1000 Z" transform="rotate(307.8 1000 1000)" style="fill: rgb(146, 155, 176); stroke: rgb(38, 39, 41);"></path><path d="
				M 1000 1000
				Q 879.0813624888476 968.960888107992 1000 937.921776215984
				Q 1120.9186375111524 968.960888107992 1000 1000 Z" transform="rotate(360.25714285714287 1000 1000)" style="fill: rgb(145, 147, 166); stroke: rgb(38, 39, 41);"></path><path d="
				M 1000 1000
				Q 879.0813624888476 968.960888107992 1000 937.921776215984
				Q 1120.9186375111524 968.960888107992 1000 1000 Z" transform="rotate(410.6571428571429 1000 1000)" style="fill: rgb(150, 157, 182); stroke: rgb(38, 39, 41);"></path><path d="
				M 1000 1000
				Q 879.0813624888476 968.960888107992 1000 937.921776215984
				Q 1120.9186375111524 968.960888107992 1000 1000 Z" transform="rotate(463.6285714285714 1000 1000)" style="fill: rgb(148, 150, 173); stroke: rgb(38, 39, 41);"></path></g><g><path d="
				M 1000 1000
				Q 879.7485144243265 977.0000289751184 1000 954.000057950237
				Q 1120.2514855756735 977.0000289751184 1000 1000 Z" transform="rotate(178.45714285714286 1000 1000)" style="fill: rgb(148, 149, 168); stroke: rgb(39, 39, 41);"></path><path d="
				M 1000 1000
				Q 879.7485144243265 977.0000289751184 1000 954.000057950237
				Q 1120.2514855756735 977.0000289751184 1000 1000 Z" transform="rotate(230.4 1000 1000)" style="fill: rgb(162, 160, 182); stroke: rgb(39, 39, 41);"></path><path d="
				M 1000 1000
				Q 879.7485144243265 977.0000289751184 1000 954.000057950237
				Q 1120.2514855756735 977.0000289751184 1000 1000 Z" transform="rotate(283.8857142857143 1000 1000)" style="fill: rgb(161, 159, 173); stroke: rgb(39, 39, 41);"></path><path d="
				M 1000 1000
				Q 879.7485144243265 977.0000289751184 1000 954.000057950237
				Q 1120.2514855756735 977.0000289751184 1000 1000 Z" transform="rotate(335.3142857142857 1000 1000)" style="fill: rgb(152, 150, 166); stroke: rgb(39, 39, 41);"></path><path d="
				M 1000 1000
				Q 879.7485144243265 977.0000289751184 1000 954.000057950237
				Q 1120.2514855756735 977.0000289751184 1000 1000 Z" transform="rotate(384.6857142857143 1000 1000)" style="fill: rgb(140, 138, 163); stroke: rgb(39, 39, 41);"></path><path d="
				M 1000 1000
				Q 879.7485144243265 977.0000289751184 1000 954.000057950237
				Q 1120.2514855756735 977.0000289751184 1000 1000 Z" transform="rotate(435.8571428571429 1000 1000)" style="fill: rgb(150, 143, 174); stroke: rgb(39, 39, 41);"></path><path d="
				M 1000 1000
				Q 879.7485144243265 977.0000289751184 1000 954.000057950237
				Q 1120.2514855756735 977.0000289751184 1000 1000 Z" transform="rotate(486.77142857142854 1000 1000)" style="fill: rgb(142, 137, 164); stroke: rgb(39, 39, 41);"></path></g><g><path d="
				M 1000 1000
				Q 880.4119854408489 982.9570295378974 1000 965.9140590757949
				Q 1119.5880145591511 982.9570295378974 1000 1000 Z" transform="rotate(206.74285714285716 1000 1000)" style="fill: rgb(155, 151, 170); stroke: rgb(40, 40, 42);"></path><path d="
				M 1000 1000
				Q 880.4119854408489 982.9570295378974 1000 965.9140590757949
				Q 1119.5880145591511 982.9570295378974 1000 1000 Z" transform="rotate(257.14285714285717 1000 1000)" style="fill: rgb(149, 140, 166); stroke: rgb(40, 40, 42);"></path><path d="
				M 1000 1000
				Q 880.4119854408489 982.9570295378974 1000 965.9140590757949
				Q 1119.5880145591511 982.9570295378974 1000 1000 Z" transform="rotate(311.1428571428571 1000 1000)" style="fill: rgb(151, 148, 158); stroke: rgb(40, 40, 42);"></path><path d="
				M 1000 1000
				Q 880.4119854408489 982.9570295378974 1000 965.9140590757949
				Q 1119.5880145591511 982.9570295378974 1000 1000 Z" transform="rotate(358.45714285714286 1000 1000)" style="fill: rgb(164, 160, 172); stroke: rgb(40, 40, 42);"></path><path d="
				M 1000 1000
				Q 880.4119854408489 982.9570295378974 1000 965.9140590757949
				Q 1119.5880145591511 982.9570295378974 1000 1000 Z" transform="rotate(411.42857142857144 1000 1000)" style="fill: rgb(164, 159, 173); stroke: rgb(40, 40, 42);"></path><path d="
				M 1000 1000
				Q 880.4119854408489 982.9570295378974 1000 965.9140590757949
				Q 1119.5880145591511 982.9570295378974 1000 1000 Z" transform="rotate(465.1714285714286 1000 1000)" style="fill: rgb(152, 148, 168); stroke: rgb(40, 40, 42);"></path><path d="
				M 1000 1000
				Q 880.4119854408489 982.9570295378974 1000 965.9140590757949
				Q 1119.5880145591511 982.9570295378974 1000 1000 Z" transform="rotate(512.4857142857143 1000 1000)" style="fill: rgb(166, 161, 170); stroke: rgb(40, 40, 42);"></path></g></g></svg>
