<svg>
<g class="flower"><g class="layer" style="animation-name: layerAnim5; animation-duration: 3.6s; animation-delay: 1.8s;"><path d="M4.327646341475915 11.62030452024 Q58.57567678060371 96.7559702473457 43.625467151974945 117.1401665346774 M4.327646341475915 11.62030452024 Q18.983573010014787 111.50090423213814 43.625467151974945 117.1401665346774" style="fill: rgba(127, 38, 106, 0.8);"></path><path d="M1.172629248547968 12.34442953908563 Q31.537471167360117 108.61959124015763 11.82085936036258 124.43981390207287 M1.172629248547968 12.34442953908563 Q-10.521834115812212 112.61491329149231 11.82085936036258 124.43981390207287" style="fill: rgba(127, 38, 106, 0.8);"></path><path d="M-2.0623005898070694 12.22730208497694 Q2.3500390121962424 113.08096659231454 -20.789320461764813 123.25909359855785 M-2.0623005898070694 12.22730208497694 Q-39.31019563479965 106.05440211497483 -20.789320461764813 123.25909359855785" style="fill: rgba(127, 38, 106, 0.8);"></path><path d="M-5.156688051079621 11.276904200349167 Q-26.99754441802569 109.83606094633825 -51.98274245039941 113.67846976158434 M-5.156688051079621 11.276904200349167 Q-65.41963228444531 92.26645869750806 -51.98274245039941 113.67846976158434" style="fill: rgba(127, 38, 106, 0.8);"></path><path d="M-7.899655743501022 9.55800393043293 Q-54.50528981171082 99.10600925954195 -79.63362644658288 96.3508460729126 M-7.899655743501022 9.55800393043293 Q-87.07082910496007 72.19070859733849 -79.63362644658288 96.3508460729126" style="fill: rgba(127, 38, 106, 0.8);"></path><path d="M-10.104274951801198 7.187741488006014 Q-78.29858977897811 81.62204682213199 -101.85761040122175 72.45707145167353 M-10.104274951801198 7.187741488006014 Q-102.78829281332028 47.195281007047015 -101.85761040122175 72.45707145167353" style="fill: rgba(127, 38, 106, 0.8);"></path><path d="M-11.62030452024 4.327646341475916 Q-96.7559702473457 58.57567678060369 -117.1401665346774 43.62546715197495 M-11.62030452024 4.327646341475916 Q-111.50090423213814 18.983573010014744 -117.1401665346774 43.62546715197495" style="fill: rgba(127, 38, 106, 0.8);"></path><path d="M-12.34442953908563 1.1726292485479688 Q-108.61959124015763 31.537471167360124 -124.43981390207287 11.820859360362588 M-12.34442953908563 1.1726292485479688 Q-112.61491329149231 -10.521834115812227 -124.43981390207287 11.820859360362588" style="fill: rgba(127, 38, 106, 0.8);"></path><path d="M-12.227302084976941 -2.062300589807063 Q-113.08096659231454 2.3500390121962997 -123.25909359855787 -20.789320461764753 M-12.227302084976941 -2.062300589807063 Q-106.05440211497485 -39.31019563479961 -123.25909359855787 -20.789320461764753" style="fill: rgba(127, 38, 106, 0.8);"></path><path d="M-11.276904200349167 -5.1566880510796205 Q-109.83606094633825 -26.997544418025704 -113.67846976158434 -51.9827424503994 M-11.276904200349167 -5.1566880510796205 Q-92.26645869750804 -65.41963228444536 -113.67846976158434 -51.9827424503994" style="fill: rgba(127, 38, 106, 0.8);"></path><path d="M-9.55800393043293 -7.899655743501021 Q-99.10600925954195 -54.50528981171081 -96.3508460729126 -79.63362644658287 M-9.55800393043293 -7.899655743501021 Q-72.19070859733844 -87.07082910496008 -96.3508460729126 -79.63362644658287" style="fill: rgba(127, 38, 106, 0.8);"></path><path d="M-7.187741488006016 -10.104274951801196 Q-81.62204682213199 -78.2985897789781 -72.45707145167354 -101.85761040122173 M-7.187741488006016 -10.104274951801196 Q-47.19528100704707 -102.78829281332025 -72.45707145167354 -101.85761040122173" style="fill: rgba(127, 38, 106, 0.8);"></path><path d="M-4.3276463414759165 -11.620304520239998 Q-58.57567678060369 -96.7559702473457 -43.62546715197496 -117.14016653467739 M-4.3276463414759165 -11.620304520239998 Q-18.983573010014798 -111.50090423213813 -43.62546715197496 -117.14016653467739" style="fill: rgba(127, 38, 106, 0.8);"></path><path d="M-1.1726292485479695 -12.34442953908563 Q-31.53747116736013 -108.61959124015763 -11.820859360362595 -124.43981390207287 M-1.1726292485479695 -12.34442953908563 Q10.52183411581217 -112.61491329149231 -11.820859360362595 -124.43981390207287" style="fill: rgba(127, 38, 106, 0.8);"></path><path d="M2.0623005898070628 -12.227302084976941 Q-2.3500390121963064 -113.08096659231454 20.789320461764746 -123.25909359855787 M2.0623005898070628 -12.227302084976941 Q39.31019563479956 -106.05440211497488 20.789320461764746 -123.25909359855787" style="fill: rgba(127, 38, 106, 0.8);"></path><path d="M5.156688051079609 -11.276904200349172 Q26.9975444180256 -109.83606094633828 51.982742450399286 -113.67846976158438 M5.156688051079609 -11.276904200349172 Q65.41963228444521 -92.26645869750814 51.982742450399286 -113.67846976158438" style="fill: rgba(127, 38, 106, 0.8);"></path><path d="M7.899655743501021 -9.558003930432932 Q54.5052898117108 -99.10600925954196 79.63362644658287 -96.35084607291262 M7.899655743501021 -9.558003930432932 Q87.07082910496003 -72.19070859733853 79.63362644658287 -96.35084607291262" style="fill: rgba(127, 38, 106, 0.8);"></path><path d="M10.104274951801196 -7.187741488006016 Q78.2985897789781 -81.62204682213199 101.85761040122173 -72.45707145167354 M10.104274951801196 -7.187741488006016 Q102.78829281332025 -47.19528100704708 101.85761040122173 -72.45707145167354" style="fill: rgba(127, 38, 106, 0.8);"></path><path d="M11.620304520239998 -4.327646341475917 Q96.7559702473457 -58.57567678060371 117.14016653467739 -43.625467151974966 M11.620304520239998 -4.327646341475917 Q111.50090423213813 -18.983573010014805 117.14016653467739 -43.625467151974966" style="fill: rgba(127, 38, 106, 0.8);"></path><path d="M12.34442953908563 -1.1726292485479701 Q108.61959124015763 -31.537471167360135 124.43981390207287 -11.820859360362602 M12.34442953908563 -1.1726292485479701 Q112.61491329149231 10.521834115812165 124.43981390207287 -11.820859360362602" style="fill: rgba(127, 38, 106, 0.8);"></path><path d="M12.227302084976941 2.062300589807062 Q113.08096659231454 -2.3500390121963135 123.25909359855787 20.789320461764735 M12.227302084976941 2.062300589807062 Q106.05440211497488 39.310195634799555 123.25909359855787 20.789320461764735" style="fill: rgba(127, 38, 106, 0.8);"></path><path d="M11.276904200349167 5.156688051079619 Q109.83606094633825 26.997544418025694 113.67846976158434 51.982742450399385 M11.276904200349167 5.156688051079619 Q92.26645869750807 65.41963228444529 113.67846976158434 51.982742450399385" style="fill: rgba(127, 38, 106, 0.8);"></path><path d="M9.558003930432932 7.899655743501021 Q99.10600925954196 54.5052898117108 96.35084607291262 79.63362644658287 M9.558003930432932 7.899655743501021 Q72.19070859733853 87.07082910496003 96.35084607291262 79.63362644658287" style="fill: rgba(127, 38, 106, 0.8);"></path><path d="M7.187741488006017 10.104274951801195 Q81.62204682213199 78.29858977897808 72.45707145167356 101.85761040122172 M7.187741488006017 10.104274951801195 Q47.195281007047086 102.78829281332024 72.45707145167356 101.85761040122172" style="fill: rgba(127, 38, 106, 0.8);"></path></g><g class="layer" style="animation-name: layerAnim5; animation-duration: 3.6s; animation-delay: 1.65s;"><path d="M2.5501695429225806 11.111104144159123 Q33.74279342535524 79.35263015893798 25.725394511938312 112.0856996998508 M2.5501695429225806 11.111104144159123 Q4.23680473068736 86.12470903847175 25.725394511938312 112.0856996998508" style="fill: rgba(148, 33, 99, 0.8);"></path><path d="M-0.412490741701218 11.392534897379546 Q12.055063656577772 85.38203242792507 -4.161090815407023 114.92469414023226 M-0.412490741701218 11.392534897379546 Q-18.198275842755084 84.28664649657375 -4.161090815407023 114.92469414023226" style="fill: rgba(148, 33, 99, 0.8);"></path><path d="M-3.3470404639512545 10.897583224397644 Q-10.454198778460803 85.59279028742911 -33.76400468021002 109.93176059699378 M-3.3470404639512545 10.897583224397644 Q-39.39317399158652 76.70458828620347 -33.76400468021002 109.93176059699378" style="fill: rgba(148, 33, 99, 0.8);"></path><path d="M-6.053494909828911 9.659979263780821 Q-32.251024843127645 79.97054093761874 -61.065957423712696 97.44715923989425 M-6.053494909828911 9.659979263780821 Q-57.903492433189456 63.89523914445396 -61.065957423712696 97.44715923989425" style="fill: rgba(148, 33, 99, 0.8);"></path><path d="M-8.347413681475063 7.76406368020787 Q-51.84999686207385 68.89843138047718 -84.20636608505545 78.32169501964079 M-8.347413681475063 7.76406368020787 Q-72.4677835555161 46.731535046885206 -84.20636608505545 78.32169501964079" style="fill: rgba(148, 33, 99, 0.8);"></path><path d="M-10.072470005482039 5.339039987550632 Q-67.91547728104094 53.13100758479744 -101.60825005530127 53.85873671651953 M-10.072470005482039 5.339039987550632 Q-82.09351498720908 26.383154063384296 -101.60825005530127 53.85873671651953" style="fill: rgba(148, 33, 99, 0.8);"></path><path d="M-11.111104144159123 2.550169542922581 Q-79.35263015893798 33.742793425355245 -112.0856996998508 25.725394511938315 M-11.111104144159123 2.550169542922581 Q-86.12470903847175 4.236804730687327 -112.0856996998508 25.725394511938315" style="fill: rgba(148, 33, 99, 0.8);"></path><path d="M-11.392534897379546 -0.4124907417012123 Q-85.38203242792507 12.055063656577815 -114.92469414023226 -4.161090815406967 M-11.392534897379546 -0.4124907417012123 Q-84.28664649657375 -18.19827584275508 -114.92469414023226 -4.161090815406967" style="fill: rgba(148, 33, 99, 0.8);"></path><path d="M-10.897583224397644 -3.347040463951259 Q-85.59279028742911 -10.454198778460798 -109.93176059699377 -33.76400468021007 M-10.897583224397644 -3.347040463951259 Q-76.70458828620346 -39.39317399158655 -109.93176059699377 -33.76400468021007" style="fill: rgba(148, 33, 99, 0.8);"></path><path d="M-9.659979263780821 -6.053494909828911 Q-79.97054093761874 -32.251024843127645 -97.44715923989425 -61.065957423712696 M-9.659979263780821 -6.053494909828911 Q-63.89523914445396 -57.903492433189456 -97.44715923989425 -61.065957423712696" style="fill: rgba(148, 33, 99, 0.8);"></path><path d="M-7.76406368020787 -8.34741368147506 Q-68.89843138047719 -51.84999686207384 -78.32169501964079 -84.20636608505544 M-7.76406368020787 -8.34741368147506 Q-46.73153504688527 -72.46778355551606 -78.32169501964079 -84.20636608505544" style="fill: rgba(148, 33, 99, 0.8);"></path><path d="M-5.339039987550642 -10.072470005482034 Q-53.131007584797445 -67.91547728104094 -53.85873671651963 -101.60825005530123 M-5.339039987550642 -10.072470005482034 Q-26.38315406338441 -82.09351498720903 -53.85873671651963 -101.60825005530123" style="fill: rgba(148, 33, 99, 0.8);"></path><path d="M-2.5501695429225815 -11.111104144159123 Q-33.74279342535522 -79.352630158938 -25.725394511938322 -112.0856996998508 M-2.5501695429225815 -11.111104144159123 Q-4.2368047306874095 -86.12470903847174 -25.725394511938322 -112.0856996998508" style="fill: rgba(148, 33, 99, 0.8);"></path><path d="M0.4124907417012116 -11.392534897379546 Q-12.055063656577781 -85.38203242792507 4.1610908154069595 -114.92469414023226 M0.4124907417012116 -11.392534897379546 Q18.198275842755002 -84.28664649657377 4.1610908154069595 -114.92469414023226" style="fill: rgba(148, 33, 99, 0.8);"></path><path d="M3.3470404639512585 -10.897583224397644 Q10.454198778460869 -85.59279028742911 33.764004680210064 -109.93176059699377 M3.3470404639512585 -10.897583224397644 Q39.39317399158651 -76.70458828620347 33.764004680210064 -109.93176059699377" style="fill: rgba(148, 33, 99, 0.8);"></path><path d="M6.053494909828911 -9.659979263780821 Q32.251024843127674 -79.97054093761872 61.065957423712696 -97.44715923989425 M6.053494909828911 -9.659979263780821 Q57.9034924331894 -63.89523914445402 61.065957423712696 -97.44715923989425" style="fill: rgba(148, 33, 99, 0.8);"></path><path d="M8.34741368147506 -7.76406368020787 Q51.849996862073866 -68.89843138047716 84.20636608505544 -78.32169501964079 M8.34741368147506 -7.76406368020787 Q72.46778355551606 -46.73153504688528 84.20636608505544 -78.32169501964079" style="fill: rgba(148, 33, 99, 0.8);"></path><path d="M10.072470005482034 -5.339039987550642 Q67.91547728104094 -53.131007584797445 101.60825005530123 -53.85873671651964 M10.072470005482034 -5.339039987550642 Q82.09351498720903 -26.383154063384417 101.60825005530123 -53.85873671651964" style="fill: rgba(148, 33, 99, 0.8);"></path><path d="M11.111104144159123 -2.5501695429225824 Q79.352630158938 -33.742793425355224 112.0856996998508 -25.72539451193833 M11.111104144159123 -2.5501695429225824 Q86.12470903847174 -4.236804730687414 112.0856996998508 -25.72539451193833" style="fill: rgba(148, 33, 99, 0.8);"></path><path d="M11.392534897379546 0.4124907417012109 Q85.38203242792507 -12.055063656577788 114.92469414023226 4.1610908154069515 M11.392534897379546 0.4124907417012109 Q84.28664649657377 18.198275842754995 114.92469414023226 4.1610908154069515" style="fill: rgba(148, 33, 99, 0.8);"></path><path d="M10.897583224397648 3.347040463951248 Q85.59279028742911 10.454198778460787 109.93176059699381 33.76400468020995 M10.897583224397648 3.347040463951248 Q76.70458828620352 39.39317399158644 109.93176059699381 33.76400468020995" style="fill: rgba(148, 33, 99, 0.8);"></path><path d="M9.659979263780823 6.05349490982891 Q79.97054093761874 32.25102484312767 97.44715923989426 61.06595742371268 M9.659979263780823 6.05349490982891 Q63.89523914445402 57.90349243318939 97.44715923989426 61.06595742371268" style="fill: rgba(148, 33, 99, 0.8);"></path><path d="M7.7640636802078715 8.34741368147506 Q68.89843138047718 51.849996862073866 78.3216950196408 84.20636608505544 M7.7640636802078715 8.34741368147506 Q46.73153504688528 72.46778355551606 78.3216950196408 84.20636608505544" style="fill: rgba(148, 33, 99, 0.8);"></path><path d="M5.339039987550643 10.072470005482034 Q53.131007584797445 67.91547728104094 53.858736716519644 101.60825005530123 M5.339039987550643 10.072470005482034 Q26.38315406338442 82.09351498720902 53.858736716519644 101.60825005530123" style="fill: rgba(148, 33, 99, 0.8);"></path></g><g class="layer" style="animation-name: layerAnim5; animation-duration: 3.6s; animation-delay: 1.5s;"><path d="M3.629638867044316 9.746061855685161 Q50.64909544475505 81.00129082153194 36.64539240765895 98.39773988912901 M3.629638867044316 9.746061855685161 Q14.673767343184432 94.39926131111618 36.64539240765895 98.39773988912901" style="fill: rgba(168, 27, 92, 0.8);"></path><path d="M0.9834954987821667 10.353392516652463 Q27.958592625768432 91.35018928558729 9.929521862704567 104.52944367774121 M0.9834954987821667 10.353392516652463 Q-10.258555825187443 94.98053493483711 9.929521862704567 104.52944367774121" style="fill: rgba(168, 27, 92, 0.8);"></path><path d="M-1.7296714624188325 10.255156587400014 Q3.362757923094586 95.47372331315546 -17.463029187882444 103.5376386227886 M-1.7296714624188325 10.255156587400014 Q-34.49177536713788 89.08904206550434 -17.463029187882444 103.5376386227886" style="fill: rgba(168, 27, 92, 0.8);"></path><path d="M-4.324964171873231 9.458048684163817 Q-21.462243174817917 93.09088087471986 -43.665503658335496 95.48991459973085 M-4.324964171873231 9.458048684163817 Q-56.37443741817171 77.12627820601058 -43.665503658335496 95.48991459973085" style="fill: rgba(168, 27, 92, 0.8);"></path><path d="M-6.625517720355696 8.01639039326633 Q-44.82462786840043 84.36404874462653 -66.89224621512962 80.93471070124659 M-6.625517720355696 8.01639039326633 Q-74.4152747223199 59.9074859439783 -66.89224621512962 80.93471070124659" style="fill: rgba(168, 27, 92, 0.8);"></path><path d="M-8.47455318538165 6.028428344779238 Q-65.13228824895141 69.88794611076939 -85.56039273702628 60.86394001940577 M-8.47455318538165 6.028428344779238 Q-87.38483403119801 38.60609751666543 -85.56039273702628 60.86394001940577" style="fill: rgba(168, 27, 92, 0.8);"></path><path d="M-9.746061855685161 3.6296388670443163 Q-81.00129082153197 50.64909544475502 -98.39773988912901 36.64539240765896 M-9.746061855685161 3.6296388670443163 Q-94.39926131111619 14.67376734318442 -98.39773988912901 36.64539240765896" style="fill: rgba(168, 27, 92, 0.8);"></path><path d="M-10.353392516652463 0.9834954987821674 Q-91.3501892855873 27.95859262576842 -104.52944367774121 9.929521862704574 M-10.353392516652463 0.9834954987821674 Q-94.98053493483712 -10.258555825187438 -104.52944367774121 9.929521862704574" style="fill: rgba(168, 27, 92, 0.8);"></path><path d="M-10.255156587400014 -1.7296714624188274 Q-95.47372331315546 3.362757923094613 -103.5376386227886 -17.46302918788239 M-10.255156587400014 -1.7296714624188274 Q-89.08904206550436 -34.49177536713784 -103.5376386227886 -17.46302918788239" style="fill: rgba(168, 27, 92, 0.8);"></path><path d="M-9.458048684163817 -4.32496417187323 Q-93.09088087471986 -21.462243174817953 -95.48991459973085 -43.665503658335496 M-9.458048684163817 -4.32496417187323 Q-77.12627820601057 -56.374437418171745 -95.48991459973085 -43.665503658335496" style="fill: rgba(168, 27, 92, 0.8);"></path><path d="M-8.01639039326633 -6.6255177203556945 Q-84.36404874462654 -44.82462786840043 -80.93471070124659 -66.8922462151296 M-8.01639039326633 -6.6255177203556945 Q-59.907485943978315 -74.4152747223199 -80.93471070124659 -66.8922462151296" style="fill: rgba(168, 27, 92, 0.8);"></path><path d="M-6.028428344779239 -8.474553185381648 Q-69.8879461107694 -65.13228824895141 -60.863940019405774 -85.56039273702626 M-6.028428344779239 -8.474553185381648 Q-38.606097516665436 -87.384834031198 -60.863940019405774 -85.56039273702626" style="fill: rgba(168, 27, 92, 0.8);"></path><path d="M-3.6296388670443167 -9.74606185568516 Q-50.64909544475506 -81.00129082153194 -36.64539240765897 -98.39773988912901 M-3.6296388670443167 -9.74606185568516 Q-14.673767343184425 -94.39926131111618 -36.64539240765897 -98.39773988912901" style="fill: rgba(168, 27, 92, 0.8);"></path><path d="M-0.9834954987821679 -10.353392516652463 Q-27.958592625768464 -91.35018928558729 -9.92952186270458 -104.52944367774121 M-0.9834954987821679 -10.353392516652463 Q10.258555825187432 -94.98053493483712 -9.92952186270458 -104.52944367774121" style="fill: rgba(168, 27, 92, 0.8);"></path><path d="M1.7296714624188267 -10.255156587400014 Q-3.3627579230946614 -95.47372331315546 17.463029187882384 -103.5376386227886 M1.7296714624188267 -10.255156587400014 Q34.49177536713783 -89.08904206550436 17.463029187882384 -103.5376386227886" style="fill: rgba(168, 27, 92, 0.8);"></path><path d="M4.324964171873221 -9.45804868416382 Q21.46224317481782 -93.09088087471989 43.6655036583354 -95.48991459973088 M4.324964171873221 -9.45804868416382 Q56.37443741817167 -77.12627820601061 43.6655036583354 -95.48991459973088" style="fill: rgba(168, 27, 92, 0.8);"></path><path d="M6.6255177203556945 -8.01639039326633 Q44.82462786840038 -84.36404874462656 66.8922462151296 -80.93471070124659 M6.6255177203556945 -8.01639039326633 Q74.4152747223199 -59.907485943978315 66.8922462151296 -80.93471070124659" style="fill: rgba(168, 27, 92, 0.8);"></path><path d="M8.474553185381648 -6.028428344779239 Q65.13228824895138 -69.88794611076943 85.56039273702626 -60.863940019405774 M8.474553185381648 -6.028428344779239 Q87.384834031198 -38.60609751666544 85.56039273702626 -60.863940019405774" style="fill: rgba(168, 27, 92, 0.8);"></path><path d="M9.74606185568516 -3.6296388670443176 Q81.00129082153194 -50.64909544475506 98.39773988912901 -36.645392407658974 M9.74606185568516 -3.6296388670443176 Q94.39926131111618 -14.67376734318443 98.39773988912901 -36.645392407658974" style="fill: rgba(168, 27, 92, 0.8);"></path><path d="M10.353392516652463 -0.9834954987821686 Q91.35018928558729 -27.95859262576847 104.52944367774121 -9.929521862704586 M10.353392516652463 -0.9834954987821686 Q94.98053493483712 10.258555825187427 104.52944367774121 -9.929521862704586" style="fill: rgba(168, 27, 92, 0.8);"></path><path d="M10.255156587400014 1.7296714624188259 Q95.47372331315546 -3.3627579230946676 103.5376386227886 17.463029187882377 M10.255156587400014 1.7296714624188259 Q89.08904206550437 34.49177536713783 103.5376386227886 17.463029187882377" style="fill: rgba(168, 27, 92, 0.8);"></path><path d="M9.458048684163817 4.324964171873229 Q93.09088087471986 21.4622431748179 95.48991459973085 43.66550365833548 M9.458048684163817 4.324964171873229 Q77.12627820601057 56.37443741817173 95.48991459973085 43.66550365833548" style="fill: rgba(168, 27, 92, 0.8);"></path><path d="M8.01639039326633 6.6255177203556945 Q84.36404874462656 44.82462786840038 80.93471070124659 66.8922462151296 M8.01639039326633 6.6255177203556945 Q59.90748594397832 74.4152747223199 80.93471070124659 66.8922462151296" style="fill: rgba(168, 27, 92, 0.8);"></path><path d="M6.028428344779241 8.474553185381648 Q69.88794611076943 65.13228824895137 60.86394001940579 85.56039273702625 M6.028428344779241 8.474553185381648 Q38.60609751666544 87.384834031198 60.86394001940579 85.56039273702625" style="fill: rgba(168, 27, 92, 0.8);"></path></g><g class="layer" style="animation-name: layerAnim5; animation-duration: 3.6s; animation-delay: 1.35s;"><path d="M2.1027713774975663 9.16178762763998 Q33.5231938364719 74.80429010600358 21.25141285768817 92.59253453465936 M2.1027713774975663 9.16178762763998 Q2.4510756269456113 81.935819831938 21.25141285768817 92.59253453465936" style="fill: rgba(189, 22, 84, 0.8);"></path><path d="M-0.34012394491153064 9.393844564505942 Q13.020143771534938 80.93183674815104 -3.43742284751015 94.93779081149621 M-0.34012394491153064 9.393844564505942 Q-18.838993398339937 79.77830952707707 -3.43742284751015 94.93779081149621" style="fill: rgba(189, 22, 84, 0.8);"></path><path d="M-2.759840382556298 8.98572651836297 Q-8.370207574627196 81.54401246209599 -27.892003866260456 90.81319353664703 M-2.759840382556298 8.98572651836297 Q-38.8452161564372 72.18403926783594 -27.892003866260456 90.81319353664703" style="fill: rgba(189, 22, 84, 0.8);"></path><path d="M-4.991478258981734 7.965246059608748 Q-29.19014310700054 76.59909848460124 -50.44579091524092 80.49982719817352 M-4.991478258981734 7.965246059608748 Q-56.204201628228276 59.67054602225687 -50.44579091524092 80.49982719817352" style="fill: rgba(189, 22, 84, 0.8);"></path><path d="M-6.882955140865402 6.401947245083682 Q-48.020818625624074 66.43408253137639 -69.56178067895885 64.70053066839891 M-6.882955140865402 6.401947245083682 Q-69.73296364089032 43.09060367550078 -69.56178067895885 64.70053066839891" style="fill: rgba(189, 22, 84, 0.8);"></path><path d="M-8.305370004520277 4.402366305524206 Q-63.5789547130663 51.74169364115052 -83.93725004568365 44.491999896255265 M-8.305370004520277 4.402366305524206 Q-78.50953942059682 23.574107898848812 -83.93725004568365 44.491999896255265" style="fill: rgba(189, 22, 84, 0.8);"></path><path d="M-9.16178762763998 2.1027713774975667 Q-74.80429010600358 33.523193836471904 -92.59253453465936 21.251412857688173 M-9.16178762763998 2.1027713774975667 Q-81.935819831938 2.451075626945598 -92.59253453465936 21.251412857688173" style="fill: rgba(189, 22, 84, 0.8);"></path><path d="M-9.393844564505942 -0.3401239449115259 Q-80.93183674815104 13.020143771534961 -94.93779081149621 -3.4374228475101027 M-9.393844564505942 -0.3401239449115259 Q-79.77830952707708 -18.83899339833993 -94.93779081149621 -3.4374228475101027" style="fill: rgba(189, 22, 84, 0.8);"></path><path d="M-8.98572651836297 -2.7598403825563014 Q-81.54401246209599 -8.370207574627191 -90.81319353664703 -27.89200386626049 M-8.98572651836297 -2.7598403825563014 Q-72.18403926783594 -38.84521615643723 -90.81319353664703 -27.89200386626049" style="fill: rgba(189, 22, 84, 0.8);"></path><path d="M-7.965246059608748 -4.991478258981734 Q-76.59909848460124 -29.190143107000537 -80.49982719817352 -50.44579091524092 M-7.965246059608748 -4.991478258981734 Q-59.67054602225687 -56.20420162822827 -80.49982719817352 -50.44579091524092" style="fill: rgba(189, 22, 84, 0.8);"></path><path d="M-6.401947245083682 -6.882955140865401 Q-66.43408253137639 -48.02081862562406 -64.70053066839891 -69.56178067895884 M-6.401947245083682 -6.882955140865401 Q-43.090603675500844 -69.73296364089028 -64.70053066839891 -69.56178067895884" style="fill: rgba(189, 22, 84, 0.8);"></path><path d="M-4.402366305524213 -8.305370004520274 Q-51.741693641150526 -63.5789547130663 -44.491999896255344 -83.93725004568361 M-4.402366305524213 -8.305370004520274 Q-23.574107898848922 -78.5095394205968 -44.491999896255344 -83.93725004568361" style="fill: rgba(189, 22, 84, 0.8);"></path><path d="M-2.102771377497567 -9.16178762763998 Q-33.523193836471876 -74.80429010600359 -21.25141285768818 -92.59253453465936 M-2.102771377497567 -9.16178762763998 Q-2.4510756269456757 -81.935819831938 -21.25141285768818 -92.59253453465936" style="fill: rgba(189, 22, 84, 0.8);"></path><path d="M0.34012394491152537 -9.393844564505942 Q-13.02014377153493 -80.93183674815104 3.4374228475100965 -94.93779081149621 M0.34012394491152537 -9.393844564505942 Q18.838993398339856 -79.7783095270771 3.4374228475100965 -94.93779081149621" style="fill: rgba(189, 22, 84, 0.8);"></path><path d="M2.759840382556301 -8.98572651836297 Q8.370207574627258 -81.54401246209598 27.892003866260488 -90.81319353664703 M2.759840382556301 -8.98572651836297 Q38.845216156437196 -72.18403926783596 27.892003866260488 -90.81319353664703" style="fill: rgba(189, 22, 84, 0.8);"></path><path d="M4.991478258981734 -7.965246059608748 Q29.190143107000562 -76.59909848460124 50.44579091524092 -80.49982719817352 M4.991478258981734 -7.965246059608748 Q56.20420162822821 -59.67054602225693 50.44579091524092 -80.49982719817352" style="fill: rgba(189, 22, 84, 0.8);"></path><path d="M6.882955140865401 -6.401947245083682 Q48.02081862562409 -66.43408253137638 69.56178067895884 -64.70053066839891 M6.882955140865401 -6.401947245083682 Q69.73296364089028 -43.09060367550086 69.56178067895884 -64.70053066839891" style="fill: rgba(189, 22, 84, 0.8);"></path><path d="M8.305370004520274 -4.402366305524214 Q63.578954713066295 -51.741693641150526 83.93725004568361 -44.49199989625535 M8.305370004520274 -4.402366305524214 Q78.5095394205968 -23.57410789884893 83.93725004568361 -44.49199989625535" style="fill: rgba(189, 22, 84, 0.8);"></path><path d="M9.16178762763998 -2.102771377497568 Q74.80429010600359 -33.523193836471876 92.59253453465936 -21.251412857688184 M9.16178762763998 -2.102771377497568 Q81.935819831938 -2.451075626945681 92.59253453465936 -21.251412857688184" style="fill: rgba(189, 22, 84, 0.8);"></path><path d="M9.393844564505942 0.34012394491152476 Q80.93183674815104 -13.020143771534935 94.93779081149621 3.4374228475100908 M9.393844564505942 0.34012394491152476 Q79.7783095270771 18.838993398339852 94.93779081149621 3.4374228475100908" style="fill: rgba(189, 22, 84, 0.8);"></path><path d="M8.985726518362972 2.759840382556292 Q81.54401246209599 8.37020757462718 90.81319353664706 27.892003866260396 M8.985726518362972 2.759840382556292 Q72.18403926783598 38.845216156437125 90.81319353664706 27.892003866260396" style="fill: rgba(189, 22, 84, 0.8);"></path><path d="M7.965246059608749 4.991478258981733 Q76.59909848460124 29.19014310700056 80.49982719817352 50.44579091524091 M7.965246059608749 4.991478258981733 Q59.67054602225693 56.204201628228205 80.49982719817352 50.44579091524091" style="fill: rgba(189, 22, 84, 0.8);"></path><path d="M6.401947245083683 6.882955140865401 Q66.43408253137638 48.02081862562408 64.70053066839893 69.56178067895884 M6.401947245083683 6.882955140865401 Q43.09060367550086 69.73296364089026 64.70053066839893 69.56178067895884" style="fill: rgba(189, 22, 84, 0.8);"></path><path d="M4.402366305524215 8.305370004520274 Q51.74169364115053 63.578954713066295 44.49199989625536 83.93725004568361 M4.402366305524215 8.305370004520274 Q23.574107898848933 78.5095394205968 44.49199989625536 83.93725004568361" style="fill: rgba(189, 22, 84, 0.8);"></path></g><g class="layer" style="animation-name: layerAnim5; animation-duration: 3.6s; animation-delay: 1.2s;"><path d="M2.410512936931197 8.046702888816471 Q42.13272121614721 62.524303049955485 24.39209519513711 81.42496970826191 M2.410512936931197 8.046702888816471 Q-0.8181173866272481 75.39088375196269 24.39209519513711 81.42496970826191" style="fill: rgba(209, 16, 77, 0.8);"></path><path d="M-0.8523163154299673 8.356647467642265 Q14.998543883210456 73.88841824226355 -8.62462938232705 84.56131366066577 M-0.8523163154299673 8.356647467642265 Q-29.6066840719351 69.33901446678398 -8.62462938232705 84.56131366066577" style="fill: rgba(209, 16, 77, 0.8);"></path><path d="M-3.9853881350335585 7.394368222717458 Q-14.419025793806231 74.00369155736628 -40.32833231879196 74.82396415845047 M-3.9853881350335585 7.394368222717458 Q-53.887901492550256 52.7309087887688 -40.32833231879196 74.82396415845047" style="fill: rgba(209, 16, 77, 0.8);"></path><path d="M-6.511720738711698 5.306363445998773 Q-41.64142950251022 62.85257367799449 -65.89241223696361 53.6953443940352 M-6.511720738711698 5.306363445998773 Q-69.96517440596813 28.095000254542043 -65.89241223696361 53.6953443940352" style="fill: rgba(209, 16, 77, 0.8);"></path><path d="M-8.046702888816473 2.4105129369311937 Q-62.52430304995549 42.13272121614721 -81.42496970826193 24.392095195137077 M-8.046702888816473 2.4105129369311937 Q-75.39088375196269 -0.8181173866272603 -81.42496970826193 24.392095195137077" style="fill: rgba(209, 16, 77, 0.8);"></path><path d="M-8.356647467642265 -0.8523163154299669 Q-73.88841824226354 14.998543883210475 -84.56131366066577 -8.624629382327045 M-8.356647467642265 -0.8523163154299669 Q-69.339014466784 -29.606684071935078 -84.56131366066577 -8.624629382327045" style="fill: rgba(209, 16, 77, 0.8);"></path><path d="M-7.394368222717457 -3.985388135033561 Q-74.00369155736628 -14.419025793806243 -74.82396415845045 -40.328332318791986 M-7.394368222717457 -3.985388135033561 Q-52.73090878876877 -53.88790149255028 -74.82396415845045 -40.328332318791986" style="fill: rgba(209, 16, 77, 0.8);"></path><path d="M-5.306363445998774 -6.5117207387116975 Q-62.85257367799449 -41.64142950251021 -53.69534439403522 -65.89241223696361 M-5.306363445998774 -6.5117207387116975 Q-28.095000254542015 -69.96517440596814 -53.69534439403522 -65.89241223696361" style="fill: rgba(209, 16, 77, 0.8);"></path><path d="M-2.4105129369311946 -8.046702888816471 Q-42.13272121614721 -62.524303049955485 -24.392095195137085 -81.42496970826191 M-2.4105129369311946 -8.046702888816471 Q0.8181173866272891 -75.39088375196269 -24.392095195137085 -81.42496970826191" style="fill: rgba(209, 16, 77, 0.8);"></path><path d="M0.8523163154299664 -8.356647467642265 Q-14.998543883210482 -73.88841824226354 8.624629382327042 -84.56131366066577 M0.8523163154299664 -8.356647467642265 Q29.606684071935046 -69.33901446678401 8.624629382327042 -84.56131366066577" style="fill: rgba(209, 16, 77, 0.8);"></path><path d="M3.9853881350335607 -7.394368222717457 Q14.41902579380624 -74.00369155736628 40.32833231879198 -74.82396415845045 M3.9853881350335607 -7.394368222717457 Q53.88790149255025 -52.73090878876881 40.32833231879198 -74.82396415845045" style="fill: rgba(209, 16, 77, 0.8);"></path><path d="M6.5117207387116975 -5.306363445998774 Q41.64142950251021 -62.852573677994506 65.89241223696361 -53.69534439403522 M6.5117207387116975 -5.306363445998774 Q69.96517440596813 -28.095000254542022 65.89241223696361 -53.69534439403522" style="fill: rgba(209, 16, 77, 0.8);"></path><path d="M8.046702888816471 -2.410512936931195 Q62.524303049955485 -42.13272121614722 81.42496970826191 -24.39209519513709 M8.046702888816471 -2.410512936931195 Q75.39088375196269 0.8181173866272845 81.42496970826191 -24.39209519513709" style="fill: rgba(209, 16, 77, 0.8);"></path><path d="M8.356647467642265 0.8523163154299733 Q73.88841824226355 -14.99854388321042 84.56131366066577 8.624629382327111 M8.356647467642265 0.8523163154299733 Q69.33901446678396 29.606684071935163 84.56131366066577 8.624629382327111" style="fill: rgba(209, 16, 77, 0.8);"></path><path d="M7.394368222717457 3.9853881350335603 Q74.00369155736628 14.419025793806236 74.82396415845045 40.32833231879198 M7.394368222717457 3.9853881350335603 Q52.73090878876881 53.88790149255025 74.82396415845045 40.32833231879198" style="fill: rgba(209, 16, 77, 0.8);"></path><path d="M5.306363445998775 6.5117207387116975 Q62.852573677994506 41.6414295025102 53.695344394035224 65.89241223696361 M5.306363445998775 6.5117207387116975 Q28.095000254542022 69.96517440596813 53.695344394035224 65.89241223696361" style="fill: rgba(209, 16, 77, 0.8);"></path></g><g class="layer" style="animation-name: layerAnim5; animation-duration: 3.6s; animation-delay: 1.05s;"><path d="M0.6997948741334631 7.366836983002714 Q19.719974967637796 55.32734844792235 7.092515616217531 74.66388834124372 M0.6997948741334631 7.366836983002714 Q-8.949894309940975 58.05077338712176 7.092515616217531 74.66388834124372" style="fill: rgba(221, 76, 90, 0.8);"></path><path d="M-2.1726403011613424 7.073869812328296 Q-2.9539783534747617 58.662312525924854 -22.0200030523109 71.6946264763003 M-2.1726403011613424 7.073869812328296 Q-30.483693382325455 50.206945104979695 -22.0200030523109 71.6946264763003" style="fill: rgba(221, 76, 90, 0.8);"></path><path d="M-4.714310685637707 5.703970087516426 Q-25.178215248151243 53.066471297042554 -47.78017586794973 57.810507643747556 M-4.714310685637707 5.703970087516426 Q-47.37662647261952 34.7195645576952 -47.78017586794973 57.810507643747556" style="fill: rgba(221, 76, 90, 0.8);"></path><path d="M-6.538270003558517 3.465692623497779 Q-43.56929711238628 39.391740861945735 -66.26625003606604 35.125263075991 M-6.538270003558517 3.465692623497779 Q-57.056897652645695 13.94644504013807 -66.26625003606604 35.125263075991" style="fill: rgba(221, 76, 90, 0.8);"></path><path d="M-7.366836983002714 0.6997948741334653 Q-55.32734844792235 19.7199749676378 -74.66388834124372 7.092515616217553 M-7.366836983002714 0.6997948741334653 Q-58.05077338712176 -8.949894309940973 -74.66388834124372 7.092515616217553" style="fill: rgba(221, 76, 90, 0.8);"></path><path d="M-7.0738698123282955 -2.1726403011613438 Q-58.662312525924854 -2.953978353474758 -71.69462647630029 -22.020003052310916 M-7.0738698123282955 -2.1726403011613438 Q-50.206945104979695 -30.48369338232545 -71.69462647630029 -22.020003052310916" style="fill: rgba(221, 76, 90, 0.8);"></path><path d="M-5.703970087516426 -4.714310685637706 Q-53.066471297042554 -25.17821524815124 -57.810507643747556 -47.78017586794972 M-5.703970087516426 -4.714310685637706 Q-34.71956455769522 -47.3766264726195 -57.810507643747556 -47.78017586794972" style="fill: rgba(221, 76, 90, 0.8);"></path><path d="M-3.465692623497779 -6.538270003558517 Q-39.391740861945735 -43.56929711238628 -35.125263075991 -66.26625003606604 M-3.465692623497779 -6.538270003558517 Q-13.946445040138123 -57.05689765264568 -35.125263075991 -66.26625003606604" style="fill: rgba(221, 76, 90, 0.8);"></path><path d="M-0.6997948741334656 -7.366836983002714 Q-19.719974967637803 -55.32734844792235 -7.0925156162175576 -74.66388834124372 M-0.6997948741334656 -7.366836983002714 Q8.949894309940943 -58.050773387121765 -7.0925156162175576 -74.66388834124372" style="fill: rgba(221, 76, 90, 0.8);"></path><path d="M2.1726403011613433 -7.0738698123282955 Q2.9539783534747808 -58.662312525924854 22.020003052310912 -71.69462647630029 M2.1726403011613433 -7.0738698123282955 Q30.48369338232545 -50.206945104979695 22.020003052310912 -71.69462647630029" style="fill: rgba(221, 76, 90, 0.8);"></path><path d="M4.714310685637711 -5.703970087516422 Q25.178215248151286 -53.06647129704253 47.78017586794977 -57.81050764374751 M4.714310685637711 -5.703970087516422 Q47.37662647261953 -34.719564557695186 47.78017586794977 -57.81050764374751" style="fill: rgba(221, 76, 90, 0.8);"></path><path d="M6.538270003558513 -3.465692623497785 Q43.569297112386266 -39.39174086194576 66.26625003606601 -35.125263075991064 M6.538270003558513 -3.465692623497785 Q57.056897652645674 -13.946445040138126 66.26625003606601 -35.125263075991064" style="fill: rgba(221, 76, 90, 0.8);"></path><path d="M7.366836983002714 -0.6997948741334661 Q55.32734844792235 -19.719974967637807 74.66388834124372 -7.092515616217561 M7.366836983002714 -0.6997948741334661 Q58.050773387121765 8.94989430994094 74.66388834124372 -7.092515616217561" style="fill: rgba(221, 76, 90, 0.8);"></path><path d="M7.0738698123282955 2.172640301161343 Q58.662312525924854 2.953978353474777 71.69462647630029 22.020003052310905 M7.0738698123282955 2.172640301161343 Q50.2069451049797 30.483693382325445 71.69462647630029 22.020003052310905" style="fill: rgba(221, 76, 90, 0.8);"></path><path d="M5.7039700875164225 4.714310685637711 Q53.06647129704254 25.178215248151282 57.81050764374753 47.78017586794977 M5.7039700875164225 4.714310685637711 Q34.719564557695186 47.37662647261953 57.81050764374753 47.78017586794977" style="fill: rgba(221, 76, 90, 0.8);"></path><path d="M3.4656926234977856 6.538270003558513 Q39.39174086194576 43.569297112386266 35.12526307599107 66.26625003606601 M3.4656926234977856 6.538270003558513 Q13.94644504013813 57.056897652645674 35.12526307599107 66.26625003606601" style="fill: rgba(221, 76, 90, 0.8);"></path></g><g class="layer" style="animation-name: layerAnim5; animation-duration: 3.6s; animation-delay: 0.9s;"><path d="M1.8365812852809118 6.130821248622073 Q30.13621927438862 45.4927412851228 18.65277867863426 62.26615330631793 M1.8365812852809118 6.130821248622073 Q-0.1612504570138833 54.5688117891462 18.65277867863426 62.26615330631793" style="fill: rgba(232, 135, 103, 0.8);"></path><path d="M-0.6493838593752133 6.366969499156012 Q10.432917792191978 53.562444381586175 -6.595304821779509 64.66453397580324 M-0.6493838593752133 6.366969499156012 Q-21.03155619239826 50.35330044709227 -6.595304821779509 64.66453397580324" style="fill: rgba(232, 135, 103, 0.8);"></path><path d="M-3.0364861981208064 5.633804360165683 Q-10.858700849230605 53.47775086572048 -30.83931294966444 57.21832553293271 M-3.0364861981208064 5.633804360165683 Q-38.699998149021624 38.47195556577377 -30.83931294966444 57.21832553293271" style="fill: rgba(232, 135, 103, 0.8);"></path><path d="M-4.961311039018437 4.042943577903827 Q-30.497180720726146 45.25155455756761 -50.388315240031 41.06114571308574 M-4.961311039018437 4.042943577903827 Q-50.47671620381329 20.733604198711852 -50.388315240031 41.06114571308574" style="fill: rgba(232, 135, 103, 0.8);"></path><path d="M-6.130821248622074 1.8365812852809094 Q-45.492741285122804 30.136219274388612 -62.26615330631794 18.652778678634235 M-6.130821248622074 1.8365812852809094 Q-54.5688117891462 -0.16125045701387997 -62.26615330631794 18.652778678634235" style="fill: rgba(232, 135, 103, 0.8);"></path><path d="M-6.366969499156012 -0.6493838593752129 Q-53.562444381586175 10.432917792191981 -64.66453397580324 -6.595304821779505 M-6.366969499156012 -0.6493838593752129 Q-50.35330044709229 -21.031556192398238 -64.66453397580324 -6.595304821779505" style="fill: rgba(232, 135, 103, 0.8);"></path><path d="M-5.633804360165682 -3.0364861981208087 Q-53.47775086572047 -10.858700849230626 -57.2183255329327 -30.83931294966446 M-5.633804360165682 -3.0364861981208087 Q-38.471955565773754 -38.699998149021646 -57.2183255329327 -30.83931294966446" style="fill: rgba(232, 135, 103, 0.8);"></path><path d="M-4.042943577903828 -4.961311039018437 Q-45.251554557567616 -30.497180720726146 -41.06114571308575 -50.38831524003099 M-4.042943577903828 -4.961311039018437 Q-20.73360419871181 -50.476716203813304 -41.06114571308575 -50.38831524003099" style="fill: rgba(232, 135, 103, 0.8);"></path><path d="M-1.83658128528091 -6.130821248622073 Q-30.13621927438863 -45.4927412851228 -18.65277867863424 -62.26615330631793 M-1.83658128528091 -6.130821248622073 Q0.16125045701392507 -54.5688117891462 -18.65277867863424 -62.26615330631793" style="fill: rgba(232, 135, 103, 0.8);"></path><path d="M0.6493838593752126 -6.366969499156012 Q-10.432917792192008 -53.56244438158617 6.595304821779502 -64.66453397580324 M0.6493838593752126 -6.366969499156012 Q21.031556192398234 -50.35330044709229 6.595304821779502 -64.66453397580324" style="fill: rgba(232, 135, 103, 0.8);"></path><path d="M3.036486198120808 -5.633804360165682 Q10.8587008492306 -53.47775086572048 30.839312949664457 -57.2183255329327 M3.036486198120808 -5.633804360165682 Q38.69999814902164 -38.471955565773754 30.839312949664457 -57.2183255329327" style="fill: rgba(232, 135, 103, 0.8);"></path><path d="M4.961311039018437 -4.042943577903828 Q30.49718072072612 -45.25155455756763 50.38831524003099 -41.06114571308575 M4.961311039018437 -4.042943577903828 Q50.476716203813304 -20.73360419871181 50.38831524003099 -41.06114571308575" style="fill: rgba(232, 135, 103, 0.8);"></path><path d="M6.130821248622073 -1.8365812852809105 Q45.49274128512279 -30.136219274388637 62.26615330631793 -18.652778678634245 M6.130821248622073 -1.8365812852809105 Q54.5688117891462 0.16125045701392174 62.26615330631793 -18.652778678634245" style="fill: rgba(232, 135, 103, 0.8);"></path><path d="M6.366969499156012 0.6493838593752178 Q53.56244438158618 -10.432917792191963 64.66453397580324 6.595304821779555 M6.366969499156012 0.6493838593752178 Q50.353300447092245 21.03155619239832 64.66453397580324 6.595304821779555" style="fill: rgba(232, 135, 103, 0.8);"></path><path d="M5.633804360165682 3.0364861981208078 Q53.47775086572048 10.858700849230596 57.2183255329327 30.839312949664453 M5.633804360165682 3.0364861981208078 Q38.471955565773754 38.69999814902164 57.2183255329327 30.839312949664453" style="fill: rgba(232, 135, 103, 0.8);"></path><path d="M4.042943577903829 4.961311039018437 Q45.25155455756763 30.49718072072612 41.06114571308576 50.38831524003099 M4.042943577903829 4.961311039018437 Q20.733604198711813 50.476716203813304 41.06114571308576 50.38831524003099" style="fill: rgba(232, 135, 103, 0.8);"></path></g><g class="layer" style="animation-name: layerAnim5; animation-duration: 3.6s; animation-delay: 0.75s;"><path d="M0.5106611243676623 5.375799960569548 Q22.11933441789962 52.87245835757369 5.201178118559523 54.75351811691206 M0.5106611243676623 5.375799960569548 Q-11.768561127878543 56.09155709056069 5.201178118559523 54.75351811691206" style="fill: rgba(244, 195, 115, 0.8);"></path><path d="M-1.585440219766385 5.162013106293622 Q0.2021864996133382 57.312484926790745 -16.14800223836133 52.57605941595355 M-1.585440219766385 5.162013106293622 Q-32.338042347273074 47.318208176242436 -16.14800223836133 52.57605941595355" style="fill: rgba(244, 195, 115, 0.8);"></path><path d="M-3.4401726624923805 4.162356550349824 Q-21.745742480413888 53.027205204873525 -35.03879563649647 42.39437227208154 M-3.4401726624923805 4.162356550349824 Q-47.984349764379154 31.341091007716525 -35.03879563649647 42.39437227208154" style="fill: rgba(244, 195, 115, 0.8);"></path><path d="M-4.771170002596755 2.529018941471352 Q-40.383079293444574 40.66901418332648 -48.59525002644843 25.758526255726732 M-4.771170002596755 2.529018941471352 Q-56.32547490907229 10.592576840963236 -48.59525002644843 25.758526255726732" style="fill: rgba(244, 195, 115, 0.8);"></path><path d="M-5.375799960569548 0.5106611243676639 Q-52.8724583575737 22.11933441789961 -54.75351811691206 5.201178118559539 M-5.375799960569548 0.5106611243676639 Q-56.09155709056069 -11.768561127878527 -54.75351811691206 5.201178118559539" style="fill: rgba(244, 195, 115, 0.8);"></path><path d="M-5.162013106293621 -1.585440219766386 Q-57.312484926790745 0.202186499613329 -52.576059415953544 -16.148002238361336 M-5.162013106293621 -1.585440219766386 Q-47.318208176242436 -32.33804234727307 -52.576059415953544 -16.148002238361336" style="fill: rgba(244, 195, 115, 0.8);"></path><path d="M-4.162356550349824 -3.44017266249238 Q-53.02720520487352 -21.7457424804139 -42.39437227208154 -35.03879563649646 M-4.162356550349824 -3.44017266249238 Q-31.341091007716525 -47.98434976437915 -42.39437227208154 -35.03879563649646" style="fill: rgba(244, 195, 115, 0.8);"></path><path d="M-2.529018941471352 -4.771170002596755 Q-40.66901418332649 -40.383079293444574 -25.758526255726736 -48.59525002644843 M-2.529018941471352 -4.771170002596755 Q-10.592576840963265 -56.325474909072284 -25.758526255726736 -48.59525002644843" style="fill: rgba(244, 195, 115, 0.8);"></path><path d="M-0.5106611243676642 -5.375799960569548 Q-22.119334417899637 -52.872458357573684 -5.201178118559542 -54.75351811691206 M-0.5106611243676642 -5.375799960569548 Q11.768561127878526 -56.09155709056069 -5.201178118559542 -54.75351811691206" style="fill: rgba(244, 195, 115, 0.8);"></path><path d="M1.5854402197663857 -5.162013106293621 Q-0.2021864996133325 -57.312484926790745 16.148002238361336 -52.576059415953544 M1.5854402197663857 -5.162013106293621 Q32.33804234727309 -47.31820817624242 16.148002238361336 -52.576059415953544" style="fill: rgba(244, 195, 115, 0.8);"></path><path d="M3.4401726624923836 -4.162356550349822 Q21.745742480413917 -53.02720520487351 35.038795636496495 -42.39437227208151 M3.4401726624923836 -4.162356550349822 Q47.984349764379175 -31.341091007716486 35.038795636496495 -42.39437227208151" style="fill: rgba(244, 195, 115, 0.8);"></path><path d="M4.771170002596754 -2.529018941471357 Q40.38307929344453 -40.66901418332653 48.59525002644841 -25.758526255726782 M4.771170002596754 -2.529018941471357 Q56.325474909072284 -10.592576840963268 48.59525002644841 -25.758526255726782" style="fill: rgba(244, 195, 115, 0.8);"></path><path d="M5.375799960569548 -0.5106611243676644 Q52.872458357573684 -22.11933441789964 54.75351811691206 -5.201178118559545 M5.375799960569548 -0.5106611243676644 Q56.09155709056069 11.768561127878522 54.75351811691206 -5.201178118559545" style="fill: rgba(244, 195, 115, 0.8);"></path><path d="M5.162013106293621 1.5854402197663853 Q57.312484926790745 -0.202186499613336 52.576059415953544 16.148002238361332 M5.162013106293621 1.5854402197663853 Q47.31820817624242 32.33804234727309 52.576059415953544 16.148002238361332" style="fill: rgba(244, 195, 115, 0.8);"></path><path d="M4.162356550349822 3.4401726624923836 Q53.02720520487351 21.745742480413917 42.39437227208152 35.038795636496495 M4.162356550349822 3.4401726624923836 Q31.341091007716493 47.984349764379175 42.39437227208152 35.038795636496495" style="fill: rgba(244, 195, 115, 0.8);"></path><path d="M2.529018941471357 4.771170002596754 Q40.66901418332653 40.38307929344453 25.758526255726785 48.59525002644841 M2.529018941471357 4.771170002596754 Q10.592576840963272 56.325474909072284 25.758526255726785 48.59525002644841" style="fill: rgba(244, 195, 115, 0.8);"></path></g><g class="layer" style="animation-name: layerAnim5; animation-duration: 3.6s; animation-delay: 0.6s;"><path d="M0.41609424948476187 4.380281449352966 Q24.045250267254104 37.31066278842614 4.255509369730519 44.79833300474623 M0.41609424948476187 4.380281449352966 Q-16.59010101436727 41.17071977096855 4.255509369730519 44.79833300474623" style="fill: rgba(255, 255, 128, 0.8);"></path><path d="M-2.803103650919719 3.391549781766522 Q-9.380063148957683 43.38518218756372 -28.668105520769853 34.68630458624852 M-2.803103650919719 3.391549781766522 Q-40.84306806421185 17.381122208553993 -28.668105520769853 34.68630458624852" style="fill: rgba(255, 255, 128, 0.8);"></path><path d="M-4.380281449352966 0.4160942494847612 Q-37.31066278842614 24.045250267254104 -44.79833300474623 4.255509369730512 M-4.380281449352966 0.4160942494847612 Q-41.170719770968546 -16.590101014367285 -44.79833300474623 4.255509369730512" style="fill: rgba(255, 255, 128, 0.8);"></path><path d="M-3.3915497817665226 -2.803103650919719 Q-43.38518218756373 -9.380063148957682 -34.686304586248525 -28.668105520769853 M-3.3915497817665226 -2.803103650919719 Q-17.381122208553993 -40.84306806421185 -34.686304586248525 -28.668105520769853" style="fill: rgba(255, 255, 128, 0.8);"></path><path d="M-0.4160942494847595 -4.380281449352966 Q-24.045250267254104 -37.310662788426136 -4.255509369730494 -44.79833300474624 M-0.4160942494847595 -4.380281449352966 Q16.590101014367285 -41.170719770968546 -4.255509369730494 -44.79833300474624" style="fill: rgba(255, 255, 128, 0.8);"></path><path d="M2.8031036509197174 -3.3915497817665243 Q9.38006314895768 -43.38518218756373 28.66810552076983 -34.68630458624854 M2.8031036509197174 -3.3915497817665243 Q40.84306806421185 -17.381122208553997 28.66810552076983 -34.68630458624854" style="fill: rgba(255, 255, 128, 0.8);"></path><path d="M4.380281449352966 -0.41609424948475976 Q37.310662788426136 -24.04525026725411 44.79833300474624 -4.255509369730498 M4.380281449352966 -0.41609424948475976 Q41.170719770968546 16.59010101436728 44.79833300474624 -4.255509369730498" style="fill: rgba(255, 255, 128, 0.8);"></path><path d="M3.3915497817665243 2.8031036509197174 Q43.38518218756373 9.380063148957674 34.68630458624854 28.66810552076983 M3.3915497817665243 2.8031036509197174 Q17.381122208554 40.84306806421185 34.68630458624854 28.66810552076983" style="fill: rgba(255, 255, 128, 0.8);"></path></g><g class="layer" style="animation-name: layerAnim5; animation-duration: 3.6s; animation-delay: 0.45s;"><path d="M-0.9982401383714268 3.2501564002589465 Q6.427115563238602 31.26369235046187 -10.276001424411746 33.4574923556068 M-0.9982401383714268 3.2501564002589465 Q-22.86804170893366 22.26609400514653 -10.276001424411746 33.4574923556068" style="fill: rgba(200, 238, 103, 0.8);"></path><path d="M-3.004070001634993 1.5923452594449266 Q-17.56211186770597 26.651425864177195 -30.924250016830815 16.39178943546248 M-3.004070001634993 1.5923452594449266 Q-31.914653426420042 -0.42564130326754746 -30.924250016830815 16.39178943546248" style="fill: rgba(200, 238, 103, 0.8);"></path><path d="M-3.2501564002589465 -0.9982401383714266 Q-31.26369235046187 6.427115563238604 -33.4574923556068 -10.276001424411744 M-3.2501564002589465 -0.9982401383714266 Q-22.266094005146535 -22.868041708933657 -33.4574923556068 -10.276001424411744" style="fill: rgba(200, 238, 103, 0.8);"></path><path d="M-1.5923452594449254 -3.004070001634994 Q-26.651425864177195 -17.562111867705966 -16.391789435462467 -30.924250016830822 M-1.5923452594449254 -3.004070001634994 Q0.42564130326755967 -31.914653426420042 -16.391789435462467 -30.924250016830822" style="fill: rgba(200, 238, 103, 0.8);"></path><path d="M0.9982401383714249 -3.2501564002589474 Q-6.42711556323862 -31.263692350461866 10.276001424411728 -33.45749235560681 M0.9982401383714249 -3.2501564002589474 Q22.868041708933667 -22.266094005146524 10.276001424411728 -33.45749235560681" style="fill: rgba(200, 238, 103, 0.8);"></path><path d="M3.004070001634994 -1.5923452594449257 Q17.56211186770595 -26.651425864177202 30.924250016830822 -16.39178943546247 M3.004070001634994 -1.5923452594449257 Q31.914653426420042 0.4256413032675577 30.924250016830822 -16.39178943546247" style="fill: rgba(200, 238, 103, 0.8);"></path><path d="M3.2501564002589474 0.9982401383714247 Q31.263692350461866 -6.427115563238622 33.45749235560681 10.276001424411724 M3.2501564002589474 0.9982401383714247 Q22.266094005146527 22.868041708933667 33.45749235560681 10.276001424411724" style="fill: rgba(200, 238, 103, 0.8);"></path><path d="M1.5923452594449259 3.0040700016349935 Q26.651425864177206 17.56211186770595 16.39178943546247 30.92425001683082 M1.5923452594449259 3.0040700016349935 Q-0.4256413032675558 31.914653426420042 16.39178943546247 30.92425001683082" style="fill: rgba(200, 238, 103, 0.8);"></path></g><g class="layer" style="animation-name: layerAnim5; animation-duration: 3.6s; animation-delay: 0.3s;"><path d="M0.22696049971896098 2.389244426919799 Q14.255353249898986 20.467534923843175 2.3641718720725104 24.887962780414576 M0.22696049971896098 2.389244426919799 Q-10.146631698711323 22.785542506353718 2.3641718720725104 24.887962780414576" style="fill: rgba(144, 220, 78, 0.8);"></path><path d="M-1.5289656277743922 1.849936244599921 Q-4.392675787608731 24.552789690035254 -15.926725289316584 19.27016921458251 M-1.5289656277743922 1.849936244599921 Q-23.286563699618192 8.937059538895884 -15.926725289316584 19.27016921458251" style="fill: rgba(144, 220, 78, 0.8);"></path><path d="M-2.389244426919799 0.22696049971896062 Q-20.46753492384318 14.25535324989898 -24.887962780414576 2.3641718720725065 M-2.389244426919799 0.22696049971896062 Q-22.785542506353718 -10.146631698711321 -24.887962780414576 2.3641718720725065" style="fill: rgba(144, 220, 78, 0.8);"></path><path d="M-1.8499362445999212 -1.5289656277743922 Q-24.552789690035254 -4.392675787608741 -19.270169214582513 -15.926725289316584 M-1.8499362445999212 -1.5289656277743922 Q-8.937059538895875 -23.286563699618195 -19.270169214582513 -15.926725289316584" style="fill: rgba(144, 220, 78, 0.8);"></path><path d="M-0.22696049971895968 -2.389244426919799 Q-14.255353249898988 -20.46753492384317 -2.3641718720724967 -24.887962780414576 M-0.22696049971895968 -2.389244426919799 Q10.14663169871133 -22.785542506353718 -2.3641718720724967 -24.887962780414576" style="fill: rgba(144, 220, 78, 0.8);"></path><path d="M1.528965627774391 -1.8499362445999221 Q4.392675787608728 -24.552789690035258 15.926725289316574 -19.270169214582523 M1.528965627774391 -1.8499362445999221 Q23.286563699618195 -8.937059538895875 15.926725289316574 -19.270169214582523" style="fill: rgba(144, 220, 78, 0.8);"></path><path d="M2.389244426919799 -0.22696049971895985 Q20.467534923843168 -14.255353249898992 24.887962780414576 -2.3641718720724985 M2.389244426919799 -0.22696049971895985 Q22.785542506353718 10.146631698711328 24.887962780414576 -2.3641718720724985" style="fill: rgba(144, 220, 78, 0.8);"></path><path d="M1.8499362445999221 1.528965627774391 Q24.552789690035258 4.392675787608726 19.270169214582523 15.926725289316574 M1.8499362445999221 1.528965627774391 Q8.937059538895877 23.286563699618195 19.270169214582523 15.926725289316574" style="fill: rgba(144, 220, 78, 0.8);"></path></g><g class="layer" style="animation-name: layerAnim5; animation-duration: 3.6s; animation-delay: 0.15s;"><path d="M-0.41104005697646984 1.338299694224272 Q2.9717618651575894 12.414599179187931 -4.404000610462177 14.338925295260058 M-0.41104005697646984 1.338299694224272 Q-9.428002063738653 8.606184895134326 -4.404000610462177 14.338925295260058" style="fill: rgba(89, 203, 52, 0.8);"></path><path d="M-1.2369700006732325 0.6556715774184991 Q-6.677094298392219 10.879800232241248 -13.253250007213206 7.025052615198206 M-1.2369700006732325 0.6556715774184991 Q-12.752095891805086 -0.5811124928156466 -13.253250007213206 7.025052615198206" style="fill: rgba(89, 203, 52, 0.8);"></path><path d="M-1.338299694224272 -0.4110400569764698 Q-12.414599179187931 2.9717618651575908 -14.338925295260058 -4.404000610462176 M-1.338299694224272 -0.4110400569764698 Q-8.606184895134328 -9.428002063738653 -14.338925295260058 -4.404000610462176" style="fill: rgba(89, 203, 52, 0.8);"></path><path d="M-0.6556715774184987 -1.2369700006732327 Q-10.879800232241248 -6.677094298392217 -7.0250526151982005 -13.25325000721321 M-0.6556715774184987 -1.2369700006732327 Q0.5811124928156459 -12.752095891805086 -7.0250526151982005 -13.25325000721321" style="fill: rgba(89, 203, 52, 0.8);"></path><path d="M0.41104005697646906 -1.3382996942242724 Q-2.971761865157591 -12.414599179187931 4.404000610462169 -14.338925295260061 M0.41104005697646906 -1.3382996942242724 Q9.428002063738651 -8.606184895134328 4.404000610462169 -14.338925295260061" style="fill: rgba(89, 203, 52, 0.8);"></path><path d="M1.2369700006732327 -0.6556715774184988 Q6.677094298392217 -10.879800232241248 13.25325000721321 -7.025052615198201 M1.2369700006732327 -0.6556715774184988 Q12.752095891805086 0.5811124928156451 13.25325000721321 -7.025052615198201" style="fill: rgba(89, 203, 52, 0.8);"></path><path d="M1.3382996942242724 0.411040056976469 Q12.414599179187931 -2.971761865157592 14.338925295260061 4.404000610462168 M1.3382996942242724 0.411040056976469 Q8.60618489513433 9.428002063738651 14.338925295260061 4.404000610462168" style="fill: rgba(89, 203, 52, 0.8);"></path><path d="M0.6556715774184988 1.2369700006732327 Q10.879800232241248 6.677094298392216 7.025052615198202 13.253250007213207 M0.6556715774184988 1.2369700006732327 Q-0.5811124928156444 12.752095891805086 7.025052615198202 13.253250007213207" style="fill: rgba(89, 203, 52, 0.8);"></path></g></g>
</svg>
