<svg id="flower" xmlns="http://www.w3.org/2000/svg" preserveAspectRatio="xMidYMid slice" aria-labelledby="svgTitle svgDesc" role="img" viewBox="0 0 2000 2000" style="stroke-width: 1.5;"><rect x="0" y="0" width="2000" height="2000" style="fill: rgb(54, 102, 51);"></rect><g><g><path d="
				M 1000 1000
				Q 875 812.5 1000 625
				Q 1125 812.5 1000 1000 Z" transform="rotate(-21.411066292528936 1000 1000)" style="fill: rgb(112, 178, 120); stroke: rgb(33, 39, 33);"></path><path d="
				M 1000 1000
				Q 875 812.5 1000 625
				Q 1125 812.5 1000 1000 Z" transform="rotate(66.18606629252893 1000 1000)" style="fill: rgb(122, 186, 109); stroke: rgb(33, 39, 33);"></path><path d="
				M 1000 1000
				Q 875 812.5 1000 625
				Q 1125 812.5 1000 1000 Z" transform="rotate(110.96106629252894 1000 1000)" style="fill: rgb(101, 172, 93); stroke: rgb(33, 39, 33);"></path><path d="
				M 1000 1000
				Q 875 812.5 1000 625
				Q 1125 812.5 1000 1000 Z" transform="rotate(114.03893370747106 1000 1000)" style="fill: rgb(120, 182, 109); stroke: rgb(33, 39, 33);"></path><path d="
				M 1000 1000
				Q 875 812.5 1000 625
				Q 1125 812.5 1000 1000 Z" transform="rotate(201.18606629252895 1000 1000)" style="fill: rgb(101, 179, 97); stroke: rgb(33, 39, 33);"></path><path d="
				M 1000 1000
				Q 875 812.5 1000 625
				Q 1125 812.5 1000 1000 Z" transform="rotate(203.81393370747105 1000 1000)" style="fill: rgb(106, 180, 109); stroke: rgb(33, 39, 33);"></path><path d="
				M 1000 1000
				Q 875 812.5 1000 625
				Q 1125 812.5 1000 1000 Z" transform="rotate(291.18606629252895 1000 1000)" style="fill: rgb(103, 172, 98); stroke: rgb(33, 39, 33);"></path><path d="
				M 1000 1000
				Q 875 812.5 1000 625
				Q 1125 812.5 1000 1000 Z" transform="rotate(293.81393370747105 1000 1000)" style="fill: rgb(107, 176, 94); stroke: rgb(33, 39, 33);"></path></g><g><path d="
				M 1000 1000
				Q 906.25 870.625 1000 741.25
				Q 1093.75 870.625 1000 1000 Z" transform="rotate(43.686066292528935 1000 1000)" style="fill: rgb(93, 182, 99); stroke: rgb(33, 40, 34);"></path><path d="
				M 1000 1000
				Q 906.25 870.625 1000 741.25
				Q 1093.75 870.625 1000 1000 Z" transform="rotate(46.313933707471065 1000 1000)" style="fill: rgb(99, 176, 124); stroke: rgb(33, 40, 34);"></path><path d="
				M 1000 1000
				Q 906.25 870.625 1000 741.25
				Q 1093.75 870.625 1000 1000 Z" transform="rotate(133.68606629252895 1000 1000)" style="fill: rgb(113, 193, 132); stroke: rgb(33, 40, 34);"></path><path d="
				M 1000 1000
				Q 906.25 870.625 1000 741.25
				Q 1093.75 870.625 1000 1000 Z" transform="rotate(136.31393370747105 1000 1000)" style="fill: rgb(107, 179, 126); stroke: rgb(33, 40, 34);"></path><path d="
				M 1000 1000
				Q 906.25 870.625 1000 741.25
				Q 1093.75 870.625 1000 1000 Z" transform="rotate(181.53893370747107 1000 1000)" style="fill: rgb(109, 182, 120); stroke: rgb(33, 40, 34);"></path><path d="
				M 1000 1000
				Q 906.25 870.625 1000 741.25
				Q 1093.75 870.625 1000 1000 Z" transform="rotate(226.53893370747107 1000 1000)" style="fill: rgb(113, 188, 130); stroke: rgb(33, 40, 34);"></path><path d="
				M 1000 1000
				Q 906.25 870.625 1000 741.25
				Q 1093.75 870.625 1000 1000 Z" transform="rotate(313.4610662925289 1000 1000)" style="fill: rgb(102, 183, 117); stroke: rgb(33, 40, 34);"></path><path d="
				M 1000 1000
				Q 906.25 870.625 1000 741.25
				Q 1093.75 870.625 1000 1000 Z" transform="rotate(358.4610662925289 1000 1000)" style="fill: rgb(91, 185, 106); stroke: rgb(33, 40, 34);"></path></g><g><path d="
				M 1000 1000
				Q 929.6875 910.73125 1000 821.4625000000001
				Q 1070.3125 910.73125 1000 1000 Z" transform="rotate(24.038933707471063 1000 1000)" style="fill: rgb(101, 189, 159); stroke: rgb(33, 41, 37);"></path><path d="
				M 1000 1000
				Q 929.6875 910.73125 1000 821.4625000000001
				Q 1070.3125 910.73125 1000 1000 Z" transform="rotate(110.96106629252894 1000 1000)" style="fill: rgb(88, 187, 141); stroke: rgb(33, 41, 37);"></path><path d="
				M 1000 1000
				Q 929.6875 910.73125 1000 821.4625000000001
				Q 1070.3125 910.73125 1000 1000 Z" transform="rotate(156.41106629252894 1000 1000)" style="fill: rgb(108, 188, 141); stroke: rgb(33, 41, 37);"></path><path d="
				M 1000 1000
				Q 929.6875 910.73125 1000 821.4625000000001
				Q 1070.3125 910.73125 1000 1000 Z" transform="rotate(200.96106629252893 1000 1000)" style="fill: rgb(123, 193, 145); stroke: rgb(33, 41, 37);"></path><path d="
				M 1000 1000
				Q 929.6875 910.73125 1000 821.4625000000001
				Q 1070.3125 910.73125 1000 1000 Z" transform="rotate(246.18606629252895 1000 1000)" style="fill: rgb(100, 180, 150); stroke: rgb(33, 41, 37);"></path><path d="
				M 1000 1000
				Q 929.6875 910.73125 1000 821.4625000000001
				Q 1070.3125 910.73125 1000 1000 Z" transform="rotate(290.9610662925289 1000 1000)" style="fill: rgb(90, 186, 126); stroke: rgb(33, 41, 37);"></path><path d="
				M 1000 1000
				Q 929.6875 910.73125 1000 821.4625000000001
				Q 1070.3125 910.73125 1000 1000 Z" transform="rotate(293.81393370747105 1000 1000)" style="fill: rgb(120, 196, 166); stroke: rgb(33, 41, 37);"></path><path d="
				M 1000 1000
				Q 929.6875 910.73125 1000 821.4625000000001
				Q 1070.3125 910.73125 1000 1000 Z" transform="rotate(338.81393370747105 1000 1000)" style="fill: rgb(118, 193, 158); stroke: rgb(33, 41, 37);"></path></g><g><path d="
				M 1000 1000
				Q 947.265625 938.4045625 1000 876.809125
				Q 1052.734375 938.4045625 1000 1000 Z" transform="rotate(46.53893370747106 1000 1000)" style="fill: rgb(118, 193, 178); stroke: rgb(34, 42, 40);"></path><path d="
				M 1000 1000
				Q 947.265625 938.4045625 1000 876.809125
				Q 1052.734375 938.4045625 1000 1000 Z" transform="rotate(91.53893370747106 1000 1000)" style="fill: rgb(104, 196, 184); stroke: rgb(34, 42, 40);"></path><path d="
				M 1000 1000
				Q 947.265625 938.4045625 1000 876.809125
				Q 1052.734375 938.4045625 1000 1000 Z" transform="rotate(178.46106629252893 1000 1000)" style="fill: rgb(95, 191, 181); stroke: rgb(34, 42, 40);"></path><path d="
				M 1000 1000
				Q 947.265625 938.4045625 1000 876.809125
				Q 1052.734375 938.4045625 1000 1000 Z" transform="rotate(181.31393370747105 1000 1000)" style="fill: rgb(93, 187, 151); stroke: rgb(34, 42, 40);"></path><path d="
				M 1000 1000
				Q 947.265625 938.4045625 1000 876.809125
				Q 1052.734375 938.4045625 1000 1000 Z" transform="rotate(268.9110662925289 1000 1000)" style="fill: rgb(100, 190, 180); stroke: rgb(34, 42, 40);"></path><path d="
				M 1000 1000
				Q 947.265625 938.4045625 1000 876.809125
				Q 1052.734375 938.4045625 1000 1000 Z" transform="rotate(271.5389337074711 1000 1000)" style="fill: rgb(111, 190, 162); stroke: rgb(34, 42, 40);"></path><path d="
				M 1000 1000
				Q 947.265625 938.4045625 1000 876.809125
				Q 1052.734375 938.4045625 1000 1000 Z" transform="rotate(316.31393370747105 1000 1000)" style="fill: rgb(94, 186, 168); stroke: rgb(34, 42, 40);"></path><path d="
				M 1000 1000
				Q 947.265625 938.4045625 1000 876.809125
				Q 1052.734375 938.4045625 1000 1000 Z" transform="rotate(361.5389337074711 1000 1000)" style="fill: rgb(116, 195, 175); stroke: rgb(34, 42, 40);"></path></g><g><path d="
				M 1000 1000
				Q 960.44921875 957.499148125 1000 914.9982962500001
				Q 1039.55078125 957.499148125 1000 1000 Z" transform="rotate(68.81393370747107 1000 1000)" style="fill: rgb(114, 197, 190); stroke: rgb(34, 42, 43);"></path><path d="
				M 1000 1000
				Q 960.44921875 957.499148125 1000 914.9982962500001
				Q 1039.55078125 957.499148125 1000 1000 Z" transform="rotate(155.96106629252893 1000 1000)" style="fill: rgb(111, 200, 197); stroke: rgb(34, 42, 43);"></path><path d="
				M 1000 1000
				Q 960.44921875 957.499148125 1000 914.9982962500001
				Q 1039.55078125 957.499148125 1000 1000 Z" transform="rotate(159.03893370747107 1000 1000)" style="fill: rgb(122, 193, 205); stroke: rgb(34, 42, 43);"></path><path d="
				M 1000 1000
				Q 960.44921875 957.499148125 1000 914.9982962500001
				Q 1039.55078125 957.499148125 1000 1000 Z" transform="rotate(246.18606629252895 1000 1000)" style="fill: rgb(121, 200, 188); stroke: rgb(34, 42, 43);"></path><path d="
				M 1000 1000
				Q 960.44921875 957.499148125 1000 914.9982962500001
				Q 1039.55078125 957.499148125 1000 1000 Z" transform="rotate(291.4110662925289 1000 1000)" style="fill: rgb(114, 183, 197); stroke: rgb(34, 42, 43);"></path><path d="
				M 1000 1000
				Q 960.44921875 957.499148125 1000 914.9982962500001
				Q 1039.55078125 957.499148125 1000 1000 Z" transform="rotate(294.0389337074711 1000 1000)" style="fill: rgb(120, 199, 201); stroke: rgb(34, 42, 43);"></path><path d="
				M 1000 1000
				Q 960.44921875 957.499148125 1000 914.9982962500001
				Q 1039.55078125 957.499148125 1000 1000 Z" transform="rotate(339.0389337074711 1000 1000)" style="fill: rgb(118, 199, 208); stroke: rgb(34, 42, 43);"></path><path d="
				M 1000 1000
				Q 960.44921875 957.499148125 1000 914.9982962500001
				Q 1039.55078125 957.499148125 1000 1000 Z" transform="rotate(425.9610662925289 1000 1000)" style="fill: rgb(113, 194, 198); stroke: rgb(34, 42, 43);"></path></g><g><path d="
				M 1000 1000
				Q 970.3369140625 970.67441220625 1000 941.3488244125
				Q 1029.6630859375 970.67441220625 1000 1000 Z" transform="rotate(91.53893370747106 1000 1000)" style="fill: rgb(95, 154, 196); stroke: rgb(34, 41, 44);"></path><path d="
				M 1000 1000
				Q 970.3369140625 970.67441220625 1000 941.3488244125
				Q 1029.6630859375 970.67441220625 1000 1000 Z" transform="rotate(136.53893370747107 1000 1000)" style="fill: rgb(123, 187, 209); stroke: rgb(34, 41, 44);"></path><path d="
				M 1000 1000
				Q 970.3369140625 970.67441220625 1000 941.3488244125
				Q 1029.6630859375 970.67441220625 1000 1000 Z" transform="rotate(223.46106629252893 1000 1000)" style="fill: rgb(105, 190, 201); stroke: rgb(34, 41, 44);"></path><path d="
				M 1000 1000
				Q 970.3369140625 970.67441220625 1000 941.3488244125
				Q 1029.6630859375 970.67441220625 1000 1000 Z" transform="rotate(226.31393370747105 1000 1000)" style="fill: rgb(102, 180, 204); stroke: rgb(34, 41, 44);"></path><path d="
				M 1000 1000
				Q 970.3369140625 970.67441220625 1000 941.3488244125
				Q 1029.6630859375 970.67441220625 1000 1000 Z" transform="rotate(271.5389337074711 1000 1000)" style="fill: rgb(126, 172, 206); stroke: rgb(34, 41, 44);"></path><path d="
				M 1000 1000
				Q 970.3369140625 970.67441220625 1000 941.3488244125
				Q 1029.6630859375 970.67441220625 1000 1000 Z" transform="rotate(358.9110662925289 1000 1000)" style="fill: rgb(115, 177, 206); stroke: rgb(34, 41, 44);"></path><path d="
				M 1000 1000
				Q 970.3369140625 970.67441220625 1000 941.3488244125
				Q 1029.6630859375 970.67441220625 1000 1000 Z" transform="rotate(403.68606629252895 1000 1000)" style="fill: rgb(118, 176, 203); stroke: rgb(34, 41, 44);"></path><path d="
				M 1000 1000
				Q 970.3369140625 970.67441220625 1000 941.3488244125
				Q 1029.6630859375 970.67441220625 1000 1000 Z" transform="rotate(406.31393370747105 1000 1000)" style="fill: rgb(109, 166, 202); stroke: rgb(34, 41, 44);"></path></g><g><path d="
				M 1000 1000
				Q 977.752685546875 979.7653444223125 1000 959.530688844625
				Q 1022.247314453125 979.7653444223125 1000 1000 Z" transform="rotate(156.18606629252895 1000 1000)" style="fill: rgb(105, 151, 201); stroke: rgb(34, 39, 45);"></path><path d="
				M 1000 1000
				Q 977.752685546875 979.7653444223125 1000 959.530688844625
				Q 1022.247314453125 979.7653444223125 1000 1000 Z" transform="rotate(201.18606629252895 1000 1000)" style="fill: rgb(108, 149, 203); stroke: rgb(34, 39, 45);"></path><path d="
				M 1000 1000
				Q 977.752685546875 979.7653444223125 1000 959.530688844625
				Q 1022.247314453125 979.7653444223125 1000 1000 Z" transform="rotate(204.03893370747107 1000 1000)" style="fill: rgb(123, 151, 209); stroke: rgb(34, 39, 45);"></path><path d="
				M 1000 1000
				Q 977.752685546875 979.7653444223125 1000 959.530688844625
				Q 1022.247314453125 979.7653444223125 1000 1000 Z" transform="rotate(248.81393370747105 1000 1000)" style="fill: rgb(103, 161, 208); stroke: rgb(34, 39, 45);"></path><path d="
				M 1000 1000
				Q 977.752685546875 979.7653444223125 1000 959.530688844625
				Q 1022.247314453125 979.7653444223125 1000 1000 Z" transform="rotate(294.0389337074711 1000 1000)" style="fill: rgb(111, 155, 206); stroke: rgb(34, 39, 45);"></path><path d="
				M 1000 1000
				Q 977.752685546875 979.7653444223125 1000 959.530688844625
				Q 1022.247314453125 979.7653444223125 1000 1000 Z" transform="rotate(338.81393370747105 1000 1000)" style="fill: rgb(102, 150, 204); stroke: rgb(34, 39, 45);"></path><path d="
				M 1000 1000
				Q 977.752685546875 979.7653444223125 1000 959.530688844625
				Q 1022.247314453125 979.7653444223125 1000 1000 Z" transform="rotate(426.18606629252895 1000 1000)" style="fill: rgb(109, 145, 208); stroke: rgb(34, 39, 45);"></path><path d="
				M 1000 1000
				Q 977.752685546875 979.7653444223125 1000 959.530688844625
				Q 1022.247314453125 979.7653444223125 1000 1000 Z" transform="rotate(428.81393370747105 1000 1000)" style="fill: rgb(95, 137, 200); stroke: rgb(34, 39, 45);"></path></g><g><path d="
				M 1000 1000
				Q 983.3145141601562 986.0380876513956 1000 972.0761753027913
				Q 1016.6854858398438 986.0380876513956 1000 1000 Z" transform="rotate(136.31393370747105 1000 1000)" style="fill: rgb(119, 149, 212); stroke: rgb(35, 37, 46);"></path><path d="
				M 1000 1000
				Q 983.3145141601562 986.0380876513956 1000 972.0761753027913
				Q 1016.6854858398438 986.0380876513956 1000 1000 Z" transform="rotate(181.53893370747107 1000 1000)" style="fill: rgb(100, 125, 206); stroke: rgb(35, 37, 46);"></path><path d="
				M 1000 1000
				Q 983.3145141601562 986.0380876513956 1000 972.0761753027913
				Q 1016.6854858398438 986.0380876513956 1000 1000 Z" transform="rotate(226.53893370747107 1000 1000)" style="fill: rgb(102, 138, 204); stroke: rgb(35, 37, 46);"></path><path d="
				M 1000 1000
				Q 983.3145141601562 986.0380876513956 1000 972.0761753027913
				Q 1016.6854858398438 986.0380876513956 1000 1000 Z" transform="rotate(313.4610662925289 1000 1000)" style="fill: rgb(100, 111, 206); stroke: rgb(35, 37, 46);"></path><path d="
				M 1000 1000
				Q 983.3145141601562 986.0380876513956 1000 972.0761753027913
				Q 1016.6854858398438 986.0380876513956 1000 1000 Z" transform="rotate(316.31393370747105 1000 1000)" style="fill: rgb(112, 115, 210); stroke: rgb(35, 37, 46);"></path><path d="
				M 1000 1000
				Q 983.3145141601562 986.0380876513956 1000 972.0761753027913
				Q 1016.6854858398438 986.0380876513956 1000 1000 Z" transform="rotate(403.68606629252895 1000 1000)" style="fill: rgb(103, 113, 208); stroke: rgb(35, 37, 46);"></path><path d="
				M 1000 1000
				Q 983.3145141601562 986.0380876513956 1000 972.0761753027913
				Q 1016.6854858398438 986.0380876513956 1000 1000 Z" transform="rotate(448.4610662925289 1000 1000)" style="fill: rgb(97, 99, 209); stroke: rgb(35, 37, 46);"></path><path d="
				M 1000 1000
				Q 983.3145141601562 986.0380876513956 1000 972.0761753027913
				Q 1016.6854858398438 986.0380876513956 1000 1000 Z" transform="rotate(493.4610662925289 1000 1000)" style="fill: rgb(121, 148, 215); stroke: rgb(35, 37, 46);"></path></g><g><path d="
				M 1000 1000
				Q 987.4858856201172 990.366280479463 1000 980.732560958926
				Q 1012.5141143798828 990.366280479463 1000 1000 Z" transform="rotate(200.96106629252893 1000 1000)" style="fill: rgb(130, 114, 218); stroke: rgb(36, 35, 47);"></path><path d="
				M 1000 1000
				Q 987.4858856201172 990.366280479463 1000 980.732560958926
				Q 1012.5141143798828 990.366280479463 1000 1000 Z" transform="rotate(204.03893370747107 1000 1000)" style="fill: rgb(147, 127, 220); stroke: rgb(36, 35, 47);"></path><path d="
				M 1000 1000
				Q 987.4858856201172 990.366280479463 1000 980.732560958926
				Q 1012.5141143798828 990.366280479463 1000 1000 Z" transform="rotate(290.9610662925289 1000 1000)" style="fill: rgb(129, 100, 216); stroke: rgb(36, 35, 47);"></path><path d="
				M 1000 1000
				Q 987.4858856201172 990.366280479463 1000 980.732560958926
				Q 1012.5141143798828 990.366280479463 1000 1000 Z" transform="rotate(293.81393370747105 1000 1000)" style="fill: rgb(94, 100, 212); stroke: rgb(36, 35, 47);"></path><path d="
				M 1000 1000
				Q 987.4858856201172 990.366280479463 1000 980.732560958926
				Q 1012.5141143798828 990.366280479463 1000 1000 Z" transform="rotate(381.4110662925289 1000 1000)" style="fill: rgb(94, 94, 212); stroke: rgb(36, 35, 47);"></path><path d="
				M 1000 1000
				Q 987.4858856201172 990.366280479463 1000 980.732560958926
				Q 1012.5141143798828 990.366280479463 1000 1000 Z" transform="rotate(383.81393370747105 1000 1000)" style="fill: rgb(115, 121, 212); stroke: rgb(36, 35, 47);"></path><path d="
				M 1000 1000
				Q 987.4858856201172 990.366280479463 1000 980.732560958926
				Q 1012.5141143798828 990.366280479463 1000 1000 Z" transform="rotate(471.18606629252895 1000 1000)" style="fill: rgb(124, 120, 221); stroke: rgb(36, 35, 47);"></path><path d="
				M 1000 1000
				Q 987.4858856201172 990.366280479463 1000 980.732560958926
				Q 1012.5141143798828 990.366280479463 1000 1000 Z" transform="rotate(474.0389337074711 1000 1000)" style="fill: rgb(149, 130, 217); stroke: rgb(36, 35, 47);"></path></g><g><path d="
				M 1000 1000
				Q 990.6144142150879 993.3527335308295 1000 986.705467061659
				Q 1009.3855857849121 993.3527335308295 1000 1000 Z" transform="rotate(223.46106629252893 1000 1000)" style="fill: rgb(153, 126, 226); stroke: rgb(40, 35, 48);"></path><path d="
				M 1000 1000
				Q 990.6144142150879 993.3527335308295 1000 986.705467061659
				Q 1009.3855857849121 993.3527335308295 1000 1000 Z" transform="rotate(226.53893370747107 1000 1000)" style="fill: rgb(173, 121, 220); stroke: rgb(40, 35, 48);"></path><path d="
				M 1000 1000
				Q 990.6144142150879 993.3527335308295 1000 986.705467061659
				Q 1009.3855857849121 993.3527335308295 1000 1000 Z" transform="rotate(313.68606629252895 1000 1000)" style="fill: rgb(162, 113, 218); stroke: rgb(40, 35, 48);"></path><path d="
				M 1000 1000
				Q 990.6144142150879 993.3527335308295 1000 986.705467061659
				Q 1009.3855857849121 993.3527335308295 1000 1000 Z" transform="rotate(358.4610662925289 1000 1000)" style="fill: rgb(167, 126, 221); stroke: rgb(40, 35, 48);"></path><path d="
				M 1000 1000
				Q 990.6144142150879 993.3527335308295 1000 986.705467061659
				Q 1009.3855857849121 993.3527335308295 1000 1000 Z" transform="rotate(403.4610662925289 1000 1000)" style="fill: rgb(155, 119, 218); stroke: rgb(40, 35, 48);"></path><path d="
				M 1000 1000
				Q 990.6144142150879 993.3527335308295 1000 986.705467061659
				Q 1009.3855857849121 993.3527335308295 1000 1000 Z" transform="rotate(406.31393370747105 1000 1000)" style="fill: rgb(163, 102, 219); stroke: rgb(40, 35, 48);"></path><path d="
				M 1000 1000
				Q 990.6144142150879 993.3527335308295 1000 986.705467061659
				Q 1009.3855857849121 993.3527335308295 1000 1000 Z" transform="rotate(493.68606629252895 1000 1000)" style="fill: rgb(137, 114, 223); stroke: rgb(40, 35, 48);"></path><path d="
				M 1000 1000
				Q 990.6144142150879 993.3527335308295 1000 986.705467061659
				Q 1009.3855857849121 993.3527335308295 1000 1000 Z" transform="rotate(496.5389337074711 1000 1000)" style="fill: rgb(134, 104, 217); stroke: rgb(40, 35, 48);"></path></g><g><path d="
				M 1000 1000
				Q 992.9608106613159 995.4133861362724 1000 990.8267722725446
				Q 1007.0391893386841 995.4133861362724 1000 1000 Z" transform="rotate(203.81393370747105 1000 1000)" style="fill: rgb(178, 107, 219); stroke: rgb(44, 35, 49);"></path><path d="
				M 1000 1000
				Q 992.9608106613159 995.4133861362724 1000 990.8267722725446
				Q 1007.0391893386841 995.4133861362724 1000 1000 Z" transform="rotate(248.81393370747105 1000 1000)" style="fill: rgb(203, 132, 225); stroke: rgb(44, 35, 49);"></path><path d="
				M 1000 1000
				Q 992.9608106613159 995.4133861362724 1000 990.8267722725446
				Q 1007.0391893386841 995.4133861362724 1000 1000 Z" transform="rotate(335.9610662925289 1000 1000)" style="fill: rgb(192, 122, 225); stroke: rgb(44, 35, 49);"></path><path d="
				M 1000 1000
				Q 992.9608106613159 995.4133861362724 1000 990.8267722725446
				Q 1007.0391893386841 995.4133861362724 1000 1000 Z" transform="rotate(338.81393370747105 1000 1000)" style="fill: rgb(179, 127, 225); stroke: rgb(44, 35, 49);"></path><path d="
				M 1000 1000
				Q 992.9608106613159 995.4133861362724 1000 990.8267722725446
				Q 1007.0391893386841 995.4133861362724 1000 1000 Z" transform="rotate(384.0389337074711 1000 1000)" style="fill: rgb(205, 128, 229); stroke: rgb(44, 35, 49);"></path><path d="
				M 1000 1000
				Q 992.9608106613159 995.4133861362724 1000 990.8267722725446
				Q 1007.0391893386841 995.4133861362724 1000 1000 Z" transform="rotate(471.18606629252895 1000 1000)" style="fill: rgb(195, 129, 223); stroke: rgb(44, 35, 49);"></path><path d="
				M 1000 1000
				Q 992.9608106613159 995.4133861362724 1000 990.8267722725446
				Q 1007.0391893386841 995.4133861362724 1000 1000 Z" transform="rotate(474.0389337074711 1000 1000)" style="fill: rgb(188, 94, 222); stroke: rgb(44, 35, 49);"></path><path d="
				M 1000 1000
				Q 992.9608106613159 995.4133861362724 1000 990.8267722725446
				Q 1007.0391893386841 995.4133861362724 1000 1000 Z" transform="rotate(518.813933707471 1000 1000)" style="fill: rgb(184, 120, 221); stroke: rgb(44, 35, 49);"></path></g><g><path d="
				M 1000 1000
				Q 994.7206079959869 996.8352364340279 1000 993.6704728680559
				Q 1005.2793920040131 996.8352364340279 1000 1000 Z" transform="rotate(268.68606629252895 1000 1000)" style="fill: rgb(226, 96, 221); stroke: rgb(48, 36, 50);"></path><path d="
				M 1000 1000
				Q 994.7206079959869 996.8352364340279 1000 993.6704728680559
				Q 1005.2793920040131 996.8352364340279 1000 1000 Z" transform="rotate(313.68606629252895 1000 1000)" style="fill: rgb(201, 121, 230); stroke: rgb(48, 36, 50);"></path><path d="
				M 1000 1000
				Q 994.7206079959869 996.8352364340279 1000 993.6704728680559
				Q 1005.2793920040131 996.8352364340279 1000 1000 Z" transform="rotate(316.5389337074711 1000 1000)" style="fill: rgb(211, 97, 224); stroke: rgb(48, 36, 50);"></path><path d="
				M 1000 1000
				Q 994.7206079959869 996.8352364340279 1000 993.6704728680559
				Q 1005.2793920040131 996.8352364340279 1000 1000 Z" transform="rotate(361.31393370747105 1000 1000)" style="fill: rgb(204, 124, 228); stroke: rgb(48, 36, 50);"></path><path d="
				M 1000 1000
				Q 994.7206079959869 996.8352364340279 1000 993.6704728680559
				Q 1005.2793920040131 996.8352364340279 1000 1000 Z" transform="rotate(448.68606629252895 1000 1000)" style="fill: rgb(211, 118, 224); stroke: rgb(48, 36, 50);"></path><path d="
				M 1000 1000
				Q 994.7206079959869 996.8352364340279 1000 993.6704728680559
				Q 1005.2793920040131 996.8352364340279 1000 1000 Z" transform="rotate(451.5389337074711 1000 1000)" style="fill: rgb(221, 100, 215); stroke: rgb(48, 36, 50);"></path><path d="
				M 1000 1000
				Q 994.7206079959869 996.8352364340279 1000 993.6704728680559
				Q 1005.2793920040131 996.8352364340279 1000 1000 Z" transform="rotate(538.4610662925289 1000 1000)" style="fill: rgb(230, 125, 232); stroke: rgb(48, 36, 50);"></path><path d="
				M 1000 1000
				Q 994.7206079959869 996.8352364340279 1000 993.6704728680559
				Q 1005.2793920040131 996.8352364340279 1000 1000 Z" transform="rotate(541.313933707471 1000 1000)" style="fill: rgb(193, 104, 222); stroke: rgb(48, 36, 50);"></path></g><g><path d="
				M 1000 1000
				Q 996.0404559969902 997.8163131394792 1000 995.6326262789585
				Q 1003.9595440030098 997.8163131394792 1000 1000 Z" transform="rotate(291.18606629252895 1000 1000)" style="fill: rgb(230, 121, 201); stroke: rgb(51, 36, 49);"></path><path d="
				M 1000 1000
				Q 996.0404559969902 997.8163131394792 1000 995.6326262789585
				Q 1003.9595440030098 997.8163131394792 1000 1000 Z" transform="rotate(294.0389337074711 1000 1000)" style="fill: rgb(232, 120, 217); stroke: rgb(51, 36, 49);"></path><path d="
				M 1000 1000
				Q 996.0404559969902 997.8163131394792 1000 995.6326262789585
				Q 1003.9595440030098 997.8163131394792 1000 1000 Z" transform="rotate(381.18606629252895 1000 1000)" style="fill: rgb(231, 110, 221); stroke: rgb(51, 36, 49);"></path><path d="
				M 1000 1000
				Q 996.0404559969902 997.8163131394792 1000 995.6326262789585
				Q 1003.9595440030098 997.8163131394792 1000 1000 Z" transform="rotate(383.81393370747105 1000 1000)" style="fill: rgb(231, 126, 227); stroke: rgb(51, 36, 49);"></path><path d="
				M 1000 1000
				Q 996.0404559969902 997.8163131394792 1000 995.6326262789585
				Q 1003.9595440030098 997.8163131394792 1000 1000 Z" transform="rotate(471.18606629252895 1000 1000)" style="fill: rgb(229, 123, 213); stroke: rgb(51, 36, 49);"></path><path d="
				M 1000 1000
				Q 996.0404559969902 997.8163131394792 1000 995.6326262789585
				Q 1003.9595440030098 997.8163131394792 1000 1000 Z" transform="rotate(515.9610662925289 1000 1000)" style="fill: rgb(232, 130, 213); stroke: rgb(51, 36, 49);"></path><path d="
				M 1000 1000
				Q 996.0404559969902 997.8163131394792 1000 995.6326262789585
				Q 1003.9595440030098 997.8163131394792 1000 1000 Z" transform="rotate(519.0389337074711 1000 1000)" style="fill: rgb(231, 131, 215); stroke: rgb(51, 36, 49);"></path><path d="
				M 1000 1000
				Q 996.0404559969902 997.8163131394792 1000 995.6326262789585
				Q 1003.9595440030098 997.8163131394792 1000 1000 Z" transform="rotate(605.9610662925289 1000 1000)" style="fill: rgb(233, 134, 218); stroke: rgb(51, 36, 49);"></path></g><g><path d="
				M 1000 1000
				Q 997.0303419977427 998.4932560662406 1000 996.9865121324814
				Q 1002.9696580022573 998.4932560662406 1000 1000 Z" transform="rotate(313.68606629252895 1000 1000)" style="fill: rgb(231, 121, 167); stroke: rgb(52, 36, 45);"></path><path d="
				M 1000 1000
				Q 997.0303419977427 998.4932560662406 1000 996.9865121324814
				Q 1002.9696580022573 998.4932560662406 1000 1000 Z" transform="rotate(358.4610662925289 1000 1000)" style="fill: rgb(235, 137, 185); stroke: rgb(52, 36, 45);"></path><path d="
				M 1000 1000
				Q 997.0303419977427 998.4932560662406 1000 996.9865121324814
				Q 1002.9696580022573 998.4932560662406 1000 1000 Z" transform="rotate(403.4610662925289 1000 1000)" style="fill: rgb(236, 131, 180); stroke: rgb(52, 36, 45);"></path><path d="
				M 1000 1000
				Q 997.0303419977427 998.4932560662406 1000 996.9865121324814
				Q 1002.9696580022573 998.4932560662406 1000 1000 Z" transform="rotate(448.68606629252895 1000 1000)" style="fill: rgb(232, 135, 177); stroke: rgb(52, 36, 45);"></path><path d="
				M 1000 1000
				Q 997.0303419977427 998.4932560662406 1000 996.9865121324814
				Q 1002.9696580022573 998.4932560662406 1000 1000 Z" transform="rotate(493.4610662925289 1000 1000)" style="fill: rgb(237, 130, 184); stroke: rgb(52, 36, 45);"></path><path d="
				M 1000 1000
				Q 997.0303419977427 998.4932560662406 1000 996.9865121324814
				Q 1002.9696580022573 998.4932560662406 1000 1000 Z" transform="rotate(538.686066292529 1000 1000)" style="fill: rgb(227, 109, 190); stroke: rgb(52, 36, 45);"></path><path d="
				M 1000 1000
				Q 997.0303419977427 998.4932560662406 1000 996.9865121324814
				Q 1002.9696580022573 998.4932560662406 1000 1000 Z" transform="rotate(583.4610662925289 1000 1000)" style="fill: rgb(229, 113, 184); stroke: rgb(52, 36, 45);"></path><path d="
				M 1000 1000
				Q 997.0303419977427 998.4932560662406 1000 996.9865121324814
				Q 1002.9696580022573 998.4932560662406 1000 1000 Z" transform="rotate(586.5389337074711 1000 1000)" style="fill: rgb(234, 113, 169); stroke: rgb(52, 36, 45);"></path></g><g><path d="
				M 1000 1000
				Q 997.772756498307 998.9603466857061 1000 997.9206933714122
				Q 1002.227243501693 998.9603466857061 1000 1000 Z" transform="rotate(293.81393370747105 1000 1000)" style="fill: rgb(237, 104, 124); stroke: rgb(53, 36, 42);"></path><path d="
				M 1000 1000
				Q 997.772756498307 998.9603466857061 1000 997.9206933714122
				Q 1002.227243501693 998.9603466857061 1000 1000 Z" transform="rotate(381.18606629252895 1000 1000)" style="fill: rgb(233, 124, 169); stroke: rgb(53, 36, 42);"></path><path d="
				M 1000 1000
				Q 997.772756498307 998.9603466857061 1000 997.9206933714122
				Q 1002.227243501693 998.9603466857061 1000 1000 Z" transform="rotate(384.0389337074711 1000 1000)" style="fill: rgb(230, 107, 148); stroke: rgb(53, 36, 42);"></path><path d="
				M 1000 1000
				Q 997.772756498307 998.9603466857061 1000 997.9206933714122
				Q 1002.227243501693 998.9603466857061 1000 1000 Z" transform="rotate(471.18606629252895 1000 1000)" style="fill: rgb(235, 122, 173); stroke: rgb(53, 36, 42);"></path><path d="
				M 1000 1000
				Q 997.772756498307 998.9603466857061 1000 997.9206933714122
				Q 1002.227243501693 998.9603466857061 1000 1000 Z" transform="rotate(473.81393370747105 1000 1000)" style="fill: rgb(233, 124, 162); stroke: rgb(53, 36, 42);"></path><path d="
				M 1000 1000
				Q 997.772756498307 998.9603466857061 1000 997.9206933714122
				Q 1002.227243501693 998.9603466857061 1000 1000 Z" transform="rotate(560.9610662925289 1000 1000)" style="fill: rgb(238, 139, 172); stroke: rgb(53, 36, 42);"></path><path d="
				M 1000 1000
				Q 997.772756498307 998.9603466857061 1000 997.9206933714122
				Q 1002.227243501693 998.9603466857061 1000 1000 Z" transform="rotate(563.813933707471 1000 1000)" style="fill: rgb(232, 104, 136); stroke: rgb(53, 36, 42);"></path><path d="
				M 1000 1000
				Q 997.772756498307 998.9603466857061 1000 997.9206933714122
				Q 1002.227243501693 998.9603466857061 1000 1000 Z" transform="rotate(650.9610662925289 1000 1000)" style="fill: rgb(235, 127, 143); stroke: rgb(53, 36, 42);"></path></g><g><path d="
				M 1000 1000
				Q 998.3295673737302 999.2826392131371 1000 998.5652784262744
				Q 1001.6704326262698 999.2826392131371 1000 1000 Z" transform="rotate(316.31393370747105 1000 1000)" style="fill: rgb(240, 113, 102); stroke: rgb(54, 36, 37);"></path><path d="
				M 1000 1000
				Q 998.3295673737302 999.2826392131371 1000 998.5652784262744
				Q 1001.6704326262698 999.2826392131371 1000 1000 Z" transform="rotate(361.5389337074711 1000 1000)" style="fill: rgb(241, 126, 136); stroke: rgb(54, 36, 37);"></path><path d="
				M 1000 1000
				Q 998.3295673737302 999.2826392131371 1000 998.5652784262744
				Q 1001.6704326262698 999.2826392131371 1000 1000 Z" transform="rotate(406.5389337074711 1000 1000)" style="fill: rgb(240, 136, 122); stroke: rgb(54, 36, 37);"></path><path d="
				M 1000 1000
				Q 998.3295673737302 999.2826392131371 1000 998.5652784262744
				Q 1001.6704326262698 999.2826392131371 1000 1000 Z" transform="rotate(493.4610662925289 1000 1000)" style="fill: rgb(237, 130, 125); stroke: rgb(54, 36, 37);"></path><path d="
				M 1000 1000
				Q 998.3295673737302 999.2826392131371 1000 998.5652784262744
				Q 1001.6704326262698 999.2826392131371 1000 1000 Z" transform="rotate(496.31393370747105 1000 1000)" style="fill: rgb(235, 111, 136); stroke: rgb(54, 36, 37);"></path><path d="
				M 1000 1000
				Q 998.3295673737302 999.2826392131371 1000 998.5652784262744
				Q 1001.6704326262698 999.2826392131371 1000 1000 Z" transform="rotate(541.5389337074711 1000 1000)" style="fill: rgb(241, 111, 131); stroke: rgb(54, 36, 37);"></path><path d="
				M 1000 1000
				Q 998.3295673737302 999.2826392131371 1000 998.5652784262744
				Q 1001.6704326262698 999.2826392131371 1000 1000 Z" transform="rotate(586.313933707471 1000 1000)" style="fill: rgb(243, 143, 134); stroke: rgb(54, 36, 37);"></path><path d="
				M 1000 1000
				Q 998.3295673737302 999.2826392131371 1000 998.5652784262744
				Q 1001.6704326262698 999.2826392131371 1000 1000 Z" transform="rotate(673.4610662925289 1000 1000)" style="fill: rgb(240, 132, 150); stroke: rgb(54, 36, 37);"></path></g><g><path d="
				M 1000 1000
				Q 998.7471755302977 999.5050210570647 1000 999.0100421141293
				Q 1001.2528244697023 999.5050210570647 1000 1000 Z" transform="rotate(338.81393370747105 1000 1000)" style="fill: rgb(238, 155, 114); stroke: rgb(55, 41, 37);"></path><path d="
				M 1000 1000
				Q 998.7471755302977 999.5050210570647 1000 999.0100421141293
				Q 1001.2528244697023 999.5050210570647 1000 1000 Z" transform="rotate(383.5889337074711 1000 1000)" style="fill: rgb(243, 176, 145); stroke: rgb(55, 41, 37);"></path><path d="
				M 1000 1000
				Q 998.7471755302977 999.5050210570647 1000 999.0100421141293
				Q 1001.2528244697023 999.5050210570647 1000 1000 Z" transform="rotate(470.9610662925289 1000 1000)" style="fill: rgb(244, 158, 139); stroke: rgb(55, 41, 37);"></path><path d="
				M 1000 1000
				Q 998.7471755302977 999.5050210570647 1000 999.0100421141293
				Q 1001.2528244697023 999.5050210570647 1000 1000 Z" transform="rotate(515.9610662925289 1000 1000)" style="fill: rgb(242, 140, 115); stroke: rgb(55, 41, 37);"></path><path d="
				M 1000 1000
				Q 998.7471755302977 999.5050210570647 1000 999.0100421141293
				Q 1001.2528244697023 999.5050210570647 1000 1000 Z" transform="rotate(560.9610662925289 1000 1000)" style="fill: rgb(245, 170, 138); stroke: rgb(55, 41, 37);"></path><path d="
				M 1000 1000
				Q 998.7471755302977 999.5050210570647 1000 999.0100421141293
				Q 1001.2528244697023 999.5050210570647 1000 1000 Z" transform="rotate(606.411066292529 1000 1000)" style="fill: rgb(244, 145, 118); stroke: rgb(55, 41, 37);"></path><path d="
				M 1000 1000
				Q 998.7471755302977 999.5050210570647 1000 999.0100421141293
				Q 1001.2528244697023 999.5050210570647 1000 1000 Z" transform="rotate(608.588933707471 1000 1000)" style="fill: rgb(245, 171, 137); stroke: rgb(55, 41, 37);"></path><path d="
				M 1000 1000
				Q 998.7471755302977 999.5050210570647 1000 999.0100421141293
				Q 1001.2528244697023 999.5050210570647 1000 1000 Z" transform="rotate(696.186066292529 1000 1000)" style="fill: rgb(241, 132, 126); stroke: rgb(55, 41, 37);"></path></g><g><path d="
				M 1000 1000
				Q 999.0603816477233 999.6584645293747 1000 999.3169290587492
				Q 1000.9396183522767 999.6584645293747 1000 1000 Z" transform="rotate(361.31393370747105 1000 1000)" style="fill: rgb(242, 167, 120); stroke: rgb(56, 46, 37);"></path><path d="
				M 1000 1000
				Q 999.0603816477233 999.6584645293747 1000 999.3169290587492
				Q 1000.9396183522767 999.6584645293747 1000 1000 Z" transform="rotate(448.68606629252895 1000 1000)" style="fill: rgb(240, 184, 112); stroke: rgb(56, 46, 37);"></path><path d="
				M 1000 1000
				Q 999.0603816477233 999.6584645293747 1000 999.3169290587492
				Q 1000.9396183522767 999.6584645293747 1000 1000 Z" transform="rotate(451.31393370747105 1000 1000)" style="fill: rgb(246, 185, 132); stroke: rgb(56, 46, 37);"></path><path d="
				M 1000 1000
				Q 999.0603816477233 999.6584645293747 1000 999.3169290587492
				Q 1000.9396183522767 999.6584645293747 1000 1000 Z" transform="rotate(538.4610662925289 1000 1000)" style="fill: rgb(244, 198, 133); stroke: rgb(56, 46, 37);"></path><path d="
				M 1000 1000
				Q 999.0603816477233 999.6584645293747 1000 999.3169290587492
				Q 1000.9396183522767 999.6584645293747 1000 1000 Z" transform="rotate(541.5389337074711 1000 1000)" style="fill: rgb(244, 170, 113); stroke: rgb(56, 46, 37);"></path><path d="
				M 1000 1000
				Q 999.0603816477233 999.6584645293747 1000 999.3169290587492
				Q 1000.9396183522767 999.6584645293747 1000 1000 Z" transform="rotate(586.5389337074711 1000 1000)" style="fill: rgb(243, 170, 114); stroke: rgb(56, 46, 37);"></path><path d="
				M 1000 1000
				Q 999.0603816477233 999.6584645293747 1000 999.3169290587492
				Q 1000.9396183522767 999.6584645293747 1000 1000 Z" transform="rotate(673.4610662925289 1000 1000)" style="fill: rgb(241, 193, 111); stroke: rgb(56, 46, 37);"></path><path d="
				M 1000 1000
				Q 999.0603816477233 999.6584645293747 1000 999.3169290587492
				Q 1000.9396183522767 999.6584645293747 1000 1000 Z" transform="rotate(676.088933707471 1000 1000)" style="fill: rgb(240, 172, 117); stroke: rgb(56, 46, 37);"></path></g><g><path d="
				M 1000 1000
				Q 999.2952862357924 999.7643405252685 1000 999.528681050537
				Q 1000.7047137642076 999.7643405252685 1000 1000 Z" transform="rotate(384.0389337074711 1000 1000)" style="fill: rgb(250, 235, 143); stroke: rgb(57, 52, 37);"></path><path d="
				M 1000 1000
				Q 999.2952862357924 999.7643405252685 1000 999.528681050537
				Q 1000.7047137642076 999.7643405252685 1000 1000 Z" transform="rotate(470.9610662925289 1000 1000)" style="fill: rgb(247, 224, 110); stroke: rgb(57, 52, 37);"></path><path d="
				M 1000 1000
				Q 999.2952862357924 999.7643405252685 1000 999.528681050537
				Q 1000.7047137642076 999.7643405252685 1000 1000 Z" transform="rotate(515.9610662925289 1000 1000)" style="fill: rgb(243, 226, 129); stroke: rgb(57, 52, 37);"></path><path d="
				M 1000 1000
				Q 999.2952862357924 999.7643405252685 1000 999.528681050537
				Q 1000.7047137642076 999.7643405252685 1000 1000 Z" transform="rotate(518.813933707471 1000 1000)" style="fill: rgb(248, 233, 135); stroke: rgb(57, 52, 37);"></path><path d="
				M 1000 1000
				Q 999.2952862357924 999.7643405252685 1000 999.528681050537
				Q 1000.7047137642076 999.7643405252685 1000 1000 Z" transform="rotate(563.813933707471 1000 1000)" style="fill: rgb(246, 201, 111); stroke: rgb(57, 52, 37);"></path><path d="
				M 1000 1000
				Q 999.2952862357924 999.7643405252685 1000 999.528681050537
				Q 1000.7047137642076 999.7643405252685 1000 1000 Z" transform="rotate(608.813933707471 1000 1000)" style="fill: rgb(248, 206, 114); stroke: rgb(57, 52, 37);"></path><path d="
				M 1000 1000
				Q 999.2952862357924 999.7643405252685 1000 999.528681050537
				Q 1000.7047137642076 999.7643405252685 1000 1000 Z" transform="rotate(654.0389337074711 1000 1000)" style="fill: rgb(246, 215, 152); stroke: rgb(57, 52, 37);"></path><path d="
				M 1000 1000
				Q 999.2952862357924 999.7643405252685 1000 999.528681050537
				Q 1000.7047137642076 999.7643405252685 1000 1000 Z" transform="rotate(740.9610662925289 1000 1000)" style="fill: rgb(248, 210, 114); stroke: rgb(57, 52, 37);"></path></g><g><path d="
				M 1000 1000
				Q 999.4714646768443 999.8373949624353 1000 999.6747899248705
				Q 1000.5285353231557 999.8373949624353 1000 1000 Z" transform="rotate(406.31393370747105 1000 1000)" style="fill: rgb(249, 243, 139); stroke: rgb(58, 59, 37);"></path><path d="
				M 1000 1000
				Q 999.4714646768443 999.8373949624353 1000 999.6747899248705
				Q 1000.5285353231557 999.8373949624353 1000 1000 Z" transform="rotate(493.68606629252895 1000 1000)" style="fill: rgb(243, 245, 117); stroke: rgb(58, 59, 37);"></path><path d="
				M 1000 1000
				Q 999.4714646768443 999.8373949624353 1000 999.6747899248705
				Q 1000.5285353231557 999.8373949624353 1000 1000 Z" transform="rotate(496.5389337074711 1000 1000)" style="fill: rgb(247, 244, 145); stroke: rgb(58, 59, 37);"></path><path d="
				M 1000 1000
				Q 999.4714646768443 999.8373949624353 1000 999.6747899248705
				Q 1000.5285353231557 999.8373949624353 1000 1000 Z" transform="rotate(541.5389337074711 1000 1000)" style="fill: rgb(251, 251, 116); stroke: rgb(58, 59, 37);"></path><path d="
				M 1000 1000
				Q 999.4714646768443 999.8373949624353 1000 999.6747899248705
				Q 1000.5285353231557 999.8373949624353 1000 1000 Z" transform="rotate(586.5389337074711 1000 1000)" style="fill: rgb(232, 251, 147); stroke: rgb(58, 59, 37);"></path><path d="
				M 1000 1000
				Q 999.4714646768443 999.8373949624353 1000 999.6747899248705
				Q 1000.5285353231557 999.8373949624353 1000 1000 Z" transform="rotate(631.313933707471 1000 1000)" style="fill: rgb(248, 237, 155); stroke: rgb(58, 59, 37);"></path><path d="
				M 1000 1000
				Q 999.4714646768443 999.8373949624353 1000 999.6747899248705
				Q 1000.5285353231557 999.8373949624353 1000 1000 Z" transform="rotate(676.5389337074711 1000 1000)" style="fill: rgb(250, 239, 153); stroke: rgb(58, 59, 37);"></path><path d="
				M 1000 1000
				Q 999.4714646768443 999.8373949624353 1000 999.6747899248705
				Q 1000.5285353231557 999.8373949624353 1000 1000 Z" transform="rotate(763.686066292529 1000 1000)" style="fill: rgb(232, 249, 144); stroke: rgb(58, 59, 37);"></path></g><g><path d="
				M 1000 1000
				Q 999.6035985076333 999.8878025240804 1000 999.7756050481606
				Q 1000.3964014923667 999.8878025240804 1000 1000 Z" transform="rotate(428.81393370747105 1000 1000)" style="fill: rgb(208, 253, 134); stroke: rgb(53, 60, 37);"></path><path d="
				M 1000 1000
				Q 999.6035985076333 999.8878025240804 1000 999.7756050481606
				Q 1000.3964014923667 999.8878025240804 1000 1000 Z" transform="rotate(515.9610662925289 1000 1000)" style="fill: rgb(233, 250, 128); stroke: rgb(53, 60, 37);"></path><path d="
				M 1000 1000
				Q 999.6035985076333 999.8878025240804 1000 999.7756050481606
				Q 1000.3964014923667 999.8878025240804 1000 1000 Z" transform="rotate(560.9610662925289 1000 1000)" style="fill: rgb(197, 253, 129); stroke: rgb(53, 60, 37);"></path><path d="
				M 1000 1000
				Q 999.6035985076333 999.8878025240804 1000 999.7756050481606
				Q 1000.3964014923667 999.8878025240804 1000 1000 Z" transform="rotate(605.9610662925289 1000 1000)" style="fill: rgb(218, 249, 119); stroke: rgb(53, 60, 37);"></path><path d="
				M 1000 1000
				Q 999.6035985076333 999.8878025240804 1000 999.7756050481606
				Q 1000.3964014923667 999.8878025240804 1000 1000 Z" transform="rotate(608.813933707471 1000 1000)" style="fill: rgb(212, 249, 139); stroke: rgb(53, 60, 37);"></path><path d="
				M 1000 1000
				Q 999.6035985076333 999.8878025240804 1000 999.7756050481606
				Q 1000.3964014923667 999.8878025240804 1000 1000 Z" transform="rotate(653.813933707471 1000 1000)" style="fill: rgb(235, 251, 147); stroke: rgb(53, 60, 37);"></path><path d="
				M 1000 1000
				Q 999.6035985076333 999.8878025240804 1000 999.7756050481606
				Q 1000.3964014923667 999.8878025240804 1000 1000 Z" transform="rotate(741.186066292529 1000 1000)" style="fill: rgb(203, 251, 131); stroke: rgb(53, 60, 37);"></path><path d="
				M 1000 1000
				Q 999.6035985076333 999.8878025240804 1000 999.7756050481606
				Q 1000.3964014923667 999.8878025240804 1000 1000 Z" transform="rotate(743.813933707471 1000 1000)" style="fill: rgb(233, 249, 119); stroke: rgb(53, 60, 37);"></path></g><g><path d="
				M 1000 1000
				Q 999.7026988807249 999.9225837416154 1000 999.8451674832309
				Q 1000.2973011192751 999.9225837416154 1000 1000 Z" transform="rotate(493.4610662925289 1000 1000)" style="fill: rgb(172, 252, 126); stroke: rgb(48, 61, 37);"></path><path d="
				M 1000 1000
				Q 999.7026988807249 999.9225837416154 1000 999.8451674832309
				Q 1000.2973011192751 999.9225837416154 1000 1000 Z" transform="rotate(496.5389337074711 1000 1000)" style="fill: rgb(202, 255, 133); stroke: rgb(48, 61, 37);"></path><path d="
				M 1000 1000
				Q 999.7026988807249 999.9225837416154 1000 999.8451674832309
				Q 1000.2973011192751 999.9225837416154 1000 1000 Z" transform="rotate(541.088933707471 1000 1000)" style="fill: rgb(195, 252, 146); stroke: rgb(48, 61, 37);"></path><path d="
				M 1000 1000
				Q 999.7026988807249 999.9225837416154 1000 999.8451674832309
				Q 1000.2973011192751 999.9225837416154 1000 1000 Z" transform="rotate(628.686066292529 1000 1000)" style="fill: rgb(179, 255, 117); stroke: rgb(48, 61, 37);"></path><path d="
				M 1000 1000
				Q 999.7026988807249 999.9225837416154 1000 999.8451674832309
				Q 1000.2973011192751 999.9225837416154 1000 1000 Z" transform="rotate(673.4610662925289 1000 1000)" style="fill: rgb(191, 255, 159); stroke: rgb(48, 61, 37);"></path><path d="
				M 1000 1000
				Q 999.7026988807249 999.9225837416154 1000 999.8451674832309
				Q 1000.2973011192751 999.9225837416154 1000 1000 Z" transform="rotate(676.313933707471 1000 1000)" style="fill: rgb(176, 252, 125); stroke: rgb(48, 61, 37);"></path><path d="
				M 1000 1000
				Q 999.7026988807249 999.9225837416154 1000 999.8451674832309
				Q 1000.2973011192751 999.9225837416154 1000 1000 Z" transform="rotate(763.911066292529 1000 1000)" style="fill: rgb(185, 251, 126); stroke: rgb(48, 61, 37);"></path><path d="
				M 1000 1000
				Q 999.7026988807249 999.9225837416154 1000 999.8451674832309
				Q 1000.2973011192751 999.9225837416154 1000 1000 Z" transform="rotate(808.686066292529 1000 1000)" style="fill: rgb(176, 254, 124); stroke: rgb(48, 61, 37);"></path></g><g><path d="
				M 1000 1000
				Q 999.7770241605438 999.9465827817146 1000 999.8931655634293
				Q 1000.2229758394562 999.9465827817146 1000 1000 Z" transform="rotate(515.9610662925289 1000 1000)" style="fill: rgb(186, 253, 150); stroke: rgb(42, 62, 37);"></path><path d="
				M 1000 1000
				Q 999.7770241605438 999.9465827817146 1000 999.8931655634293
				Q 1000.2229758394562 999.9465827817146 1000 1000 Z" transform="rotate(518.813933707471 1000 1000)" style="fill: rgb(131, 254, 129); stroke: rgb(42, 62, 37);"></path><path d="
				M 1000 1000
				Q 999.7770241605438 999.9465827817146 1000 999.8931655634293
				Q 1000.2229758394562 999.9465827817146 1000 1000 Z" transform="rotate(564.0389337074711 1000 1000)" style="fill: rgb(161, 255, 137); stroke: rgb(42, 62, 37);"></path><path d="
				M 1000 1000
				Q 999.7770241605438 999.9465827817146 1000 999.8931655634293
				Q 1000.2229758394562 999.9465827817146 1000 1000 Z" transform="rotate(650.9610662925289 1000 1000)" style="fill: rgb(161, 254, 159); stroke: rgb(42, 62, 37);"></path><path d="
				M 1000 1000
				Q 999.7770241605438 999.9465827817146 1000 999.8931655634293
				Q 1000.2229758394562 999.9465827817146 1000 1000 Z" transform="rotate(695.9610662925289 1000 1000)" style="fill: rgb(178, 255, 142); stroke: rgb(42, 62, 37);"></path><path d="
				M 1000 1000
				Q 999.7770241605438 999.9465827817146 1000 999.8931655634293
				Q 1000.2229758394562 999.9465827817146 1000 1000 Z" transform="rotate(699.0389337074711 1000 1000)" style="fill: rgb(149, 254, 143); stroke: rgb(42, 62, 37);"></path><path d="
				M 1000 1000
				Q 999.7770241605438 999.9465827817146 1000 999.8931655634293
				Q 1000.2229758394562 999.9465827817146 1000 1000 Z" transform="rotate(785.9610662925289 1000 1000)" style="fill: rgb(135, 254, 124); stroke: rgb(42, 62, 37);"></path><path d="
				M 1000 1000
				Q 999.7770241605438 999.9465827817146 1000 999.8931655634293
				Q 1000.2229758394562 999.9465827817146 1000 1000 Z" transform="rotate(830.9610662925289 1000 1000)" style="fill: rgb(187, 255, 153); stroke: rgb(42, 62, 37);"></path></g><g><path d="
				M 1000 1000
				Q 999.8327681204078 999.9631421193831 1000 999.9262842387662
				Q 1000.1672318795922 999.9631421193831 1000 1000 Z" transform="rotate(496.31393370747105 1000 1000)" style="fill: rgb(144, 254, 166); stroke: rgb(38, 63, 40);"></path><path d="
				M 1000 1000
				Q 999.8327681204078 999.9631421193831 1000 999.9262842387662
				Q 1000.1672318795922 999.9631421193831 1000 1000 Z" transform="rotate(541.088933707471 1000 1000)" style="fill: rgb(134, 254, 138); stroke: rgb(38, 63, 40);"></path><path d="
				M 1000 1000
				Q 999.8327681204078 999.9631421193831 1000 999.9262842387662
				Q 1000.1672318795922 999.9631421193831 1000 1000 Z" transform="rotate(586.5389337074711 1000 1000)" style="fill: rgb(126, 255, 147); stroke: rgb(38, 63, 40);"></path><path d="
				M 1000 1000
				Q 999.8327681204078 999.9631421193831 1000 999.9262842387662
				Q 1000.1672318795922 999.9631421193831 1000 1000 Z" transform="rotate(673.4610662925289 1000 1000)" style="fill: rgb(124, 255, 133); stroke: rgb(38, 63, 40);"></path><path d="
				M 1000 1000
				Q 999.8327681204078 999.9631421193831 1000 999.9262842387662
				Q 1000.1672318795922 999.9631421193831 1000 1000 Z" transform="rotate(718.911066292529 1000 1000)" style="fill: rgb(142, 255, 166); stroke: rgb(38, 63, 40);"></path><path d="
				M 1000 1000
				Q 999.8327681204078 999.9631421193831 1000 999.9262842387662
				Q 1000.1672318795922 999.9631421193831 1000 1000 Z" transform="rotate(721.5389337074711 1000 1000)" style="fill: rgb(152, 255, 170); stroke: rgb(38, 63, 40);"></path><path d="
				M 1000 1000
				Q 999.8327681204078 999.9631421193831 1000 999.9262842387662
				Q 1000.1672318795922 999.9631421193831 1000 1000 Z" transform="rotate(766.313933707471 1000 1000)" style="fill: rgb(152, 255, 152); stroke: rgb(38, 63, 40);"></path><path d="
				M 1000 1000
				Q 999.8327681204078 999.9631421193831 1000 999.9262842387662
				Q 1000.1672318795922 999.9631421193831 1000 1000 Z" transform="rotate(811.5389337074711 1000 1000)" style="fill: rgb(145, 255, 169); stroke: rgb(38, 63, 40);"></path></g><g><path d="
				M 1000 1000
				Q 999.8745760903058 999.9745680623744 1000 999.9491361247486
				Q 1000.1254239096942 999.9745680623744 1000 1000 Z" transform="rotate(518.813933707471 1000 1000)" style="fill: rgb(131, 255, 173); stroke: rgb(38, 64, 47);"></path><path d="
				M 1000 1000
				Q 999.8745760903058 999.9745680623744 1000 999.9491361247486
				Q 1000.1254239096942 999.9745680623744 1000 1000 Z" transform="rotate(563.813933707471 1000 1000)" style="fill: rgb(135, 255, 184); stroke: rgb(38, 64, 47);"></path><path d="
				M 1000 1000
				Q 999.8745760903058 999.9745680623744 1000 999.9491361247486
				Q 1000.1254239096942 999.9745680623744 1000 1000 Z" transform="rotate(650.9610662925289 1000 1000)" style="fill: rgb(128, 255, 178); stroke: rgb(38, 64, 47);"></path><path d="
				M 1000 1000
				Q 999.8745760903058 999.9745680623744 1000 999.9491361247486
				Q 1000.1254239096942 999.9745680623744 1000 1000 Z" transform="rotate(653.813933707471 1000 1000)" style="fill: rgb(160, 255, 180); stroke: rgb(38, 64, 47);"></path><path d="
				M 1000 1000
				Q 999.8745760903058 999.9745680623744 1000 999.9491361247486
				Q 1000.1254239096942 999.9745680623744 1000 1000 Z" transform="rotate(699.0389337074711 1000 1000)" style="fill: rgb(171, 255, 214); stroke: rgb(38, 64, 47);"></path><path d="
				M 1000 1000
				Q 999.8745760903058 999.9745680623744 1000 999.9491361247486
				Q 1000.1254239096942 999.9745680623744 1000 1000 Z" transform="rotate(786.186066292529 1000 1000)" style="fill: rgb(132, 255, 167); stroke: rgb(38, 64, 47);"></path><path d="
				M 1000 1000
				Q 999.8745760903058 999.9745680623744 1000 999.9491361247486
				Q 1000.1254239096942 999.9745680623744 1000 1000 Z" transform="rotate(831.186066292529 1000 1000)" style="fill: rgb(155, 255, 179); stroke: rgb(38, 64, 47);"></path><path d="
				M 1000 1000
				Q 999.8745760903058 999.9745680623744 1000 999.9491361247486
				Q 1000.1254239096942 999.9745680623744 1000 1000 Z" transform="rotate(834.0389337074711 1000 1000)" style="fill: rgb(140, 255, 187); stroke: rgb(38, 64, 47);"></path></g><g><path d="
				M 1000 1000
				Q 999.9059320677294 999.9824519630383 1000 999.9649039260765
				Q 1000.0940679322706 999.9824519630383 1000 1000 Z" transform="rotate(541.313933707471 1000 1000)" style="fill: rgb(158, 255, 226); stroke: rgb(38, 66, 55);"></path><path d="
				M 1000 1000
				Q 999.9059320677294 999.9824519630383 1000 999.9649039260765
				Q 1000.0940679322706 999.9824519630383 1000 1000 Z" transform="rotate(628.686066292529 1000 1000)" style="fill: rgb(140, 255, 228); stroke: rgb(38, 66, 55);"></path><path d="
				M 1000 1000
				Q 999.9059320677294 999.9824519630383 1000 999.9649039260765
				Q 1000.0940679322706 999.9824519630383 1000 1000 Z" transform="rotate(673.686066292529 1000 1000)" style="fill: rgb(166, 255, 213); stroke: rgb(38, 66, 55);"></path><path d="
				M 1000 1000
				Q 999.9059320677294 999.9824519630383 1000 999.9649039260765
				Q 1000.0940679322706 999.9824519630383 1000 1000 Z" transform="rotate(718.4610662925289 1000 1000)" style="fill: rgb(159, 255, 206); stroke: rgb(38, 66, 55);"></path><path d="
				M 1000 1000
				Q 999.9059320677294 999.9824519630383 1000 999.9649039260765
				Q 1000.0940679322706 999.9824519630383 1000 1000 Z" transform="rotate(721.313933707471 1000 1000)" style="fill: rgb(141, 255, 216); stroke: rgb(38, 66, 55);"></path><path d="
				M 1000 1000
				Q 999.9059320677294 999.9824519630383 1000 999.9649039260765
				Q 1000.0940679322706 999.9824519630383 1000 1000 Z" transform="rotate(766.5389337074711 1000 1000)" style="fill: rgb(147, 255, 206); stroke: rgb(38, 66, 55);"></path><path d="
				M 1000 1000
				Q 999.9059320677294 999.9824519630383 1000 999.9649039260765
				Q 1000.0940679322706 999.9824519630383 1000 1000 Z" transform="rotate(853.4610662925289 1000 1000)" style="fill: rgb(156, 255, 213); stroke: rgb(38, 66, 55);"></path><path d="
				M 1000 1000
				Q 999.9059320677294 999.9824519630383 1000 999.9649039260765
				Q 1000.0940679322706 999.9824519630383 1000 1000 Z" transform="rotate(898.4610662925289 1000 1000)" style="fill: rgb(147, 255, 227); stroke: rgb(38, 66, 55);"></path></g><g><path d="
				M 1000 1000
				Q 999.9294490507971 999.9878918544964 1000 999.9757837089928
				Q 1000.0705509492029 999.9878918544964 1000 1000 Z" transform="rotate(564.0389337074711 1000 1000)" style="fill: rgb(154, 255, 255); stroke: rgb(38, 67, 63);"></path><path d="
				M 1000 1000
				Q 999.9294490507971 999.9878918544964 1000 999.9757837089928
				Q 1000.0705509492029 999.9878918544964 1000 1000 Z" transform="rotate(651.186066292529 1000 1000)" style="fill: rgb(162, 255, 253); stroke: rgb(38, 67, 63);"></path><path d="
				M 1000 1000
				Q 999.9294490507971 999.9878918544964 1000 999.9757837089928
				Q 1000.0705509492029 999.9878918544964 1000 1000 Z" transform="rotate(696.186066292529 1000 1000)" style="fill: rgb(134, 255, 229); stroke: rgb(38, 67, 63);"></path><path d="
				M 1000 1000
				Q 999.9294490507971 999.9878918544964 1000 999.9757837089928
				Q 1000.0705509492029 999.9878918544964 1000 1000 Z" transform="rotate(699.0389337074711 1000 1000)" style="fill: rgb(153, 255, 239); stroke: rgb(38, 67, 63);"></path><path d="
				M 1000 1000
				Q 999.9294490507971 999.9878918544964 1000 999.9757837089928
				Q 1000.0705509492029 999.9878918544964 1000 1000 Z" transform="rotate(744.0389337074711 1000 1000)" style="fill: rgb(165, 255, 252); stroke: rgb(38, 67, 63);"></path><path d="
				M 1000 1000
				Q 999.9294490507971 999.9878918544964 1000 999.9757837089928
				Q 1000.0705509492029 999.9878918544964 1000 1000 Z" transform="rotate(788.813933707471 1000 1000)" style="fill: rgb(144, 255, 255); stroke: rgb(38, 67, 63);"></path><path d="
				M 1000 1000
				Q 999.9294490507971 999.9878918544964 1000 999.9757837089928
				Q 1000.0705509492029 999.9878918544964 1000 1000 Z" transform="rotate(876.186066292529 1000 1000)" style="fill: rgb(140, 255, 254); stroke: rgb(38, 67, 63);"></path><path d="
				M 1000 1000
				Q 999.9294490507971 999.9878918544964 1000 999.9757837089928
				Q 1000.0705509492029 999.9878918544964 1000 1000 Z" transform="rotate(878.813933707471 1000 1000)" style="fill: rgb(170, 255, 251); stroke: rgb(38, 67, 63);"></path></g><g><path d="
				M 1000 1000
				Q 999.9470867880977 999.9916453796026 1000 999.983290759205
				Q 1000.0529132119023 999.9916453796026 1000 1000 Z" transform="rotate(628.686066292529 1000 1000)" style="fill: rgb(167, 255, 255); stroke: rgb(38, 63, 68);"></path><path d="
				M 1000 1000
				Q 999.9470867880977 999.9916453796026 1000 999.983290759205
				Q 1000.0529132119023 999.9916453796026 1000 1000 Z" transform="rotate(631.313933707471 1000 1000)" style="fill: rgb(155, 254, 255); stroke: rgb(38, 63, 68);"></path><path d="
				M 1000 1000
				Q 999.9470867880977 999.9916453796026 1000 999.983290759205
				Q 1000.0529132119023 999.9916453796026 1000 1000 Z" transform="rotate(676.313933707471 1000 1000)" style="fill: rgb(160, 246, 255); stroke: rgb(38, 63, 68);"></path><path d="
				M 1000 1000
				Q 999.9470867880977 999.9916453796026 1000 999.983290759205
				Q 1000.0529132119023 999.9916453796026 1000 1000 Z" transform="rotate(763.4610662925289 1000 1000)" style="fill: rgb(174, 238, 255); stroke: rgb(38, 63, 68);"></path><path d="
				M 1000 1000
				Q 999.9470867880977 999.9916453796026 1000 999.983290759205
				Q 1000.0529132119023 999.9916453796026 1000 1000 Z" transform="rotate(766.313933707471 1000 1000)" style="fill: rgb(172, 254, 255); stroke: rgb(38, 63, 68);"></path><path d="
				M 1000 1000
				Q 999.9470867880977 999.9916453796026 1000 999.983290759205
				Q 1000.0529132119023 999.9916453796026 1000 1000 Z" transform="rotate(853.4610662925289 1000 1000)" style="fill: rgb(172, 255, 255); stroke: rgb(38, 63, 68);"></path><path d="
				M 1000 1000
				Q 999.9470867880977 999.9916453796026 1000 999.983290759205
				Q 1000.0529132119023 999.9916453796026 1000 1000 Z" transform="rotate(856.313933707471 1000 1000)" style="fill: rgb(180, 236, 255); stroke: rgb(38, 63, 68);"></path><path d="
				M 1000 1000
				Q 999.9470867880977 999.9916453796026 1000 999.983290759205
				Q 1000.0529132119023 999.9916453796026 1000 1000 Z" transform="rotate(901.313933707471 1000 1000)" style="fill: rgb(178, 255, 255); stroke: rgb(38, 63, 68);"></path></g><g><path d="
				M 1000 1000
				Q 999.9603150910733 999.9942353119258 1000 999.9884706238515
				Q 1000.0396849089267 999.9942353119258 1000 1000 Z" transform="rotate(609.0389337074711 1000 1000)" style="fill: rgb(161, 228, 255); stroke: rgb(38, 56, 69);"></path><path d="
				M 1000 1000
				Q 999.9603150910733 999.9942353119258 1000 999.9884706238515
				Q 1000.0396849089267 999.9942353119258 1000 1000 Z" transform="rotate(654.0389337074711 1000 1000)" style="fill: rgb(171, 227, 255); stroke: rgb(38, 56, 69);"></path><path d="
				M 1000 1000
				Q 999.9603150910733 999.9942353119258 1000 999.9884706238515
				Q 1000.0396849089267 999.9942353119258 1000 1000 Z" transform="rotate(741.186066292529 1000 1000)" style="fill: rgb(190, 229, 255); stroke: rgb(38, 56, 69);"></path><path d="
				M 1000 1000
				Q 999.9603150910733 999.9942353119258 1000 999.9884706238515
				Q 1000.0396849089267 999.9942353119258 1000 1000 Z" transform="rotate(744.0389337074711 1000 1000)" style="fill: rgb(160, 236, 255); stroke: rgb(38, 56, 69);"></path><path d="
				M 1000 1000
				Q 999.9603150910733 999.9942353119258 1000 999.9884706238515
				Q 1000.0396849089267 999.9942353119258 1000 1000 Z" transform="rotate(789.0389337074711 1000 1000)" style="fill: rgb(166, 221, 255); stroke: rgb(38, 56, 69);"></path><path d="
				M 1000 1000
				Q 999.9603150910733 999.9942353119258 1000 999.9884706238515
				Q 1000.0396849089267 999.9942353119258 1000 1000 Z" transform="rotate(875.9610662925289 1000 1000)" style="fill: rgb(159, 203, 255); stroke: rgb(38, 56, 69);"></path><path d="
				M 1000 1000
				Q 999.9603150910733 999.9942353119258 1000 999.9884706238515
				Q 1000.0396849089267 999.9942353119258 1000 1000 Z" transform="rotate(920.9610662925289 1000 1000)" style="fill: rgb(182, 223, 255); stroke: rgb(38, 56, 69);"></path><path d="
				M 1000 1000
				Q 999.9603150910733 999.9942353119258 1000 999.9884706238515
				Q 1000.0396849089267 999.9942353119258 1000 1000 Z" transform="rotate(923.813933707471 1000 1000)" style="fill: rgb(178, 212, 255); stroke: rgb(38, 56, 69);"></path></g></g></svg>
