<svg
    width="126"
    height="160"
    viewBox="0 0 126 160"
    xmlns="http://www.w3.org/2000/svg"
>
<rect width="126" height="160" fill="#CAE91E" />
<path
        d="M40.5 74.5C40.5 74.875 40.4531 75.5625 40.3594 76.5625C40.2656 77.5312 39.9375 78.5312 39.375 79.5625C38.8125 80.5938 37.9219 81.5 36.7031 82.2812C35.4844 83.0938 33.75 83.5 31.5 83.5C29.25 83.5 27.5156 83.0938 26.2969 82.2812C25.0781 81.5 24.1875 80.5938 23.625 79.5625C23.0625 78.5312 22.7344 77.5312 22.6406 76.5625C22.5469 75.5625 22.5 74.875 22.5 74.5V8.5C22.5 8.25 22.5156 7.875 22.5469 7.375C22.5781 6.875 22.6719 6.32813 22.8281 5.73438C22.9844 5.10938 23.25 4.48437 23.625 3.85938C24 3.20312 24.5156 2.60937 25.1719 2.07812C25.8281 1.54688 26.6719 1.125 27.7031 0.8125C28.7344 0.46875 30 0.296875 31.5 0.296875C33 0.296875 34.2656 0.46875 35.2969 0.8125C36.3281 1.125 37.1719 1.54688 37.8281 2.07812C38.4844 2.60937 39 3.20312 39.375 3.85938C39.75 4.48437 40.0156 5.10938 40.1719 5.73438C40.3281 6.32813 40.4219 6.875 40.4531 7.375C40.4844 7.875 40.5 8.25 40.5 8.5V74.5ZM28.5 74.5C28.5 74.875 28.5156 75.3281 28.5469 75.8594C28.5781 76.3594 28.6875 76.8438 28.875 77.3125C29.0625 77.7812 29.3594 78.1875 29.7656 78.5312C30.1719 78.8438 30.75 79 31.5 79C32.25 79 32.8281 78.8438 33.2344 78.5312C33.6406 78.1875 33.9375 77.7812 34.125 77.3125C34.3125 76.8438 34.4219 76.3594 34.4531 75.8594C34.4844 75.3281 34.5 74.875 34.5 74.5V8.5C34.5 8.125 34.4844 7.71875 34.4531 7.28125C34.4219 6.84375 34.3125 6.45312 34.125 6.10938C33.9375 5.73438 33.6406 5.42187 33.2344 5.17188C32.8281 4.92188 32.25 4.79688 31.5 4.79688C30.75 4.79688 30.1719 4.92188 29.7656 5.17188C29.3594 5.42187 29.0625 5.73438 28.875 6.10938C28.6875 6.45312 28.5781 6.84375 28.5469 7.28125C28.5156 7.71875 28.5 8.125 28.5 8.5V74.5ZM64.5 41.5C64.5 43.375 64.1562 44.8281 63.4688 45.8594C62.7812 46.8594 61.875 47.5938 60.75 48.0625C59.625 48.5312 58.3438 48.8125 56.9062 48.9062C55.4688 48.9688 54 49 52.5 49V82H46.5V10H54C56.6562 10 58.6875 10.25 60.0938 10.75C61.5312 11.25 62.5781 11.875 63.2344 12.625C63.8906 13.375 64.2656 14.1875 64.3594 15.0625C64.4531 15.9375 64.5 16.75 64.5 17.5V41.5ZM58.5 17.5C58.5 16.75 58.3906 16.1719 58.1719 15.7656C57.9844 15.3594 57.6562 15.0625 57.1875 14.875C56.7188 14.6875 56.0938 14.5781 55.3125 14.5469C54.5625 14.5156 53.625 14.5 52.5 14.5V44.5C53.25 44.5 53.9844 44.4844 54.7031 44.4531C55.4219 44.3906 56.0625 44.2188 56.625 43.9375C57.1875 43.6562 57.6406 43.2188 57.9844 42.625C58.3281 42 58.5 41.125 58.5 40V17.5ZM81 14.5H75V41.5H81V46H75V77.5H81V82H69V10H81V14.5ZM103.5 82H99L90.75 40V82H85.5V10H90L98.2969 53.5V10H103.5V82ZM18 110H12V84.5C12 83.75 11.9062 83.1406 11.7188 82.6719C11.5625 82.1719 11.3438 81.7969 11.0625 81.5469C10.7812 81.2656 10.4531 81.0781 10.0781 80.9844C9.73438 80.8594 9.375 80.7969 9 80.7969C8.625 80.7969 8.25 80.8594 7.875 80.9844C7.53125 81.0781 7.21875 81.2656 6.9375 81.5469C6.65625 81.7969 6.42188 82.1719 6.23438 82.6719C6.07812 83.1406 6 83.75 6 84.5V150.5C6 150.875 6.01562 151.328 6.04688 151.859C6.07812 152.359 6.1875 152.844 6.375 153.312C6.5625 153.781 6.85938 154.188 7.26562 154.531C7.67188 154.844 8.25 155 9 155C9.75 155 10.3281 154.844 10.7344 154.531C11.1406 154.188 11.4375 153.781 11.625 153.312C11.8125 152.844 11.9219 152.359 11.9531 151.859C11.9844 151.328 12 150.875 12 150.5V119H18V150.5C18 150.875 17.9531 151.562 17.8594 152.562C17.7656 153.531 17.4375 154.531 16.875 155.562C16.3125 156.594 15.4219 157.5 14.2031 158.281C12.9844 159.094 11.25 159.5 9 159.5C6.75 159.5 5.01562 159.094 3.79688 158.281C2.57812 157.5 1.6875 156.594 1.125 155.562C0.5625 154.531 0.234375 153.531 0.140625 152.562C0.046875 151.562 0 150.875 0 150.5V84.5C0 83.0625 0.265625 81.8281 0.796875 80.7969C1.32812 79.7344 2.01562 78.875 2.85938 78.2188C3.73438 77.5625 4.70312 77.0781 5.76562 76.7656C6.82812 76.4531 7.90625 76.2969 9 76.2969C10.1562 76.2969 11.2656 76.4688 12.3281 76.8125C13.4219 77.1562 14.3906 77.6719 15.2344 78.3594C16.0781 79.0469 16.75 79.9062 17.25 80.9375C17.75 81.9688 18 83.1562 18 84.5V110ZM40.5 158H34.5L33.5625 142.438H29.3906L28.5 158H22.5L28.5 86H34.5L40.5 158ZM33.2344 137.562L31.5 101L29.7188 137.562H33.2344ZM63 158H58.5L50.25 116V158H45V86H49.5L57.7969 129.5V86H63V158ZM75 119L75.7969 150.5L76.5 119L78 86H84L79.5 158H72L67.5 86H73.5L75 119ZM105 158H99L98.0625 142.438H93.8906L93 158H87L93 86H99L105 158ZM97.7344 137.562L96 101L94.2188 137.562H97.7344ZM126 111.5H120V92.75C120 91.625 119.766 90.8438 119.297 90.4062C118.828 89.9688 118.312 89.75 117.75 89.75C117.188 89.75 116.672 89.9688 116.203 90.4062C115.734 90.8438 115.5 91.625 115.5 92.75C115.5 96.0938 115.656 99.1719 115.969 101.984C116.281 104.797 116.688 107.391 117.188 109.766C117.688 112.141 118.25 114.312 118.875 116.281C119.5 118.219 120.125 120 120.75 121.625C121.25 122.906 121.797 124.391 122.391 126.078C123.016 127.766 123.594 129.781 124.125 132.125C124.656 134.469 125.094 137.203 125.438 140.328C125.812 143.453 126 147.094 126 151.25C126 152.562 125.766 153.703 125.297 154.672C124.828 155.609 124.203 156.391 123.422 157.016C122.641 157.609 121.75 158.047 120.75 158.328C119.781 158.609 118.781 158.75 117.75 158.75C116.719 158.75 115.703 158.609 114.703 158.328C113.734 158.047 112.859 157.609 112.078 157.016C111.297 156.391 110.672 155.609 110.203 154.672C109.734 153.703 109.5 152.562 109.5 151.25V132.5H115.5V151.25C115.5 152.375 115.734 153.156 116.203 153.594C116.672 154.031 117.188 154.25 117.75 154.25C118.312 154.25 118.828 154.031 119.297 153.594C119.766 153.156 120 152.375 120 151.25C120 147.219 119.797 143.688 119.391 140.656C119.016 137.594 118.531 134.906 117.938 132.594C117.344 130.25 116.688 128.203 115.969 126.453C115.281 124.703 114.641 123.094 114.047 121.625C113.453 120.188 112.875 118.547 112.312 116.703C111.781 114.859 111.297 112.766 110.859 110.422C110.453 108.078 110.125 105.453 109.875 102.547C109.625 99.6094 109.5 96.3438 109.5 92.75C109.5 91.4375 109.734 90.3125 110.203 89.375C110.672 88.4375 111.297 87.6719 112.078 87.0781C112.859 86.4531 113.734 86 114.703 85.7188C115.703 85.4062 116.719 85.25 117.75 85.25C118.781 85.25 119.781 85.4062 120.75 85.7188C121.75 86 122.641 86.4531 123.422 87.0781C124.203 87.6719 124.828 88.4375 125.297 89.375C125.766 90.3125 126 91.4375 126 92.75V111.5Z"
        fill="black"
    />
</svg>
