<svg
    width="432"
    height="432"
    viewBox="0 0 432 432"
    fill="none"
    xmlns="http://www.w3.org/2000/svg"
>
<rect width="432" height="432" fill="#CAE91E" />
<path
        d="M176.125 189.875C176.125 190.531 176.043 191.734 175.879 193.484C175.715 195.18 175.141 196.93 174.156 198.734C173.172 200.539 171.613 202.125 169.48 203.492C167.348 204.914 164.312 205.625 160.375 205.625C156.438 205.625 153.402 204.914 151.27 203.492C149.137 202.125 147.578 200.539 146.594 198.734C145.609 196.93 145.035 195.18 144.871 193.484C144.707 191.734 144.625 190.531 144.625 189.875V74.375C144.625 73.9375 144.652 73.2812 144.707 72.4062C144.762 71.5312 144.926 70.5742 145.199 69.5352C145.473 68.4414 145.938 67.3477 146.594 66.2539C147.25 65.1055 148.152 64.0664 149.301 63.1367C150.449 62.207 151.926 61.4688 153.73 60.9219C155.535 60.3203 157.75 60.0195 160.375 60.0195C163 60.0195 165.215 60.3203 167.02 60.9219C168.824 61.4688 170.301 62.207 171.449 63.1367C172.598 64.0664 173.5 65.1055 174.156 66.2539C174.812 67.3477 175.277 68.4414 175.551 69.5352C175.824 70.5742 175.988 71.5312 176.043 72.4062C176.098 73.2812 176.125 73.9375 176.125 74.375V189.875ZM155.125 189.875C155.125 190.531 155.152 191.324 155.207 192.254C155.262 193.129 155.453 193.977 155.781 194.797C156.109 195.617 156.629 196.328 157.34 196.93C158.051 197.477 159.062 197.75 160.375 197.75C161.688 197.75 162.699 197.477 163.41 196.93C164.121 196.328 164.641 195.617 164.969 194.797C165.297 193.977 165.488 193.129 165.543 192.254C165.598 191.324 165.625 190.531 165.625 189.875V74.375C165.625 73.7188 165.598 73.0078 165.543 72.2422C165.488 71.4766 165.297 70.793 164.969 70.1914C164.641 69.5352 164.121 68.9883 163.41 68.5508C162.699 68.1133 161.688 67.8945 160.375 67.8945C159.062 67.8945 158.051 68.1133 157.34 68.5508C156.629 68.9883 156.109 69.5352 155.781 70.1914C155.453 70.793 155.262 71.4766 155.207 72.2422C155.152 73.0078 155.125 73.7188 155.125 74.375V189.875ZM218.125 132.125C218.125 135.406 217.523 137.949 216.32 139.754C215.117 141.504 213.531 142.789 211.562 143.609C209.594 144.43 207.352 144.922 204.836 145.086C202.32 145.195 199.75 145.25 197.125 145.25V203H186.625V77H199.75C204.398 77 207.953 77.4375 210.414 78.3125C212.93 79.1875 214.762 80.2812 215.91 81.5938C217.059 82.9062 217.715 84.3281 217.879 85.8594C218.043 87.3906 218.125 88.8125 218.125 90.125V132.125ZM207.625 90.125C207.625 88.8125 207.434 87.8008 207.051 87.0898C206.723 86.3789 206.148 85.8594 205.328 85.5312C204.508 85.2031 203.414 85.0117 202.047 84.957C200.734 84.9023 199.094 84.875 197.125 84.875V137.375C198.438 137.375 199.723 137.348 200.98 137.293C202.238 137.184 203.359 136.883 204.344 136.391C205.328 135.898 206.121 135.133 206.723 134.094C207.324 133 207.625 131.469 207.625 129.5V90.125ZM247 84.875H236.5V132.125H247V140H236.5V195.125H247V203H226V77H247V84.875ZM286.375 203H278.5L264.062 129.5V203H254.875V77H262.75L277.27 153.125V77H286.375V203ZM136.75 251H126.25V206.375C126.25 205.062 126.086 203.996 125.758 203.176C125.484 202.301 125.102 201.645 124.609 201.207C124.117 200.715 123.543 200.387 122.887 200.223C122.285 200.004 121.656 199.895 121 199.895C120.344 199.895 119.688 200.004 119.031 200.223C118.43 200.387 117.883 200.715 117.391 201.207C116.898 201.645 116.488 202.301 116.16 203.176C115.887 203.996 115.75 205.062 115.75 206.375V321.875C115.75 322.531 115.777 323.324 115.832 324.254C115.887 325.129 116.078 325.977 116.406 326.797C116.734 327.617 117.254 328.328 117.965 328.93C118.676 329.477 119.688 329.75 121 329.75C122.312 329.75 123.324 329.477 124.035 328.93C124.746 328.328 125.266 327.617 125.594 326.797C125.922 325.977 126.113 325.129 126.168 324.254C126.223 323.324 126.25 322.531 126.25 321.875V266.75H136.75V321.875C136.75 322.531 136.668 323.734 136.504 325.484C136.34 327.18 135.766 328.93 134.781 330.734C133.797 332.539 132.238 334.125 130.105 335.492C127.973 336.914 124.938 337.625 121 337.625C117.062 337.625 114.027 336.914 111.895 335.492C109.762 334.125 108.203 332.539 107.219 330.734C106.234 328.93 105.66 327.18 105.496 325.484C105.332 323.734 105.25 322.531 105.25 321.875V206.375C105.25 203.859 105.715 201.699 106.645 199.895C107.574 198.035 108.777 196.531 110.254 195.383C111.785 194.234 113.48 193.387 115.34 192.84C117.199 192.293 119.086 192.02 121 192.02C123.023 192.02 124.965 192.32 126.824 192.922C128.738 193.523 130.434 194.426 131.91 195.629C133.387 196.832 134.562 198.336 135.438 200.141C136.312 201.945 136.75 204.023 136.75 206.375V251ZM176.125 335H165.625L163.984 307.766H156.684L155.125 335H144.625L155.125 209H165.625L176.125 335ZM163.41 299.234L160.375 235.25L157.258 299.234H163.41ZM215.5 335H207.625L193.188 261.5V335H184V209H191.875L206.395 285.125V209H215.5V335ZM236.5 266.75L237.895 321.875L239.125 266.75L241.75 209H252.25L244.375 335H231.25L223.375 209H233.875L236.5 266.75ZM289 335H278.5L276.859 307.766H269.559L268 335H257.5L268 209H278.5L289 335ZM276.285 299.234L273.25 235.25L270.133 299.234H276.285ZM325.75 253.625H315.25V220.812C315.25 218.844 314.84 217.477 314.02 216.711C313.199 215.945 312.297 215.562 311.312 215.562C310.328 215.562 309.426 215.945 308.605 216.711C307.785 217.477 307.375 218.844 307.375 220.812C307.375 226.664 307.648 232.051 308.195 236.973C308.742 241.895 309.453 246.434 310.328 250.59C311.203 254.746 312.188 258.547 313.281 261.992C314.375 265.383 315.469 268.5 316.562 271.344C317.438 273.586 318.395 276.184 319.434 279.137C320.527 282.09 321.539 285.617 322.469 289.719C323.398 293.82 324.164 298.605 324.766 304.074C325.422 309.543 325.75 315.914 325.75 323.188C325.75 325.484 325.34 327.48 324.52 329.176C323.699 330.816 322.605 332.184 321.238 333.277C319.871 334.316 318.312 335.082 316.562 335.574C314.867 336.066 313.117 336.312 311.312 336.312C309.508 336.312 307.73 336.066 305.98 335.574C304.285 335.082 302.754 334.316 301.387 333.277C300.02 332.184 298.926 330.816 298.105 329.176C297.285 327.48 296.875 325.484 296.875 323.188V290.375H307.375V323.188C307.375 325.156 307.785 326.523 308.605 327.289C309.426 328.055 310.328 328.438 311.312 328.438C312.297 328.438 313.199 328.055 314.02 327.289C314.84 326.523 315.25 325.156 315.25 323.188C315.25 316.133 314.895 309.953 314.184 304.648C313.527 299.289 312.68 294.586 311.641 290.539C310.602 286.438 309.453 282.855 308.195 279.793C306.992 276.73 305.871 273.914 304.832 271.344C303.793 268.828 302.781 265.957 301.797 262.73C300.867 259.504 300.02 255.84 299.254 251.738C298.543 247.637 297.969 243.043 297.531 237.957C297.094 232.816 296.875 227.102 296.875 220.812C296.875 218.516 297.285 216.547 298.105 214.906C298.926 213.266 300.02 211.926 301.387 210.887C302.754 209.793 304.285 209 305.98 208.508C307.73 207.961 309.508 207.688 311.312 207.688C313.117 207.688 314.867 207.961 316.562 208.508C318.312 209 319.871 209.793 321.238 210.887C322.605 211.926 323.699 213.266 324.52 214.906C325.34 216.547 325.75 218.516 325.75 220.812V253.625Z"
        fill="black"
    />
<rect x="0.5" y="0.5" width="431" height="431" stroke="#B6CE31" />
</svg>
