<svg width="432" height="387" viewBox="0 0 432 387" fill="none" xmlns="http://www.w3.org/2000/svg">
<rect width="432" height="387" fill="#CAE91E"/>
<path d="M176.125 189.875C176.125 190.531 176.043 191.734 175.879 193.484C175.715 195.18 175.141 196.93 174.156 198.734C173.172 200.539 171.613 202.125 169.48 203.492C167.348 204.914 164.312 205.625 160.375 205.625C156.438 205.625 153.402 204.914 151.27 203.492C149.137 202.125 147.578 200.539 146.594 198.734C145.609 196.93 145.035 195.18 144.871 193.484C144.707 191.734 144.625 190.531 144.625 189.875V74.375C144.625 73.9375 144.652 73.2812 144.707 72.4062C144.762 71.5312 144.926 70.5742 145.199 69.5352C145.473 68.4414 145.938 67.3477 146.594 66.2539C147.25 65.1055 148.152 64.0664 149.301 63.1367C150.449 62.207 151.926 61.4688 153.73 60.9219C155.535 60.3203 157.75 60.0195 160.375 60.0195C163 60.0195 165.215 60.3203 167.02 60.9219C168.824 61.4688 170.301 62.207 171.449 63.1367C172.598 64.0664 173.5 65.1055 174.156 66.2539C174.812 67.3477 175.277 68.4414 175.551 69.5352C175.824 70.5742 175.988 71.5312 176.043 72.4062C176.098 73.2812 176.125 73.9375 176.125 74.375V189.875ZM155.125 189.875C155.125 190.531 155.152 191.324 155.207 192.254C155.262 193.129 155.453 193.977 155.781 194.797C156.109 195.617 156.629 196.328 157.34 196.93C158.051 197.477 159.062 197.75 160.375 197.75C161.688 197.75 162.699 197.477 163.41 196.93C164.121 196.328 164.641 195.617 164.969 194.797C165.297 193.977 165.488 193.129 165.543 192.254C165.598 191.324 165.625 190.531 165.625 189.875V74.375C165.625 73.7188 165.598 73.0078 165.543 72.2422C165.488 71.4766 165.297 70.793 164.969 70.1914C164.641 69.5352 164.121 68.9883 163.41 68.5508C162.699 68.1133 161.688 67.8945 160.375 67.8945C159.062 67.8945 158.051 68.1133 157.34 68.5508C156.629 68.9883 156.109 69.5352 155.781 70.1914C155.453 70.793 155.262 71.4766 155.207 72.2422C155.152 73.0078 155.125 73.7188 155.125 74.375V189.875ZM218.125 132.125C218.125 135.406 217.523 137.949 216.32 139.754C215.117 141.504 213.531 142.789 211.562 143.609C209.594 144.43 207.352 144.922 204.836 145.086C202.32 145.195 199.75 145.25 197.125 145.25V203H186.625V77H199.75C204.398 77 207.953 77.4375 210.414 78.3125C212.93 79.1875 214.762 80.2812 215.91 81.5938C217.059 82.9062 217.715 84.3281 217.879 85.8594C218.043 87.3906 218.125 88.8125 218.125 90.125V132.125ZM207.625 90.125C207.625 88.8125 207.434 87.8008 207.051 87.0898C206.723 86.3789 206.148 85.8594 205.328 85.5312C204.508 85.2031 203.414 85.0117 202.047 84.957C200.734 84.9023 199.094 84.875 197.125 84.875V137.375C198.438 137.375 199.723 137.348 200.98 137.293C202.238 137.184 203.359 136.883 204.344 136.391C205.328 135.898 206.121 135.133 206.723 134.094C207.324 133 207.625 131.469 207.625 129.5V90.125ZM247 84.875H236.5V132.125H247V140H236.5V195.125H247V203H226V77H247V84.875ZM286.375 203H278.5L264.062 129.5V203H254.875V77H262.75L277.27 153.125V77H286.375V203ZM136.75 251H126.25V206.375C126.25 205.062 126.086 203.996 125.758 203.176C125.484 202.301 125.102 201.645 124.609 201.207C124.117 200.715 123.543 200.387 122.887 200.223C122.285 200.004 121.656 199.895 121 199.895C120.344 199.895 119.688 200.004 119.031 200.223C118.43 200.387 117.883 200.715 117.391 201.207C116.898 201.645 116.488 202.301 116.16 203.176C115.887 203.996 115.75 205.062 115.75 206.375V321.875C115.75 322.531 115.777 323.324 115.832 324.254C115.887 325.129 116.078 325.977 116.406 326.797C116.734 327.617 117.254 328.328 117.965 328.93C118.676 329.477 119.688 329.75 121 329.75C122.312 329.75 123.324 329.477 124.035 328.93C124.746 328.328 125.266 327.617 125.594 326.797C125.922 325.977 126.113 325.129 126.168 324.254C126.223 323.324 126.25 322.531 126.25 321.875V266.75H136.75V321.875C136.75 322.531 136.668 323.734 136.504 325.484C136.34 327.18 135.766 328.93 134.781 330.734C133.797 332.539 132.238 334.125 130.105 335.492C127.973 336.914 124.938 337.625 121 337.625C117.062 337.625 114.027 336.914 111.895 335.492C109.762 334.125 108.203 332.539 107.219 330.734C106.234 328.93 105.66 327.18 105.496 325.484C105.332 323.734 105.25 322.531 105.25 321.875V206.375C105.25 203.859 105.715 201.699 106.645 199.895C107.574 198.035 108.777 196.531 110.254 195.383C111.785 194.234 113.48 193.387 115.34 192.84C117.199 192.293 119.086 192.02 121 192.02C123.023 192.02 124.965 192.32 126.824 192.922C128.738 193.523 130.434 194.426 131.91 195.629C133.387 196.832 134.562 198.336 135.438 200.141C136.312 201.945 136.75 204.023 136.75 206.375V251ZM176.125 335H165.625L163.984 307.766H156.684L155.125 335H144.625L155.125 209H165.625L176.125 335ZM163.41 299.234L160.375 235.25L157.258 299.234H163.41ZM215.5 335H207.625L193.188 261.5V335H184V209H191.875L206.395 285.125V209H215.5V335ZM236.5 266.75L237.895 321.875L239.125 266.75L241.75 209H252.25L244.375 335H231.25L223.375 209H233.875L236.5 266.75ZM289 335H278.5L276.859 307.766H269.559L268 335H257.5L268 209H278.5L289 335ZM276.285 299.234L273.25 235.25L270.133 299.234H276.285ZM325.75 253.625H315.25V220.812C315.25 218.844 314.84 217.477 314.02 216.711C313.199 215.945 312.297 215.562 311.312 215.562C310.328 215.562 309.426 215.945 308.605 216.711C307.785 217.477 307.375 218.844 307.375 220.812C307.375 226.664 307.648 232.051 308.195 236.973C308.742 241.895 309.453 246.434 310.328 250.59C311.203 254.746 312.188 258.547 313.281 261.992C314.375 265.383 315.469 268.5 316.562 271.344C317.438 273.586 318.395 276.184 319.434 279.137C320.527 282.09 321.539 285.617 322.469 289.719C323.398 293.82 324.164 298.605 324.766 304.074C325.422 309.543 325.75 315.914 325.75 323.188C325.75 325.484 325.34 327.48 324.52 329.176C323.699 330.816 322.605 332.184 321.238 333.277C319.871 334.316 318.312 335.082 316.562 335.574C314.867 336.066 313.117 336.312 311.312 336.312C309.508 336.312 307.73 336.066 305.98 335.574C304.285 335.082 302.754 334.316 301.387 333.277C300.02 332.184 298.926 330.816 298.105 329.176C297.285 327.48 296.875 325.484 296.875 323.188V290.375H307.375V323.188C307.375 325.156 307.785 326.523 308.605 327.289C309.426 328.055 310.328 328.438 311.312 328.438C312.297 328.438 313.199 328.055 314.02 327.289C314.84 326.523 315.25 325.156 315.25 323.188C315.25 316.133 314.895 309.953 314.184 304.648C313.527 299.289 312.68 294.586 311.641 290.539C310.602 286.438 309.453 282.855 308.195 279.793C306.992 276.73 305.871 273.914 304.832 271.344C303.793 268.828 302.781 265.957 301.797 262.73C300.867 259.504 300.02 255.84 299.254 251.738C298.543 247.637 297.969 243.043 297.531 237.957C297.094 232.816 296.875 227.102 296.875 220.812C296.875 218.516 297.285 216.547 298.105 214.906C298.926 213.266 300.02 211.926 301.387 210.887C302.754 209.793 304.285 209 305.98 208.508C307.73 207.961 309.508 207.688 311.312 207.688C313.117 207.688 314.867 207.961 316.562 208.508C318.312 209 319.871 209.793 321.238 210.887C322.605 211.926 323.699 213.266 324.52 214.906C325.34 216.547 325.75 218.516 325.75 220.812V253.625Z" fill="black"/>
<rect x="0.5" y="0.5" width="431" height="386" stroke="#B6CE31"/>
<path d="M172.164 94.704C171.588 94.704 170.916 94.416 170.148 93.84C169.38 93.264 168.676 92.624 168.036 91.92C167.46 91.216 167.172 90.64 167.172 90.192C167.172 89.808 167.3 89.616 167.556 89.616C167.812 89.616 168.164 89.712 168.612 89.904C169.06 90.096 169.636 90.192 170.34 90.192C169.956 89.68 169.668 89.104 169.476 88.464C169.284 87.76 169.188 87.12 169.188 86.544C169.188 85.584 169.668 84.112 170.628 82.128C171.652 80.144 172.932 77.904 174.468 75.408C176.068 72.912 177.668 70.448 179.268 68.016C180.932 65.584 182.436 63.44 183.78 61.584C185.124 59.664 186.084 58.32 186.66 57.552C184.932 59.536 183.524 61.2 182.436 62.544C181.348 63.824 180.74 64.464 180.612 64.464C180.484 64.464 181.028 63.536 182.244 61.68C183.46 59.824 185.604 56.656 188.676 52.176C189.316 52.176 190.148 52.496 191.172 53.136C192.26 53.776 193.22 54.512 194.052 55.344C194.948 56.176 195.396 56.944 195.396 57.648C194.628 58.928 193.412 60.624 191.748 62.736C190.084 64.784 188.324 66.896 186.468 69.072C184.612 71.248 183.012 73.168 181.668 74.832C181.924 74.64 182.756 73.904 184.164 72.624C185.572 71.344 187.268 69.84 189.252 68.112C191.3 66.384 193.348 64.656 195.396 62.928C197.508 61.2 199.364 59.76 200.964 58.608C202.564 57.456 203.588 56.848 204.036 56.784C204.356 56.784 204.868 57.04 205.572 57.552C206.276 58.064 206.98 58.704 207.684 59.472C208.388 60.176 208.932 60.88 209.316 61.584C209.764 62.224 209.892 62.704 209.7 63.024C209.252 63.664 208.42 64.912 207.204 66.768C206.052 68.56 204.772 70.608 203.364 72.912C202.02 75.216 200.804 77.424 199.716 79.536C200.548 78.896 201.668 77.84 203.076 76.368C204.548 74.832 206.212 73.072 208.068 71.088C209.924 69.04 211.844 66.992 213.828 64.944C215.812 62.832 217.732 60.848 219.588 58.992C221.508 57.136 223.236 55.632 224.772 54.48L225.156 54.192L225.54 53.712C225.86 53.712 226.34 54 226.98 54.576C227.62 55.152 228.26 55.856 228.9 56.688C229.54 57.52 230.02 58.288 230.34 58.992C230.724 59.696 230.788 60.208 230.532 60.528C230.148 60.976 229.38 61.968 228.228 63.504C227.076 65.04 225.732 66.864 224.196 68.976C222.66 71.088 221.156 73.232 219.684 75.408C218.276 77.52 217.092 79.408 216.132 81.072L224.1 75.984C224.74 75.6 224.74 75.632 224.1 76.08C223.46 76.528 222.628 77.136 221.604 77.904C220.644 78.608 219.908 79.184 219.396 79.632C219.204 79.824 218.948 80.144 218.628 80.592C218.372 81.04 218.34 81.168 218.532 80.976C219.556 80.08 220.868 79.056 222.468 77.904C224.132 76.752 225.828 75.6 227.556 74.448C229.284 73.232 230.852 72.176 232.26 71.28C231.044 71.92 229.796 72.592 228.516 73.296C227.236 73.936 225.956 74.704 224.676 75.6L226.404 74.352C227.108 73.84 228.068 73.232 229.284 72.528C230.5 71.76 231.716 71.056 232.932 70.416C234.148 69.712 235.044 69.264 235.62 69.072L232.26 71.28L237.348 68.88C237.668 68.752 237.924 68.656 238.116 68.592C238.308 68.528 238.468 68.496 238.596 68.496C239.236 68.496 239.268 68.912 238.692 69.744C238.18 70.576 237.444 71.248 236.484 71.76C234.948 72.528 233.124 73.744 231.012 75.408C228.964 77.008 226.788 78.832 224.484 80.88C222.244 82.864 220.068 84.848 217.956 86.832C215.908 88.752 214.148 90.48 212.676 92.016C211.268 90.736 210.532 89.52 210.468 88.368C210.468 87.216 210.436 86.128 210.372 85.104C210.372 84.912 210.724 84.112 211.428 82.704C211.3 82.064 211.3 81.456 211.428 80.88C211.492 79.92 211.908 78.416 212.676 76.368C213.444 74.256 214.5 71.888 215.844 69.264C217.188 66.576 218.66 63.92 220.26 61.296C218.596 63.152 216.74 65.232 214.692 67.536C212.644 69.84 210.596 72.176 208.548 74.544C206.564 76.912 204.804 79.088 203.268 81.072C201.732 83.056 200.644 84.688 200.004 85.968C199.492 86.288 199.012 86.448 198.564 86.448C198.18 86.448 197.764 86.288 197.316 85.968C196.868 85.904 196.452 85.488 196.068 84.72C195.748 83.888 195.492 82.896 195.3 81.744C195.3 81.936 195.268 82.16 195.204 82.416C195.14 82.608 195.108 82.8 195.108 82.992V83.088C195.044 83.088 194.98 82.864 194.916 82.416C194.852 81.968 194.852 81.616 194.916 81.36L195.204 79.824V80.112C195.204 80.368 195.204 80.624 195.204 80.88C195.268 81.136 195.3 81.424 195.3 81.744C195.684 79.888 196.196 77.84 196.836 75.6C197.54 73.296 198.212 71.152 198.852 69.168C199.556 67.184 200.036 65.712 200.292 64.752C199.972 65.328 199.524 66.256 198.948 67.536C198.436 68.816 197.924 70.16 197.412 71.568C196.964 72.912 196.612 73.968 196.356 74.736C195.972 76.144 195.716 77.168 195.588 77.808C195.46 78.384 195.332 79.024 195.204 79.728C195.204 78.704 195.364 77.392 195.684 75.792C196.068 74.192 196.516 72.528 197.028 70.8C197.604 69.072 198.148 67.504 198.66 66.096C199.172 64.688 199.556 63.696 199.812 63.12C198.852 64.08 197.284 65.584 195.108 67.632C192.996 69.616 190.66 71.888 188.1 74.448C185.604 76.944 183.172 79.472 180.804 82.032C178.5 84.528 176.612 86.768 175.14 88.752C175.396 88.688 175.716 88.656 176.1 88.656C176.612 88.656 177.156 88.816 177.732 89.136C178.308 89.456 178.596 89.872 178.596 90.384C178.596 90.832 178.212 91.376 177.444 92.016C176.676 92.72 175.78 93.328 174.756 93.84C173.732 94.416 172.868 94.704 172.164 94.704ZM228.652 122.832C228.332 122.832 227.788 122.544 227.02 121.968C226.828 121.776 226.348 121.36 225.58 120.72C224.812 120.144 224.108 119.472 223.468 118.704C222.764 118 222.412 117.392 222.412 116.88C222.412 116.56 222.732 115.92 223.372 114.96C224.012 114.064 224.78 113.008 225.676 111.792C227.02 109.936 228.652 107.696 230.572 105.072C232.556 102.448 234.668 99.632 236.908 96.624C239.148 93.68 241.388 90.736 243.628 87.792C245.868 84.784 247.948 82 249.868 79.44C251.852 76.816 253.516 74.576 254.86 72.72C256.268 70.8 257.228 69.456 257.74 68.688C257.868 68.496 257.644 68.752 257.068 69.456C256.492 70.096 255.756 70.96 254.86 72.048C253.964 73.072 253.1 74.128 252.268 75.216C251.5 76.24 250.956 77.008 250.636 77.52C250.7 77.2 251.084 76.56 251.788 75.6C252.492 74.64 253.292 73.552 254.188 72.336C255.148 71.12 256.012 70 256.78 68.976C257.612 67.952 258.156 67.248 258.412 66.864C256.684 68.784 254.636 70.864 252.268 73.104C249.964 75.28 247.564 77.456 245.068 79.632C242.636 81.808 240.364 83.856 238.252 85.776C236.204 87.632 234.572 89.2 233.356 90.48C231.756 89.968 230.604 89.136 229.9 87.984C229.26 86.768 228.94 85.552 228.94 84.336C228.94 83.632 229.036 82.992 229.228 82.416C229.932 80.944 231.02 79.056 232.492 76.752C233.964 74.384 235.532 71.952 237.196 69.456C238.86 66.96 240.396 64.656 241.804 62.544C243.212 60.368 244.236 58.736 244.876 57.648C244.684 57.328 244.332 57.584 243.82 58.416C243.308 59.184 242.732 60.176 242.092 61.392C241.452 62.544 240.844 63.6 240.268 64.56C239.692 65.456 239.308 65.872 239.116 65.808C239.116 65.744 239.372 65.232 239.884 64.272C240.396 63.312 240.972 62.224 241.612 61.008C242.316 59.728 242.924 58.608 243.436 57.648C243.948 56.688 244.204 56.176 244.204 56.112C244.076 55.792 243.948 55.504 243.82 55.248C243.692 54.928 243.628 54.672 243.628 54.48C243.628 53.84 244.076 53.52 244.972 53.52C245.42 53.52 246.028 53.616 246.796 53.808C247.244 53.872 247.916 54.064 248.812 54.384C249.772 54.64 250.668 55.088 251.5 55.728C252.332 56.368 252.748 57.2 252.748 58.224C252.748 58.928 252.524 59.632 252.076 60.336C251.308 61.232 250.38 62.512 249.292 64.176C248.204 65.776 247.084 67.504 245.932 69.36C244.78 71.152 243.756 72.816 242.86 74.352C241.964 75.888 241.324 77.008 240.94 77.712C242.092 76.816 243.66 75.376 245.644 73.392C247.628 71.408 249.772 69.2 252.076 66.768C254.38 64.272 256.62 61.872 258.796 59.568C261.036 57.264 262.956 55.408 264.556 54C265.516 54.384 266.668 54.896 268.012 55.536C269.356 56.176 270.444 56.848 271.276 57.552C272.108 58.256 272.268 58.96 271.756 59.664C269.58 62.608 267.66 65.072 265.996 67.056C264.332 69.04 262.7 70.992 261.1 72.912C259.564 74.768 257.772 77.04 255.724 79.728C253.932 82.096 252.14 84.56 250.348 87.12C248.556 89.616 246.796 92.112 245.068 94.608C242.956 97.68 240.972 100.624 239.116 103.44C237.26 106.256 235.5 108.912 233.836 111.408C233.9 111.088 234.38 110.16 235.276 108.624C236.236 107.088 237.356 105.296 238.636 103.248C239.916 101.264 241.164 99.312 242.38 97.392C243.66 95.472 244.716 93.872 245.548 92.592C246.38 91.312 246.764 90.704 246.7 90.768C246.636 90.832 246.22 91.376 245.452 92.4C244.748 93.424 243.884 94.672 242.86 96.144C241.836 97.616 240.876 99.056 239.98 100.464C239.084 101.872 238.38 103.024 237.868 103.92C237.036 105.392 236.14 106.864 235.18 108.336C234.284 109.808 233.548 111.024 232.972 111.984C232.46 113.008 232.332 113.584 232.588 113.712C233.548 113.328 234.412 113.136 235.18 113.136C236.204 113.136 236.908 113.424 237.292 114C237.548 114.32 237.676 114.608 237.676 114.864C237.676 115.12 237.388 115.216 236.812 115.152C236.428 115.088 235.724 115.472 234.7 116.304C233.74 117.136 232.908 117.968 232.204 118.8C231.564 119.632 230.988 120.496 230.476 121.392C229.964 122.352 229.356 122.832 228.652 122.832Z" fill="#F8FFD0"/>
</svg>
